<svg width="48" height="48" viewBox="0 0 48 48" fill="none" xmlns="http://www.w3.org/2000/svg">
<path fill-rule="evenodd" clip-rule="evenodd" d="M30.2255 36.7825L36.0086 37.1131C36.0086 37.1131 40.7975 35.6802 43.186 32.6568L44.311 26.3621L42.4533 20.6067L32.3684 27.0156C32.3684 27.0156 30.0789 34.7039 30.2255 36.7825Z" fill="url(#paint0_linear_5122_15185)"/>
<path fill-rule="evenodd" clip-rule="evenodd" d="M42.9019 24.8464C42.9019 26.6376 42.6484 28.3736 42.1691 30.0113C41.2185 33.3063 39.3766 36.2234 36.9168 38.4988C35.1581 40.1285 33.0825 41.4237 30.7969 42.2858C28.7253 43.0692 26.4834 43.4944 24.1345 43.4944C23.8017 43.4944 23.465 43.4865 23.1363 43.4668C22.6451 43.4432 22.1579 43.396 21.6786 43.3369C18.0543 42.8645 14.7626 41.3686 12.0929 39.1404C11.0907 38.3098 10.1797 37.3729 9.3756 36.3493C8.7656 35.5817 8.21502 34.7668 7.73177 33.9047C7.6169 33.7 7.50599 33.4913 7.39508 33.2827C7.39508 33.2748 7.39508 33.2709 7.38716 33.263C7.27229 33.0386 7.16534 32.8142 7.06235 32.5859H7.05839C6.73358 31.8733 6.44839 31.1372 6.21865 30.3813C6.04436 29.8381 5.8978 29.2791 5.77897 28.7122C5.77897 28.7083 5.77897 28.7004 5.77897 28.6965C5.69579 28.2989 5.62449 27.8973 5.56904 27.4918C5.44228 26.6258 5.37891 25.744 5.37891 24.8464C5.37891 24.3307 5.39871 23.815 5.44624 23.3111C5.47001 22.9883 5.50566 22.6694 5.54923 22.3505C5.79086 20.5161 6.30579 18.7682 7.05047 17.1423C7.41488 16.3432 7.83476 15.5755 8.30612 14.8394C9.09041 13.6111 10.0173 12.4853 11.063 11.4735C14.4418 8.2061 19.0564 6.19446 24.1424 6.19446C24.3404 6.19446 24.5385 6.19839 24.7326 6.20233C24.9425 6.2102 25.1525 6.21808 25.3624 6.23382C26.4398 6.30468 27.4934 6.46215 28.5114 6.70622C29.1056 6.84794 29.6879 7.01328 30.2582 7.21012C30.6464 7.34003 31.0267 7.48569 31.403 7.64315C31.6842 7.76125 31.9575 7.88329 32.2308 8.0132C32.2784 8.03682 32.3259 8.0565 32.3734 8.08012C34.1955 8.96587 35.8473 10.1311 37.2812 11.5286C37.4872 11.7255 37.6852 11.9302 37.8833 12.1388C38.014 12.2805 38.1447 12.4262 38.2714 12.5719C38.4893 12.8159 38.6992 13.0718 38.9052 13.3277C39.6538 14.2725 40.3114 15.2882 40.862 16.3668C41.5076 17.6187 42.0146 18.9532 42.3592 20.3507C42.7197 21.7915 42.9098 23.2953 42.9098 24.8464H42.9019Z" fill="url(#paint1_radial_5122_15185)"/>
<path style="mix-blend-mode:multiply" opacity="0.71" fill-rule="evenodd" clip-rule="evenodd" d="M13.2696 23.4017C13.2696 23.4017 16.5889 26.3503 17.4128 27.5667C18.2367 28.7832 21.0134 37.0738 21.0887 38.8217C21.164 40.5695 19.5003 42.9276 19.5003 42.9276C19.5003 42.9276 16.684 42.1403 15.1075 41.2033L16.0582 34.6882L13.2656 23.4057L13.2696 23.4017Z" fill="url(#paint2_linear_5122_15185)"/>
<path style="mix-blend-mode:multiply" opacity="0.71" fill-rule="evenodd" clip-rule="evenodd" d="M32.8594 28.8854L38.0523 31.4442C38.0523 31.4442 39.0822 32.1331 40.3061 30.8419C40.3061 30.8419 40.4289 29.0428 39.6803 27.3068L32.8633 28.8854H32.8594Z" fill="url(#paint3_linear_5122_15185)"/>
<g style="mix-blend-mode:multiply" opacity="0.3">
<path fill-rule="evenodd" clip-rule="evenodd" d="M13.8058 24.378C13.382 26.1731 13.6513 28.0548 14.3049 29.7634C14.4475 30.1334 14.598 30.6058 14.8277 30.9404C15.01 31.2042 15.3189 31.3577 15.5685 31.5467C15.8972 31.7947 16.1983 32.0821 16.5231 32.3379C16.8915 32.6293 17.2638 32.8064 17.7074 32.9639C18.5511 33.2631 19.3988 33.4875 20.29 33.2237C21.0822 32.9914 21.8507 32.4246 22.3102 31.7474C22.5241 31.4325 22.7696 31.153 22.9954 30.8499C23.2172 30.5507 23.3559 30.1728 23.4945 29.8264C23.7678 29.1453 23.855 28.2832 23.8074 27.5549C23.7837 27.2085 23.7441 26.8542 23.6569 26.5156C23.5658 26.1613 23.4034 25.8346 23.3361 25.4724C23.2252 24.8819 22.9598 24.3583 22.7221 23.8072C22.1319 22.4372 20.599 21.6184 19.1849 21.4137C18.5194 21.3192 17.8619 21.4688 17.2123 21.5712C16.5231 21.6774 16.02 21.9963 15.41 22.2955C15.0496 22.4727 14.6931 22.6695 14.4356 22.9805C13.8256 23.7206 13.7385 24.7599 13.8098 24.3859L13.8058 24.378Z" fill="#7D72B3"/>
<path fill-rule="evenodd" clip-rule="evenodd" d="M19.4688 34.3062C19.7857 34.0228 20.2214 33.696 20.6294 33.5543C20.9106 33.4559 21.1721 33.5622 21.4018 33.7275C21.8652 34.0543 21.7741 34.8219 21.4097 35.2077C20.7403 35.9163 19.4846 35.3494 19.4886 34.4479L19.4648 34.3101L19.4688 34.3062Z" fill="#7D72B3"/>
<path fill-rule="evenodd" clip-rule="evenodd" d="M25.9424 28.3539C25.7602 28.1059 25.6295 28.0232 25.6414 27.7752C25.6493 27.5902 25.8592 27.2359 25.9583 27.0548C26.2553 26.5194 26.7267 26.1336 27.305 25.9525C27.713 25.8226 28.0972 25.7636 28.525 25.7596C28.9092 25.7596 29.2261 25.8699 29.5905 25.984C30.2481 26.1927 30.9729 26.543 31.4562 27.0509C31.9117 27.5311 31.8444 28.3972 31.4483 28.8854C31.1433 29.2593 30.6996 29.4877 30.2996 29.7436C29.8599 30.0231 29.3766 30.3813 28.8657 30.523C28.5369 30.6136 28.2992 30.6608 27.9744 30.5663C27.6615 30.4758 27.404 30.3852 27.1188 30.2396C26.8574 30.1057 26.6594 30.0506 26.4415 29.842C26.2514 29.6569 26.0969 29.4719 25.9622 29.2397C25.776 28.9129 25.8434 28.5153 25.9424 28.35V28.3539Z" fill="#7D72B3"/>
<path fill-rule="evenodd" clip-rule="evenodd" d="M24.52 24.9761C24.4448 25.2202 24.2784 25.7084 24.7181 25.6808C24.9201 25.669 25.2172 25.4997 25.3241 25.3777C25.7638 24.8698 24.7141 24.5274 24.623 24.9761H24.524H24.52Z" fill="#7D72B3"/>
<path fill-rule="evenodd" clip-rule="evenodd" d="M31.0599 37.1682C30.85 36.7313 30.8024 36.562 30.945 36.0975C31.1589 35.4007 31.5114 34.633 31.8798 33.9992C32.1135 33.5977 32.4066 33.0505 32.8503 32.8615C33.2068 32.708 33.6227 32.6135 34.0109 32.5899C34.8546 32.5387 35.5081 32.9363 36.1102 33.4874C36.4826 33.8299 36.7915 34.1134 37.0054 34.5818C37.1916 34.9873 37.3025 35.5227 37.2589 35.9636C37.1361 37.2273 36.027 38.1248 35.2071 38.987C34.5615 39.668 33.4801 40.5223 32.474 40.1601C31.7768 39.9081 31.3609 39.172 31.0757 38.5343C30.8856 38.1091 30.9569 37.617 31.0559 37.1682H31.0599Z" fill="#7D72B3"/>
<path fill-rule="evenodd" clip-rule="evenodd" d="M29.9652 33.8612C29.7196 34.062 29.6364 34.3061 29.577 34.621C29.5334 34.8493 29.4384 35.3572 29.6641 35.5422C29.8622 35.7036 30.2266 35.432 30.3811 35.3296C30.5158 35.243 30.6148 35.1485 30.7217 35.0265C30.7772 34.9635 30.8485 34.9045 30.8802 34.8257C30.9317 34.6997 30.9119 34.5226 30.9079 34.3887C30.9 34.2234 30.8049 34.0856 30.69 33.9754C30.591 33.8809 30.5078 33.8573 30.3732 33.8297C30.2266 33.7982 30.0484 33.7392 29.9691 33.8652L29.9652 33.8612Z" fill="#7D72B3"/>
<path fill-rule="evenodd" clip-rule="evenodd" d="M22.8142 42.0575C22.7865 42.1323 22.7627 42.1756 22.7984 42.2464C22.838 42.3173 22.9647 42.4197 23.0162 42.4669C23.2063 42.644 23.4123 42.6952 23.6619 42.7464C23.9074 42.7976 24.161 42.8291 24.4105 42.7818C24.5689 42.7503 24.771 42.7149 24.8739 42.5811C25.068 42.3331 24.9056 41.9591 24.7789 41.7189C24.6798 41.5378 24.5412 41.3725 24.4303 41.1993C24.3075 41.0143 24.1372 40.8568 23.9629 40.7151C23.753 40.5379 23.4242 40.2978 23.1509 40.4946C22.8934 40.6797 22.7508 41.0103 22.6835 41.3095C22.6439 41.4749 22.6558 41.6717 22.7112 41.8331C22.7548 41.9473 22.838 42.026 22.8142 42.0575Z" fill="#7D72B3"/>
<path fill-rule="evenodd" clip-rule="evenodd" d="M38.0404 34.8219C37.8899 34.6999 37.8344 34.692 37.8503 34.5227C37.8661 34.3456 37.882 34.1724 37.9493 34.0031C38.0959 33.637 38.4008 33.3339 38.694 33.078C38.8603 32.9284 39.0623 32.8418 39.2762 32.7709C39.3872 32.7355 39.4743 32.6922 39.5892 32.7079C39.7833 32.7355 39.914 32.8536 39.9734 33.0347C40.0685 33.322 39.9259 33.6409 39.7714 33.8732C39.5694 34.1724 39.4149 34.5109 39.098 34.7117C38.9514 34.8022 38.797 34.8928 38.6425 34.9676C38.5474 35.0148 38.4444 35.062 38.3375 35.0502C38.2622 35.0424 38.0285 34.9794 38.0483 34.8258L38.0404 34.8219Z" fill="#7D72B3"/>
<path fill-rule="evenodd" clip-rule="evenodd" d="M7.40625 21.894C7.44586 22.0593 7.45378 22.2286 7.50528 22.39C7.61619 22.7207 7.85385 23.0041 8.09943 23.2403C8.56684 23.693 9.23229 23.882 9.85814 24.0079C10.1829 24.0749 10.5315 24.13 10.8642 24.1339C11.1336 24.1339 11.4188 24.193 11.6881 24.1733C12.1397 24.1379 12.5675 24.0119 12.9517 23.7836C13.5221 23.445 13.9935 22.9214 13.8033 22.2325C13.7004 21.8546 13.4468 21.5278 13.1735 21.2602C12.8725 20.9649 12.6309 20.6618 12.2348 20.4807C12.0605 20.402 11.8862 20.3232 11.7119 20.2524C11.498 20.1697 11.3 20.0516 11.0742 20.0122C10.888 19.9807 10.6939 19.9099 10.5038 19.8981C10.3176 19.8902 10.1196 19.8902 9.9334 19.902C9.25606 19.9571 8.55891 20.3508 8.09151 20.8271C7.90534 21.0161 7.7469 21.2287 7.56073 21.4176C7.39041 21.5908 7.41021 21.7995 7.41021 21.89L7.40625 21.894Z" fill="#7D72B3"/>
<path fill-rule="evenodd" clip-rule="evenodd" d="M21.307 17.2014C21.1209 17.4927 21.0496 17.5596 21.0218 17.8982C20.9862 18.3312 21.0179 18.7406 21.1248 19.1618C21.3704 20.1263 22.1309 20.9019 22.7805 21.6301C23.8461 22.823 25.0462 23.9095 26.5118 24.5905C27.0901 24.8582 27.7002 25.1653 28.3577 25.0787C28.9954 24.996 29.5777 24.7559 30.1877 24.563C30.7224 24.3937 31.2968 24.2362 31.8513 24.1614C32.1128 24.126 32.3742 24.0906 32.6356 24.063C33.0159 24.0197 33.3367 23.8701 33.7011 23.7638C34.224 23.6103 34.7706 23.5197 35.2935 23.3505C35.5351 23.2757 35.7609 23.1773 35.9827 23.0631C36.3471 22.8741 36.7353 22.7639 37.0958 22.5671C38.4346 21.8348 39.3456 20.3665 39.4169 18.839C39.4526 18.0596 39.1674 17.2447 38.7713 16.5833C38.5495 16.2093 38.2643 15.8708 38.0187 15.5086C37.6978 15.0441 37.3215 14.6229 36.9096 14.2331C36.1491 13.5088 35.2935 13.0443 34.2913 12.7372C33.7407 12.5679 33.2337 12.4971 32.6515 12.4971C31.7681 12.4971 30.865 12.6191 29.9976 12.7963C29.1301 12.9695 28.2507 13.1545 27.3951 13.3946C26.496 13.6466 25.5889 14.0284 24.7452 14.4221C23.8738 14.8276 23.1133 15.363 22.5547 16.1503C22.428 16.3274 22.2854 16.4967 22.1666 16.6739C22.0715 16.8156 22.02 16.9258 21.8853 17.0242C21.6358 17.2093 21.4021 17.2526 21.307 17.1975V17.2014Z" fill="#7D72B3"/>
</g>
<path style="mix-blend-mode:multiply" opacity="0.71" fill-rule="evenodd" clip-rule="evenodd" d="M40.1641 20.583L42.9051 24.8464C42.9051 24.8464 42.9922 21.9963 42.5882 21.4215C42.1842 20.8468 40.1641 20.583 40.1641 20.583Z" fill="url(#paint4_linear_5122_15185)"/>
<path style="mix-blend-mode:multiply" opacity="0.71" fill-rule="evenodd" clip-rule="evenodd" d="M7.50391 17.3668C7.50391 17.3668 12.8632 20.8035 27.5191 20.1539L33.421 20.6067C33.421 20.6067 39.0299 18.7092 40.3014 15.3788C40.3014 15.3788 38.6457 13.005 38.2575 12.5719C37.8693 12.1389 30.9691 13.6191 30.9691 13.6191L7.50391 17.3668Z" fill="url(#paint5_linear_5122_15185)"/>
<path fill-rule="evenodd" clip-rule="evenodd" d="M8.29215 13.7647V12.6821C8.29215 12.6821 11.255 8.87538 16.135 4.6907C16.135 4.6907 28.8183 3.57662 32.4229 4.6907L33.8488 7.93058L38.0515 9.51706L38.2614 12.5719C38.2614 12.5719 35.5006 16.9337 30.4701 18.4572L27.9271 17.8589C27.9271 17.8589 25.1424 19.0044 17.7868 19.0044C10.4311 19.0044 7.50391 17.3668 7.50391 17.3668V14.8591L8.29215 13.7608V13.7647Z" fill="url(#paint6_linear_5122_15185)"/>
<path fill-rule="evenodd" clip-rule="evenodd" d="M18.9131 37.3964L17.6812 40.593L13.8825 41.4905L10.0403 41.3173C10.0403 41.3173 5.96441 38.7467 4.01161 34.684L4.43544 30.9875L2.99362 29.6648C2.99362 29.6648 2.64505 26.2123 5.53662 23.0591C5.53662 23.0591 8.72526 22.1772 13.2686 23.4015L16.069 26.4879C16.069 26.4879 18.3625 30.834 18.9131 37.3964Z" fill="url(#paint7_linear_5122_15185)"/>
<path style="mix-blend-mode:multiply" opacity="0.71" fill-rule="evenodd" clip-rule="evenodd" d="M23.9062 39.5815C23.9062 39.5815 24.7698 40.7152 25.2926 40.9396C25.8194 41.164 28.7467 41.8332 29.0833 41.7978C29.42 41.7624 29.42 38.6878 29.2339 38.1918C29.0477 37.6958 28.707 37.3021 28.707 37.3021L23.9062 39.5854V39.5815Z" fill="url(#paint8_linear_5122_15185)"/>
<path fill-rule="evenodd" clip-rule="evenodd" d="M45.0645 16.4496L44.918 17.6661L42.783 21.6185C41.5867 21.65 40.3113 20.7012 40.1608 20.5831C40.1608 20.5792 40.1489 20.5753 40.1449 20.5713C39.2893 19.1856 38.9883 16.1386 38.9883 16.1386L39.9865 14.9143L41.6224 14.6191L42.0343 14.8592L43.4841 14.4537L44.6209 15.1741L44.9576 15.3907L45.0645 16.4496Z" fill="url(#paint9_linear_5122_15185)"/>
<path fill-rule="evenodd" clip-rule="evenodd" d="M40.5953 22.3821C40.5953 22.3821 38.2108 21.0869 37.0462 21.1302L34.0715 23.1576C34.0715 23.1576 32.8633 26.4172 32.8594 28.8854C32.8594 28.8854 35.7272 29.9129 37.7473 29.6295C37.7473 29.6295 40.0526 28.6099 40.8488 26.9368C40.8488 26.9368 41.1617 24.063 40.5993 22.3821H40.5953Z" fill="url(#paint10_linear_5122_15185)"/>
<path fill-rule="evenodd" clip-rule="evenodd" d="M8.29302 12.6821C8.29302 12.6821 13.8068 12.8632 19.887 11.3121C19.887 11.3121 26.0425 9.16666 27.2427 8.34389C28.4429 7.52113 32.4198 4.6946 32.4198 4.6946C32.4198 4.6946 26.1138 3.13175 16.1319 4.6946C16.1319 4.6946 10.8835 8.5919 8.28906 12.6821H8.29302Z" fill="url(#paint11_linear_5122_15185)"/>
<path fill-rule="evenodd" clip-rule="evenodd" d="M33.8488 7.93457C33.8488 7.93457 30.0225 12.32 29.5709 12.6822C29.1193 13.0444 22.8847 15.5402 22.8847 15.5402L19.3633 16.4378C19.3633 16.4378 23.768 16.4023 24.5166 16.4378L25.9188 15.0796L30.7711 15.2804C30.7711 15.2804 35.2233 12.6113 38.0515 9.52105L33.8488 7.93457Z" fill="url(#paint12_linear_5122_15185)"/>
<path fill-rule="evenodd" clip-rule="evenodd" d="M7.50391 14.8592L11.4055 15.2292C11.4055 15.2292 14.0079 15.3394 15.5092 14.8395C15.5092 14.8395 10.2846 14.5875 8.29215 13.7648L7.50391 14.8631V14.8592Z" fill="url(#paint13_linear_5122_15185)"/>
<path fill-rule="evenodd" clip-rule="evenodd" d="M34.0742 23.1537C34.0742 23.1537 35.7775 23.7875 36.8984 23.7127C38.0194 23.6379 40.5981 22.3782 40.5981 22.3782C40.5981 22.3782 39.4177 21.3507 37.049 21.1263L34.0742 23.1537Z" fill="url(#paint14_linear_5122_15185)"/>
<path fill-rule="evenodd" clip-rule="evenodd" d="M2.99124 29.6649C2.99124 29.6649 8.14456 28.5468 9.55866 27.98C10.9728 27.4131 13.2662 23.4016 13.2662 23.4016C13.2662 23.4016 10.434 22.0946 5.53423 23.0591C5.53423 23.0591 2.48027 25.8817 2.99124 29.6649Z" fill="url(#paint15_linear_5122_15185)"/>
<path fill-rule="evenodd" clip-rule="evenodd" d="M4.43801 30.9876C4.43801 30.9876 8.04652 30.5152 9.32198 30.1688C10.5974 29.8224 12.5898 28.5941 12.5898 28.5941C12.5898 28.5941 11.0609 32.0544 10.5103 32.8339C10.5103 32.8339 6.22048 34.4401 4.01417 34.6802C4.01417 34.6802 3.8993 32.7552 4.43801 30.9837V30.9876Z" fill="url(#paint16_linear_5122_15185)"/>
<path fill-rule="evenodd" clip-rule="evenodd" d="M23.7188 38.7273C23.7188 38.7273 24.5426 36.9322 25.521 36.5464C25.521 36.5464 27.8462 36.5661 28.7097 37.2983L28.1472 40.7035L24.9189 40.4831C24.9189 40.4831 23.7188 39.8729 23.7188 38.7273Z" fill="url(#paint17_linear_5122_15185)"/>
<path fill-rule="evenodd" clip-rule="evenodd" d="M23.7188 38.7272C23.7188 38.7272 24.7328 39.0186 25.6715 38.7272C26.6103 38.4399 27.7749 36.9321 27.7749 36.9321C27.7749 36.9321 27.0262 36.444 25.525 36.5463C25.525 36.5463 23.9881 37.188 23.7227 38.7272H23.7188Z" fill="url(#paint18_linear_5122_15185)"/>
<path style="mix-blend-mode:multiply" opacity="0.5" fill-rule="evenodd" clip-rule="evenodd" d="M18.918 37.3966L17.6861 40.5932L13.8874 41.4907L10.0452 41.3175C10.0452 41.3175 13.8518 41.0852 13.9667 40.5262C14.0776 39.9672 14.339 38.365 14.339 38.365C13.4042 35.57 10.5126 32.8379 10.5126 32.8379C11.7207 31.1452 12.5922 28.5942 12.5922 28.5942L10.9523 29.5036L9.88281 27.8069C11.6574 26.2361 13.2735 23.4017 13.2735 23.4017L16.0739 26.4881C16.0739 26.4881 18.3674 30.8342 18.918 37.3966Z" fill="url(#paint19_linear_5122_15185)"/>
<path style="mix-blend-mode:multiply" opacity="0.5" fill-rule="evenodd" clip-rule="evenodd" d="M26.3359 38.3649L28.1422 40.7033L28.7086 37.2981L27.7698 36.9359L26.3359 38.3649Z" fill="url(#paint20_linear_5122_15185)"/>
<path style="mix-blend-mode:multiply" opacity="0.71" fill-rule="evenodd" clip-rule="evenodd" d="M36.8945 23.7165C36.8945 23.7165 37.5243 25.8738 37.5996 26.7674C37.6749 27.661 37.7462 29.6333 37.7462 29.6333C37.7462 29.6333 39.4771 29.0506 40.8477 26.9406C40.8477 26.9406 41.2081 24.4841 40.5981 22.3859C40.5981 22.3859 38.3324 23.5393 36.8985 23.7204L36.8945 23.7165Z" fill="url(#paint21_linear_5122_15185)"/>
<path style="mix-blend-mode:multiply" opacity="0.5" fill-rule="evenodd" clip-rule="evenodd" d="M40.4805 16.4888L40.936 16.8431C40.936 16.8431 41.9342 16.4416 41.9659 15.9298C41.9975 15.418 42.0332 14.859 42.0332 14.859L41.6252 14.6189L40.4805 16.4888Z" fill="url(#paint22_linear_5122_15185)"/>
<path style="mix-blend-mode:multiply" opacity="0.71" fill-rule="evenodd" clip-rule="evenodd" d="M45.0678 16.4494L44.9213 17.6659L42.7863 21.6183C41.59 21.6498 40.3146 20.701 40.1641 20.5829C41.2375 21.2797 42.3704 21.2246 42.3704 21.2246C42.3704 21.2246 42.4456 19.9767 42.3704 19.1933C42.2951 18.4099 41.7287 16.8431 41.7287 16.8431L44.6242 15.174L44.9609 15.3905L45.0678 16.4494Z" fill="url(#paint23_linear_5122_15185)"/>
<path fill-rule="evenodd" clip-rule="evenodd" d="M41.6224 14.6189L40.4776 16.4888C40.4776 16.4888 39.7884 16.6699 38.9883 16.1424L39.9865 14.9181L41.6263 14.6228L41.6224 14.6189Z" fill="url(#paint24_linear_5122_15185)"/>
<path fill-rule="evenodd" clip-rule="evenodd" d="M42.0275 14.8591L41.9602 15.9299C41.9602 15.9299 41.374 16.6857 40.6016 17.0125C40.6016 17.0125 42.087 16.8511 42.7762 16.5519C42.7762 16.5519 44.5626 15.8433 44.9587 15.3866L43.4852 14.4497L42.0315 14.8552L42.0275 14.8591Z" fill="url(#paint25_linear_5122_15185)"/>
<path style="mix-blend-mode:multiply" opacity="0.5" fill-rule="evenodd" clip-rule="evenodd" d="M20.3633 11.0879L24.1382 15.0324L29.5767 12.6783C29.5767 12.6783 33.5536 8.34402 33.8546 7.93067L32.4286 4.6908C32.4286 4.6908 28.527 7.37167 27.2515 8.34009C25.9761 9.30851 20.3672 11.0839 20.3672 11.0839L20.3633 11.0879Z" fill="url(#paint26_linear_5122_15185)"/>
<path style="mix-blend-mode:multiply" opacity="0.5" fill-rule="evenodd" clip-rule="evenodd" d="M25.9217 15.0796L27.93 17.855C27.93 17.855 26.3971 18.3667 24.7691 18.5636L24.5195 16.4338L25.9217 15.0757V15.0796Z" fill="url(#paint27_linear_5122_15185)"/>
<path style="mix-blend-mode:multiply" opacity="0.5" fill-rule="evenodd" clip-rule="evenodd" d="M30.7737 15.2804L30.4727 18.4573C30.4727 18.4573 35.7448 16.5795 38.264 12.5719L38.0541 9.51709C38.0541 9.51709 34.0336 13.2766 30.7737 15.2764V15.2804Z" fill="url(#paint28_linear_5122_15185)"/>
<path style="mix-blend-mode:multiply" opacity="0.2" fill-rule="evenodd" clip-rule="evenodd" d="M8.95318 14.9968L12.5894 18.7996H14.3957L14.7244 15.0323C14.7244 15.0323 10.6445 15.4102 8.94922 14.9968H8.95318Z" fill="url(#paint29_linear_5122_15185)"/>
<g style="mix-blend-mode:soft-light">
<path fill-rule="evenodd" clip-rule="evenodd" d="M9.75714 11.4499C9.68188 11.2413 9.73337 11.1665 9.84824 10.9736C10.0304 10.6705 10.276 10.4185 10.4939 10.143C10.9177 9.61151 11.3732 9.11549 11.9476 8.73363C12.5378 8.33997 13.1201 7.91087 13.7459 7.56838C14.1737 7.33612 14.6055 7.09598 15.0649 6.93064C15.3897 6.81254 15.7225 6.722 16.0512 6.61964C16.6969 6.42675 17.5762 6.34014 18.1981 6.66688C18.5784 6.86765 18.7249 7.2377 18.8675 7.61956C18.9388 7.80852 18.9983 7.96992 18.9626 8.17463C18.9309 8.35178 18.8398 8.54074 18.7606 8.6982C18.4992 9.22572 18.0159 9.70993 17.5644 10.08C16.6414 10.8319 15.5918 11.3791 14.4629 11.757C14.1618 11.8593 13.8568 11.9735 13.5479 12.0444C13.3458 12.0916 13.1399 12.1152 12.9379 12.1625C12.4705 12.2766 11.9951 12.3829 11.5158 12.4341C11.3851 12.4498 11.2386 12.4932 11.1079 12.4932C10.989 12.4932 10.8742 12.4184 10.7593 12.3987C10.5652 12.3672 10.2919 12.3711 10.1176 12.2766C9.65811 12.0247 9.60266 11.5247 9.75714 11.4421V11.4499Z" fill="#FFA989"/>
<path fill-rule="evenodd" clip-rule="evenodd" d="M17.4677 10.9029C17.5073 10.71 17.4993 10.7021 17.6221 10.5919C17.6895 10.4934 17.7727 10.4029 17.8598 10.3202C17.9747 10.2218 18.0935 10.1391 18.2282 10.0683C18.6084 9.85964 19.0679 9.62344 19.5116 9.75335C19.8086 9.83996 19.979 9.98561 19.9077 10.3084C19.8681 10.4895 19.7136 10.6745 19.571 10.7887C19.3135 10.9934 19.0164 11.1154 18.7154 11.2414C18.4856 11.3359 18.1529 11.3949 17.9034 11.3398C17.6776 11.2887 17.436 11.0446 17.4677 10.9029Z" fill="#FFA989"/>
<path fill-rule="evenodd" clip-rule="evenodd" d="M24.0122 5.53317C23.6676 5.63946 23.4815 5.70638 23.1963 5.90322C22.7685 6.19059 22.309 6.48191 21.9208 6.82046C21.6752 7.03304 21.4296 7.29286 21.2633 7.57237C21.1326 7.79282 21.089 8.05658 21.0692 8.31246C21.0494 8.57622 21.1326 9.04468 21.4178 9.15884C21.5287 9.20215 21.7267 9.16278 21.8337 9.16278C22.0911 9.16278 22.2971 9.12341 22.5467 9.06043C22.7883 9.00138 23.0339 8.98563 23.2715 8.91477C23.5171 8.84391 23.7587 8.77699 24.0083 8.714C24.543 8.58409 25.058 8.45418 25.557 8.21798C26.0284 7.99359 26.5156 7.80857 26.9791 7.56843C27.3118 7.39522 27.6366 7.21413 27.9812 7.0606C28.4565 6.84802 28.9319 6.63938 29.3874 6.38743C29.5815 6.28114 29.7122 6.1591 29.8667 6.00163C30.0172 5.8481 30.1954 5.72213 30.3063 5.53711C30.3578 5.45444 30.4727 5.29697 30.4687 5.19462C30.4648 5.06471 30.2747 4.9033 30.1756 4.84032C30.0053 4.73403 29.7597 4.6671 29.5617 4.64348C29.2725 4.60805 28.9398 4.57262 28.6506 4.59231C28.2941 4.61593 27.9059 4.6671 27.5534 4.73403C27.3197 4.77733 27.1137 4.83638 26.8721 4.84032C26.4404 4.84819 26.0324 4.87575 25.6046 4.94661C25.363 4.98597 25.1293 5.06864 24.8916 5.13557C24.6777 5.19462 24.448 5.24186 24.2459 5.33634C24.1469 5.38358 23.7746 5.46625 24.0043 5.53317H24.0122Z" fill="#FFA989"/>
<path fill-rule="evenodd" clip-rule="evenodd" d="M23.0172 4.83629C22.7874 4.94258 22.4468 5.06068 22.3082 5.30082C22.217 5.45828 22.3438 5.48584 22.4824 5.48978C22.728 5.48978 22.9815 5.37561 23.2152 5.31263C23.3974 5.26145 23.5876 5.17091 23.7421 5.06068C23.8133 5.0095 23.9599 4.95439 23.9084 4.8481C23.8807 4.78511 23.7302 4.71819 23.6668 4.69851C23.4331 4.62765 23.1439 4.68276 22.9657 4.83629H23.0172Z" fill="#FFA989"/>
<path fill-rule="evenodd" clip-rule="evenodd" d="M31.219 12.0484C31.0091 12.1154 30.8031 12.1508 30.6011 12.2138C30.3951 12.2768 30.205 12.4067 30.0267 12.5327C29.7217 12.7452 29.3969 13.0208 29.2108 13.3475C29.0563 13.6192 28.8899 14.1152 29.2108 14.3396C29.6544 14.6466 30.3476 14.3356 30.7873 14.19C31.4804 13.9617 32.2449 13.694 32.8351 13.2452C33.0847 13.0562 33.3263 12.824 33.556 12.6074C33.7462 12.4303 33.9482 12.2059 34.1066 12.0012C34.2254 11.8477 34.2413 11.639 34.2215 11.4501C34.2017 11.2729 34.0234 11.1273 33.861 11.0643C33.5323 10.9344 33.255 11.0879 32.9302 11.143C32.5935 11.1981 32.2013 11.2965 31.9003 11.4658C31.4408 11.7256 30.9576 11.9461 31.215 12.0524L31.219 12.0484Z" fill="#FFA989"/>
<path fill-rule="evenodd" clip-rule="evenodd" d="M32.3731 10.206C32.3176 10.1312 32.282 10.0485 32.2701 9.96191C32.3731 9.93435 32.4285 9.82019 32.4959 9.7572C32.5553 9.70209 32.6306 9.66272 32.7019 9.62729C32.8207 9.56824 33.0385 9.46589 33.1732 9.51707C33.4307 9.61548 33.4941 9.86743 33.3594 10.1076C33.2247 10.3477 32.9752 10.5091 32.7058 10.5445C32.5078 10.5721 32.076 10.2887 32.3176 10.0564L32.3691 10.206H32.3731Z" fill="#FFA989"/>
<path fill-rule="evenodd" clip-rule="evenodd" d="M35.3252 9.50913C35.1549 9.54062 34.9173 9.54456 34.7588 9.62329C34.7232 9.63904 34.6796 9.69415 34.644 9.71777C34.4736 9.83194 34.2756 9.92642 34.1211 10.0603C33.9508 10.2059 33.7606 10.4776 33.8517 10.7098C34.1607 11.5168 35.2896 11.0681 35.8045 10.7807C35.9788 10.6862 36.0897 10.5445 36.2482 10.4342C36.367 10.3476 36.4621 10.2847 36.5492 10.1626C36.676 9.98547 36.6997 9.86343 36.6126 9.65872C36.5453 9.50519 36.3868 9.41071 36.2244 9.37528C36.0897 9.34379 35.9353 9.30442 35.7966 9.3123C35.452 9.32804 35.1589 9.5485 34.8737 9.71384L35.3252 9.51307V9.50913Z" fill="#FFA989"/>
<path fill-rule="evenodd" clip-rule="evenodd" d="M5.80238 23.9804C5.02602 24.3426 4.33679 24.9331 3.89712 25.6732C3.70303 26.0039 3.54062 26.3424 3.40991 26.7046C3.34257 26.8936 3.31088 27.0904 3.23958 27.2754C3.17621 27.4368 3.10887 27.5904 3.07718 27.7636C3.00588 28.1573 2.81971 28.9603 3.45744 29.0115C3.74264 29.0351 4.07933 28.9643 4.3566 28.9092C4.90718 28.795 5.48154 28.5745 5.98855 28.3383C6.55102 28.0746 7.12537 27.7793 7.60862 27.3896C8.0681 27.0235 8.57908 26.7243 8.99499 26.307C9.49012 25.8071 10.211 24.9882 9.64856 24.2757C9.11778 23.6025 7.977 23.7561 7.23628 23.8466C6.88771 23.8899 6.49556 23.8938 6.15491 23.9962C6.07569 24.0198 5.98063 24.0592 5.90933 24.0985C5.85784 24.1261 5.8103 24.1852 5.79842 23.9883L5.80238 23.9804Z" fill="#FFA989"/>
<path fill-rule="evenodd" clip-rule="evenodd" d="M8.55312 27.3148C8.60461 27.1455 8.62045 27.0668 8.74325 26.9487C8.87396 26.8266 8.98883 26.6928 9.11162 26.5629C9.30572 26.3621 9.71767 26.1338 10.0029 26.1141C10.1336 26.1062 10.3079 26.1141 10.4029 26.2164C10.502 26.3267 10.4544 26.5392 10.4029 26.6613C10.3514 26.7833 10.292 26.8739 10.189 26.9644C10.0742 27.0668 9.93552 27.2085 9.80085 27.2833C9.6226 27.3778 9.40078 27.4447 9.20669 27.5037C9.04825 27.551 8.80266 27.6297 8.65214 27.5037C8.565 27.4289 8.47786 27.2557 8.54123 27.3148H8.55312Z" fill="#FFA989"/>
<path fill-rule="evenodd" clip-rule="evenodd" d="M6.40393 31.3891C6.23757 31.4285 5.99595 31.4481 5.84543 31.5505C5.71471 31.641 5.60776 31.7788 5.5127 31.9009C5.31465 32.1567 5.14828 32.4362 4.95023 32.6921C4.79179 32.9047 4.63731 33.137 4.50263 33.3653C4.41153 33.5228 4.36003 33.6684 4.44718 33.8338C4.669 34.255 5.3503 34.1526 5.71867 34.066C6.11478 33.9715 6.47127 33.7826 6.84361 33.6172C7.17634 33.4716 7.52491 33.3456 7.84575 33.1724C8.4003 32.8772 9.07368 32.574 9.37076 31.9875C9.48563 31.7591 9.53316 31.5741 9.43017 31.334C9.33511 31.1096 9.16874 30.9443 8.95485 30.8262C8.73303 30.7041 8.48744 30.7317 8.24186 30.7317C7.90121 30.7317 7.52491 30.7789 7.19218 30.8773C6.98225 30.9403 6.76439 31.0427 6.55841 31.1253C6.24549 31.2552 6.08309 31.5072 6.39601 31.3773L6.40393 31.3891Z" fill="#FFA989"/>
<path fill-rule="evenodd" clip-rule="evenodd" d="M4.45008 31.7395C4.43819 31.6569 4.44216 31.5742 4.458 31.4915C4.60456 31.4482 4.66793 31.2829 4.8541 31.3419C4.98878 31.3813 5.00858 31.5388 4.9769 31.6411C4.90956 31.8537 4.39066 32.2907 4.40254 31.8419L4.45404 31.7435L4.45008 31.7395Z" fill="#FFA989"/>
<path fill-rule="evenodd" clip-rule="evenodd" d="M37.2314 21.7915C36.9819 21.8033 36.7323 21.823 36.4828 21.8506C36.4154 21.9057 36.3441 21.949 36.2689 21.9883C36.0114 22.1222 35.7777 22.2206 35.5559 22.4135C35.3737 22.567 34.9498 22.8426 34.9736 23.13C34.9974 23.3937 35.3816 23.4449 35.5876 23.4449C35.7975 23.4449 36.0074 23.3977 36.2174 23.3898C36.5065 23.3741 36.7957 23.3386 37.0849 23.3032C37.4532 23.2599 37.8493 23.189 38.1741 23.004C38.3682 22.8938 38.5029 22.7757 38.6415 22.6025C38.7049 22.5237 38.8039 22.4411 38.7841 22.3308C38.7723 22.256 38.6336 22.1064 38.5782 22.0592C38.4989 21.9883 38.388 21.9411 38.289 21.8978C37.8137 21.6852 37.2671 21.8545 37.2354 21.7994L37.2314 21.7915Z" fill="#FFA989"/>
<path fill-rule="evenodd" clip-rule="evenodd" d="M24.9687 37.7075C24.7667 37.7941 24.6399 37.8177 24.5528 38.0028C24.5211 38.0697 24.4102 38.2193 24.4142 38.3098C24.4142 38.4358 24.5449 38.4279 24.6518 38.4004C24.7865 38.3649 24.9251 38.239 25.04 38.1681C25.1351 38.1051 25.2024 38.0461 25.2737 37.9555C25.3173 37.9043 25.3529 37.8768 25.3688 37.8059C25.3807 37.7429 25.349 37.6839 25.4124 37.6445C25.3688 37.3571 24.8222 37.7508 24.7192 37.7587L24.9687 37.7075Z" fill="#FFA989"/>
<path fill-rule="evenodd" clip-rule="evenodd" d="M26.3682 37.1602C26.0553 37.298 25.8453 37.4043 25.6869 37.7114C25.6354 37.8098 25.5879 37.9082 25.6394 38.0066C25.8018 38.3216 26.1503 38.0421 26.3286 37.9082C26.4514 37.8137 26.5861 37.7507 26.693 37.6366C26.7405 37.5854 26.7722 37.5264 26.8158 37.4712C26.8554 37.424 26.9346 37.3689 26.9584 37.3098C27.0099 37.1917 26.9267 37.1051 26.8198 37.0697C26.6138 37.0067 26.4593 37.1406 26.2652 37.1602H26.3642H26.3682Z" fill="#FFA989"/>
<path fill-rule="evenodd" clip-rule="evenodd" d="M10.0072 30.346C9.9161 30.5429 9.58337 31.2908 10.023 31.2869C10.4073 31.2869 11.041 30.8696 11.0608 30.4484C11.0727 30.1649 10.8469 30.0311 10.5816 29.9996C10.2449 29.9602 10.0508 30.2279 9.90422 30.4996L10.0032 30.35L10.0072 30.346Z" fill="#FFA989"/>
<path fill-rule="evenodd" clip-rule="evenodd" d="M11.1585 23.9333C11.0713 24.0514 10.9485 24.1498 11.0713 24.2718C11.1307 24.3309 11.1941 24.3663 11.2813 24.3821C11.4516 24.4057 11.7011 24.2561 11.7091 24.0868C11.717 23.9608 11.6536 23.8585 11.5585 23.7876C11.4199 23.6892 11.3288 23.7522 11.21 23.8388L11.1585 23.9372V23.9333Z" fill="#FFA989"/>
</g>
<path fill-rule="evenodd" clip-rule="evenodd" d="M15.7852 12.1862C15.7852 12.1862 18.0192 11.5012 18.5143 11.3083C19.0055 11.1154 21.5009 10.7139 21.5009 10.7139C21.5009 10.7139 23.6399 9.80054 24.242 9.52104C24.8441 9.24154 26.3691 8.49357 26.3691 8.49357L28.1476 7.68262C28.1476 7.68262 26.9474 8.90692 25.8937 9.30846C24.8441 9.71 22.1664 10.7768 22.1664 10.7768C22.1664 10.7768 21.3663 10.9973 20.2413 11.3595C19.1164 11.7216 15.7891 12.1822 15.7891 12.1822L15.7852 12.1862Z" fill="#FFBD4A"/>
<path fill-rule="evenodd" clip-rule="evenodd" d="M29.707 15.2409L30.7329 15.733C30.7329 15.733 31.7945 15.1071 31.9609 14.5048C31.9609 14.5048 29.9487 15.0559 29.707 15.2449V15.2409Z" fill="#FFAB4A"/>
<path fill-rule="evenodd" clip-rule="evenodd" d="M24.0352 16.4376L24.5501 16.7329L24.9264 16.04L24.0352 16.4376Z" fill="#FFAB4A"/>
<path style="mix-blend-mode:multiply" opacity="0.71" fill-rule="evenodd" clip-rule="evenodd" d="M15.7852 23.079C15.7852 23.079 16.9972 24.2836 19.663 25.0945C19.663 25.0945 19.8492 24.9016 20.075 23.7639C20.3008 22.6262 20.075 22.2286 20.075 22.2286C20.075 22.2286 16.8031 22.6381 15.7852 23.079Z" fill="url(#paint30_linear_5122_15185)"/>
<path style="mix-blend-mode:multiply" opacity="0.71" fill-rule="evenodd" clip-rule="evenodd" d="M17.582 26.6811C17.582 26.6811 17.6177 27.0826 17.7682 27.3621C17.9187 27.6377 19.6022 28.055 19.824 27.9644C20.2359 27.7912 19.7685 26.7952 19.5942 26.496C19.42 26.1969 19.1348 25.9016 19.1348 25.9016L17.586 26.6811H17.582Z" fill="url(#paint31_linear_5122_15185)"/>
<path fill-rule="evenodd" clip-rule="evenodd" d="M7.12891 33.9637C7.12891 33.9637 9.40651 32.952 10.1195 32.4442C10.8325 31.9363 11.902 30.0979 11.902 30.0979L10.7572 32.9284L9.99274 33.2157L9.18073 33.389L7.12891 33.9637Z" fill="#FFAB4A"/>
<path fill-rule="evenodd" clip-rule="evenodd" d="M8.53906 28.3184L10.476 27.2358C10.476 27.2358 10.2938 27.8539 10.0165 28.0192C9.73926 28.1846 8.53906 28.3184 8.53906 28.3184Z" fill="#FFAB4A"/>
<path fill-rule="evenodd" clip-rule="evenodd" d="M36.2227 23.693L37.0822 24.3819C37.0822 24.3819 37.2921 23.819 37.3357 23.6418C37.3793 23.4607 36.2266 23.6969 36.2266 23.6969L36.2227 23.693Z" fill="#FF864A"/>
<path fill-rule="evenodd" clip-rule="evenodd" d="M41.1328 16.9455L42.3647 16.5518L43.4421 16.2723C43.4421 16.2723 42.2379 16.9061 42.028 17.0164C41.8181 17.1266 41.1328 16.9455 41.1328 16.9455Z" fill="#FFAB4A"/>
<path fill-rule="evenodd" clip-rule="evenodd" d="M40.1641 16.5164L40.6077 16.174V16.5873L40.1641 16.5164Z" fill="#FFAB4A"/>
<path fill-rule="evenodd" clip-rule="evenodd" d="M25.332 38.8057L26.8055 37.9751L26.6313 38.7467L25.332 38.8057Z" fill="#FF864A"/>
<path fill-rule="evenodd" clip-rule="evenodd" d="M8.84766 14.9969C8.84766 14.9969 9.96863 14.9064 10.6301 14.9064C11.2916 14.9064 12.5908 15.0323 12.5908 15.0323L13.8505 15.1544C13.8505 15.1544 13.1295 15.2134 11.6006 15.2371C10.0756 15.2607 8.84766 14.993 8.84766 14.993V14.9969Z" fill="#FFB14A"/>
<path fill-rule="evenodd" clip-rule="evenodd" d="M15.1641 22.0357C15.1641 22.0357 16.3167 20.7642 16.8158 20.5831C17.3149 20.402 19.6638 21.4649 20.0758 21.6184C20.4877 21.7719 19.2796 24.1339 18.9746 24.382C18.6656 24.63 15.2156 23.3781 15.1641 22.0396V22.0357Z" fill="url(#paint32_linear_5122_15185)"/>
<path fill-rule="evenodd" clip-rule="evenodd" d="M19.4762 27.358C19.3693 27.6611 18.3196 27.5036 17.9433 27.358L17.9156 27.3422L17.8363 27.2871C17.8363 27.2871 17.8205 27.2753 17.8165 27.2674C17.5472 26.9919 17.4838 26.24 17.666 25.8424C17.666 25.8424 18.581 25.5629 18.9177 25.681C19.1356 25.7558 19.3534 26.3148 19.4485 26.7793C19.496 27.0312 19.5119 27.2556 19.4762 27.358Z" fill="url(#paint33_linear_5122_15185)"/>
<path style="mix-blend-mode:multiply" opacity="0.5" fill-rule="evenodd" clip-rule="evenodd" d="M18.1016 22.7521L18.973 24.378C18.973 24.378 20.09 23.1694 20.1613 21.7798L18.1016 22.7521Z" fill="url(#paint34_linear_5122_15185)"/>
<path fill-rule="evenodd" clip-rule="evenodd" d="M6.812 17.662L4.6968 18.1698C4.6968 18.1698 4.35219 19.3862 4.40368 19.8941L5.71479 21.2719C5.71479 21.2719 6.11882 18.7997 6.812 17.662Z" fill="url(#paint35_linear_5122_15185)"/>
<path fill-rule="evenodd" clip-rule="evenodd" d="M15.1641 22.0356C15.1641 22.0356 16.1979 22.5395 17.4615 22.7521C18.729 22.9607 20.1589 21.7797 20.1589 21.7797C20.1589 21.7797 18.8043 20.5751 16.8515 20.3507C16.8515 20.3507 15.576 21.0751 15.1641 22.0356Z" fill="url(#paint36_linear_5122_15185)"/>
<path style="mix-blend-mode:multiply" opacity="0.5" fill-rule="evenodd" clip-rule="evenodd" d="M19.4761 27.358C19.3692 27.6611 18.3195 27.5036 17.9432 27.358L17.9155 27.3422L17.8363 27.2871L17.8125 27.2714L18.0977 26.8738L19.2702 26.5903L19.4445 26.7793C19.492 27.0312 19.5078 27.2556 19.4722 27.358H19.4761Z" fill="url(#paint37_linear_5122_15185)"/>
<path fill-rule="evenodd" clip-rule="evenodd" d="M17.6566 25.8424C17.6566 25.8424 17.6328 26.677 17.9893 26.8423C18.3458 27.0077 19.1578 26.6731 19.2648 26.5943C19.3717 26.5156 19.0152 25.7519 18.7102 25.6535C18.4052 25.555 17.6566 25.8424 17.6566 25.8424Z" fill="url(#paint38_linear_5122_15185)"/>
<path style="mix-blend-mode:multiply" opacity="0.71" fill-rule="evenodd" clip-rule="evenodd" d="M35.8804 36.9477C35.8804 36.9477 35.4803 36.8729 35.1713 36.9477C34.8624 37.0185 34.3633 38.6208 34.3633 38.8609C34.3633 39.8057 35.4684 39.538 35.8051 39.4514C36.1418 39.3648 36.221 38.6483 36.221 38.6483L35.8804 36.9555V36.9477Z" fill="url(#paint39_linear_5122_15185)"/>
<path fill-rule="evenodd" clip-rule="evenodd" d="M34.7162 38.5814C34.4508 38.3964 34.8826 37.4359 35.1242 37.1131L35.148 37.0894L35.2232 37.0265C35.2232 37.0265 35.2391 37.0147 35.247 37.0147C35.5876 36.8296 36.3323 36.9714 36.669 37.2509C36.669 37.2509 36.6967 38.2035 36.4907 38.4909C36.36 38.6799 35.758 38.7389 35.2826 38.7074C35.0291 38.6838 34.8073 38.6405 34.7162 38.5775V38.5814Z" fill="url(#paint40_linear_5122_15185)"/>
<path style="mix-blend-mode:multiply" opacity="0.5" fill-rule="evenodd" clip-rule="evenodd" d="M34.7162 38.5814C34.4508 38.3964 34.8826 37.4358 35.1242 37.113L35.148 37.0894L35.2232 37.0264L35.243 37.0067L35.548 37.3886L35.5084 38.5853L35.2787 38.7034C35.0252 38.6798 34.8033 38.6365 34.7122 38.5735L34.7162 38.5814Z" fill="url(#paint41_linear_5122_15185)"/>
<path fill-rule="evenodd" clip-rule="evenodd" d="M36.6761 37.2509C36.6761 37.2509 35.872 37.0068 35.6185 37.3021C35.361 37.5973 35.468 38.4673 35.5195 38.5894C35.567 38.7153 36.4028 38.5776 36.5811 38.3099C36.7593 38.0422 36.6801 37.2509 36.6801 37.2509H36.6761Z" fill="url(#paint42_linear_5122_15185)"/>
<path fill-rule="evenodd" clip-rule="evenodd" d="M10.9531 35.5266L12.9099 35.6605L15.944 35.5266L16.9224 35.8652L15.8727 35.7156L13.8487 36.6604L13.7021 36.9359L12.593 36.6368L10.9531 35.5266Z" fill="url(#paint43_linear_5122_15185)"/>
<path fill-rule="evenodd" clip-rule="evenodd" d="M10.9531 35.5266L12.593 36.5344L13.1753 36.4439L14.0586 36.3691L15.8727 35.7156L13.8487 36.6604L13.7021 36.9359L12.4464 36.7037L10.9531 35.5266Z" fill="url(#paint44_linear_5122_15185)"/>
<path fill-rule="evenodd" clip-rule="evenodd" d="M14.7266 12.2885L16.3229 13.2254L18.1014 13.0876L20.2443 11.3633L17.4835 11.1665L15.7881 11.5995L14.7266 12.2885Z" fill="url(#paint45_linear_5122_15185)"/>
<path fill-rule="evenodd" clip-rule="evenodd" d="M14.7266 12.2885H15.2573L16.2318 12.505H17.2814L18.4262 12.0563L19.6818 11.3634H20.2403C20.2403 11.3634 19.1035 12.5208 18.0974 13.0877L16.3189 13.2254L14.7266 12.2846V12.2885Z" fill="url(#paint46_linear_5122_15185)"/>
<path fill-rule="evenodd" clip-rule="evenodd" d="M4.85156 34.5502L5.60812 33.8456L6.43202 33.9637C6.43202 33.9637 6.53897 34.4833 6.43202 34.8927C6.32507 35.3021 5.60812 35.0463 5.60812 35.0463L4.85156 34.5463V34.5502Z" fill="url(#paint47_linear_5122_15185)"/>
<path fill-rule="evenodd" clip-rule="evenodd" d="M4.85156 34.5503C4.85156 34.5503 5.61208 34.7983 5.73488 34.7983C5.85767 34.7983 6.15871 34.7865 6.28546 34.6881C6.41221 34.5896 6.42806 33.9677 6.42806 33.9677C6.42806 33.9677 6.53501 34.5503 6.42806 34.8967C6.42806 34.8967 6.41221 35.1959 5.87747 35.1762L5.5289 35.0699L4.85156 34.5503Z" fill="url(#paint48_linear_5122_15185)"/>
<path fill-rule="evenodd" clip-rule="evenodd" d="M38.1719 23.4017C38.1719 23.4017 38.3699 22.9647 38.6314 22.7758C38.8928 22.5868 39.6652 22.6104 39.6652 22.6104L39.7603 22.7758C39.7603 22.7758 39.4949 23.449 39.2889 23.571C39.0829 23.6891 38.6512 23.571 38.6512 23.571L38.1719 23.4017Z" fill="url(#paint49_linear_5122_15185)"/>
<path fill-rule="evenodd" clip-rule="evenodd" d="M39.6651 22.6104C39.6651 22.6104 39.3918 23.0631 39.2057 23.1851C39.0195 23.3072 38.7779 23.3977 38.7779 23.3977C38.7779 23.3977 38.4768 23.4489 38.1758 23.3977C38.1758 23.3977 38.6194 23.6103 38.968 23.6182C38.968 23.6182 39.3641 23.626 39.4195 23.567C39.475 23.5079 39.7602 22.7718 39.7602 22.7718L39.6651 22.6064V22.6104Z" fill="url(#paint50_linear_5122_15185)"/>
<g style="mix-blend-mode:color">
<path fill-rule="evenodd" clip-rule="evenodd" d="M8.28906 12.6821C10.8139 8.7017 15.8521 4.90398 16.1207 4.70296L16.135 4.6907L16.1841 4.68646C22.7117 3.67024 27.6613 3.99067 30.2946 4.33147C31.156 4.40958 31.889 4.5257 32.4229 4.6907L32.4242 4.69382L32.4286 4.6908L33.8546 7.93067L33.8534 7.93231L38.0515 9.51706L38.0517 9.51937L38.0541 9.51709L38.2634 12.5626L38.2714 12.5719C38.4893 12.8159 38.6992 13.0718 38.9052 13.3277C39.3065 13.8341 39.6816 14.3609 40.0281 14.9068L41.6223 14.6191L41.6224 14.6189L41.6228 14.6193L41.6244 14.6202L41.6252 14.6189L41.9485 14.8092L42.03 14.8567L42.0315 14.8552L43.4852 14.4497L44.6242 15.174L44.9587 15.3866L44.9574 15.3882L44.9609 15.3905L45.0678 16.4494L44.9213 17.6659L42.7863 21.6183L42.783 21.6184L42.783 21.6185L42.7799 21.6186L44.311 26.3621L43.186 32.6568C42.1841 33.9251 40.7598 34.9135 39.4438 35.6336C38.7012 36.6721 37.8538 37.632 36.9168 38.4988C36.626 38.7682 36.3266 39.0285 36.019 39.2792C35.9631 39.3635 35.8929 39.4288 35.8051 39.4514L35.8043 39.4516C34.3043 40.6379 32.6172 41.5992 30.7969 42.2858C28.7253 43.0692 26.4834 43.4944 24.1345 43.4944C23.8017 43.4944 23.465 43.4865 23.1363 43.4668C22.6451 43.4432 22.1579 43.396 21.6786 43.3369C20.9391 43.2405 20.2134 43.1015 19.504 42.9224L19.5003 42.9276C19.5003 42.9276 19.4288 42.9076 19.3022 42.8702C18.3433 42.6167 17.415 42.2896 16.5233 41.8951C16.015 41.6823 15.519 41.4479 15.1075 41.2033L15.1076 41.2024L13.8874 41.4907L13.8826 41.4905L13.8825 41.4905L10.0452 41.3175L10.0403 41.3173C10.0403 41.3173 5.96441 38.7467 4.01161 34.684L4.01349 34.6676C4.00483 34.4998 3.925 32.68 4.43459 30.9949L4.43544 30.9875L2.99362 29.6648L2.99358 29.6643L2.99124 29.6649C2.52763 26.2324 4.99874 23.5906 5.4608 23.1304C5.48362 22.869 5.51381 22.6098 5.54923 22.3505C5.79086 20.5161 6.30579 18.7682 7.05047 17.1423C7.19319 16.8294 7.34441 16.5212 7.50391 16.2179V14.8631V14.8592V14.8591L8.29215 13.7608V12.6821L8.29218 12.6821H8.28906ZM6.812 17.662L4.6968 18.1698C4.6968 18.1698 4.35219 19.3862 4.40368 19.8941L5.71479 21.2719C5.71479 21.2719 6.11882 18.7997 6.812 17.662Z" fill="black"/>
</g>
<defs>
<linearGradient id="paint0_linear_5122_15185" x1="38.7742" y1="36.2367" x2="34.5961" y2="23.1112" gradientUnits="userSpaceOnUse">
<stop stop-color="#5B006F"/>
<stop offset="0.02" stop-color="#5C0270"/>
<stop offset="0.23" stop-color="#691A7B"/>
<stop offset="0.46" stop-color="#732B84"/>
<stop offset="0.7" stop-color="#793589"/>
<stop offset="0.99" stop-color="#7B398B"/>
</linearGradient>
<radialGradient id="paint1_radial_5122_15185" cx="0" cy="0" r="1" gradientUnits="userSpaceOnUse" gradientTransform="translate(14.517 17.3155) scale(30.1436 29.958)">
<stop stop-color="#9D4863"/>
<stop offset="0.24" stop-color="#994562"/>
<stop offset="0.42" stop-color="#903C61"/>
<stop offset="0.58" stop-color="#7F2D5E"/>
<stop offset="0.73" stop-color="#68195B"/>
<stop offset="0.87" stop-color="#4C0057"/>
<stop offset="0.98" stop-color="#4C0086"/>
</radialGradient>
<linearGradient id="paint2_linear_5122_15185" x1="13.2696" y1="33.1647" x2="21.0927" y2="33.1647" gradientUnits="userSpaceOnUse">
<stop stop-color="#CA528D"/>
<stop offset="1" stop-color="#8E7090"/>
</linearGradient>
<linearGradient id="paint3_linear_5122_15185" x1="32.8594" y1="29.468" x2="40.3101" y2="29.468" gradientUnits="userSpaceOnUse">
<stop stop-color="#CA528D"/>
<stop offset="1" stop-color="#8E7090"/>
</linearGradient>
<linearGradient id="paint4_linear_5122_15185" x1="40.1641" y1="22.7167" x2="42.9091" y2="22.7167" gradientUnits="userSpaceOnUse">
<stop stop-color="#CA528D"/>
<stop offset="1" stop-color="#8E7090"/>
</linearGradient>
<linearGradient id="paint5_linear_5122_15185" x1="7.50391" y1="16.548" x2="40.3014" y2="16.548" gradientUnits="userSpaceOnUse">
<stop stop-color="#CA528D"/>
<stop offset="1" stop-color="#8E7090"/>
</linearGradient>
<linearGradient id="paint6_linear_5122_15185" x1="7.50391" y1="11.5996" x2="38.2575" y2="11.5996" gradientUnits="userSpaceOnUse">
<stop stop-color="#DE6863"/>
<stop offset="0.25" stop-color="#DB6462"/>
<stop offset="0.43" stop-color="#D35B61"/>
<stop offset="0.6" stop-color="#C54A5F"/>
<stop offset="0.76" stop-color="#B1335C"/>
<stop offset="0.91" stop-color="#981559"/>
<stop offset="1" stop-color="#860057"/>
</linearGradient>
<linearGradient id="paint7_linear_5122_15185" x1="10.9474" y1="41.4905" x2="10.9474" y2="22.752" gradientUnits="userSpaceOnUse">
<stop stop-color="#860057"/>
<stop offset="0.03" stop-color="#8C0656"/>
<stop offset="0.19" stop-color="#A92455"/>
<stop offset="0.36" stop-color="#C03B54"/>
<stop offset="0.54" stop-color="#D14C54"/>
<stop offset="0.74" stop-color="#DA5554"/>
<stop offset="0.99" stop-color="#DE5954"/>
</linearGradient>
<linearGradient id="paint8_linear_5122_15185" x1="23.9063" y1="39.55" x2="29.3606" y2="39.55" gradientUnits="userSpaceOnUse">
<stop stop-color="#CA528D"/>
<stop offset="1" stop-color="#8E7090"/>
</linearGradient>
<linearGradient id="paint9_linear_5122_15185" x1="42.0264" y1="21.6185" x2="42.0264" y2="14.4537" gradientUnits="userSpaceOnUse">
<stop stop-color="#860057"/>
<stop offset="0.03" stop-color="#880456"/>
<stop offset="0.23" stop-color="#951B55"/>
<stop offset="0.45" stop-color="#9D2C54"/>
<stop offset="0.69" stop-color="#A33554"/>
<stop offset="0.99" stop-color="#A53954"/>
</linearGradient>
<linearGradient id="paint10_linear_5122_15185" x1="36.8957" y1="29.6807" x2="36.8957" y2="21.1302" gradientUnits="userSpaceOnUse">
<stop stop-color="#860057"/>
<stop offset="0.03" stop-color="#880456"/>
<stop offset="0.23" stop-color="#951B55"/>
<stop offset="0.45" stop-color="#9D2C54"/>
<stop offset="0.69" stop-color="#A33554"/>
<stop offset="0.99" stop-color="#A53954"/>
</linearGradient>
<linearGradient id="paint11_linear_5122_15185" x1="20.3584" y1="12.686" x2="20.3584" y2="3.99781" gradientUnits="userSpaceOnUse">
<stop stop-color="#F49F57"/>
<stop offset="0.1" stop-color="#F69656"/>
<stop offset="0.35" stop-color="#FB8555"/>
<stop offset="0.63" stop-color="#FE7C54"/>
<stop offset="0.99" stop-color="#FF7954"/>
</linearGradient>
<linearGradient id="paint12_linear_5122_15185" x1="28.7114" y1="16.4378" x2="28.7114" y2="7.93457" gradientUnits="userSpaceOnUse">
<stop stop-color="#F47D57"/>
<stop offset="0.4" stop-color="#FB7A54"/>
<stop offset="0.99" stop-color="#FF7954"/>
</linearGradient>
<linearGradient id="paint13_linear_5122_15185" x1="7.50391" y1="14.5009" x2="15.5092" y2="14.5009" gradientUnits="userSpaceOnUse">
<stop stop-color="#F49F57"/>
<stop offset="0.1" stop-color="#F69656"/>
<stop offset="0.35" stop-color="#FB8555"/>
<stop offset="0.63" stop-color="#FE7C54"/>
<stop offset="0.99" stop-color="#FF7954"/>
</linearGradient>
<linearGradient id="paint14_linear_5122_15185" x1="34.0742" y1="22.4254" x2="40.5981" y2="22.4254" gradientUnits="userSpaceOnUse">
<stop stop-color="#C75357"/>
<stop offset="0.13" stop-color="#D25856"/>
<stop offset="0.37" stop-color="#E35F54"/>
<stop offset="0.65" stop-color="#EC6354"/>
<stop offset="0.99" stop-color="#F06554"/>
</linearGradient>
<linearGradient id="paint15_linear_5122_15185" x1="2.93579" y1="26.1848" x2="13.2662" y2="26.1848" gradientUnits="userSpaceOnUse">
<stop stop-color="#F49F57"/>
<stop offset="0.1" stop-color="#F69656"/>
<stop offset="0.35" stop-color="#FB8555"/>
<stop offset="0.63" stop-color="#FE7C54"/>
<stop offset="0.99" stop-color="#FF7954"/>
</linearGradient>
<linearGradient id="paint16_linear_5122_15185" x1="4.00229" y1="31.6411" x2="12.5898" y2="31.6411" gradientUnits="userSpaceOnUse">
<stop stop-color="#F49F57"/>
<stop offset="0.1" stop-color="#F69656"/>
<stop offset="0.35" stop-color="#FB8555"/>
<stop offset="0.63" stop-color="#FE7C54"/>
<stop offset="0.99" stop-color="#FF7954"/>
</linearGradient>
<linearGradient id="paint17_linear_5122_15185" x1="26.2142" y1="40.7035" x2="26.2142" y2="36.5464" gradientUnits="userSpaceOnUse">
<stop stop-color="#860057"/>
<stop offset="0.03" stop-color="#880456"/>
<stop offset="0.23" stop-color="#951B55"/>
<stop offset="0.45" stop-color="#9D2C54"/>
<stop offset="0.69" stop-color="#A33554"/>
<stop offset="0.99" stop-color="#A53954"/>
</linearGradient>
<linearGradient id="paint18_linear_5122_15185" x1="23.7188" y1="37.6958" x2="27.7709" y2="37.6958" gradientUnits="userSpaceOnUse">
<stop stop-color="#C75357"/>
<stop offset="0.26" stop-color="#D15048"/>
<stop offset="0.58" stop-color="#D84F3F"/>
<stop offset="0.99" stop-color="#DB4F3C"/>
</linearGradient>
<linearGradient id="paint19_linear_5122_15185" x1="9.88281" y1="32.4482" x2="18.918" y2="32.4482" gradientUnits="userSpaceOnUse">
<stop stop-color="#CA528D"/>
<stop offset="1" stop-color="#8E7090"/>
</linearGradient>
<linearGradient id="paint20_linear_5122_15185" x1="26.3359" y1="38.8176" x2="28.7086" y2="38.8176" gradientUnits="userSpaceOnUse">
<stop stop-color="#CA528D"/>
<stop offset="1" stop-color="#8E7090"/>
</linearGradient>
<linearGradient id="paint21_linear_5122_15185" x1="36.8945" y1="26.0076" x2="40.9506" y2="26.0076" gradientUnits="userSpaceOnUse">
<stop stop-color="#CA528D"/>
<stop offset="1" stop-color="#8E7090"/>
</linearGradient>
<linearGradient id="paint22_linear_5122_15185" x1="40.4805" y1="15.733" x2="42.0332" y2="15.733" gradientUnits="userSpaceOnUse">
<stop stop-color="#CA528D"/>
<stop offset="1" stop-color="#8E7090"/>
</linearGradient>
<linearGradient id="paint23_linear_5122_15185" x1="40.1641" y1="18.3981" x2="45.0678" y2="18.3981" gradientUnits="userSpaceOnUse">
<stop stop-color="#CA528D"/>
<stop offset="1" stop-color="#8E7090"/>
</linearGradient>
<linearGradient id="paint24_linear_5122_15185" x1="38.9504" y1="15.935" x2="41.7709" y2="15.4193" gradientUnits="userSpaceOnUse">
<stop stop-color="#F47D57"/>
<stop offset="0.4" stop-color="#FB7A54"/>
<stop offset="0.99" stop-color="#FF7954"/>
</linearGradient>
<linearGradient id="paint25_linear_5122_15185" x1="40.4249" y1="16.0444" x2="44.9244" y2="15.2217" gradientUnits="userSpaceOnUse">
<stop stop-color="#F47D57"/>
<stop offset="0.4" stop-color="#FB7A54"/>
<stop offset="0.99" stop-color="#FF7954"/>
</linearGradient>
<linearGradient id="paint26_linear_5122_15185" x1="20.3633" y1="9.86358" x2="33.8506" y2="9.86358" gradientUnits="userSpaceOnUse">
<stop stop-color="#CA528D"/>
<stop offset="1" stop-color="#8E7090"/>
</linearGradient>
<linearGradient id="paint27_linear_5122_15185" x1="24.5235" y1="16.8236" x2="27.934" y2="16.8236" gradientUnits="userSpaceOnUse">
<stop stop-color="#CA528D"/>
<stop offset="1" stop-color="#8E7090"/>
</linearGradient>
<linearGradient id="paint28_linear_5122_15185" x1="30.4727" y1="13.9852" x2="38.2601" y2="13.9852" gradientUnits="userSpaceOnUse">
<stop stop-color="#CA528D"/>
<stop offset="1" stop-color="#8E7090"/>
</linearGradient>
<linearGradient id="paint29_linear_5122_15185" x1="8.95318" y1="16.8982" x2="14.7244" y2="16.8982" gradientUnits="userSpaceOnUse">
<stop stop-color="#CA528D"/>
<stop offset="1" stop-color="#8E7090"/>
</linearGradient>
<linearGradient id="paint30_linear_5122_15185" x1="15.7852" y1="23.6616" x2="20.178" y2="23.6616" gradientUnits="userSpaceOnUse">
<stop stop-color="#CA528D"/>
<stop offset="1" stop-color="#8E7090"/>
</linearGradient>
<linearGradient id="paint31_linear_5122_15185" x1="17.582" y1="26.937" x2="19.9864" y2="26.937" gradientUnits="userSpaceOnUse">
<stop stop-color="#CA528D"/>
<stop offset="1" stop-color="#8E7090"/>
</linearGradient>
<linearGradient id="paint32_linear_5122_15185" x1="17.6595" y1="24.4095" x2="17.6595" y2="20.5634" gradientUnits="userSpaceOnUse">
<stop stop-color="#A20057"/>
<stop offset="0.28" stop-color="#BA2355"/>
<stop offset="0.57" stop-color="#CD4054"/>
<stop offset="0.82" stop-color="#D95254"/>
<stop offset="0.99" stop-color="#DE5954"/>
</linearGradient>
<linearGradient id="paint33_linear_5122_15185" x1="18.5295" y1="27.5312" x2="18.5295" y2="25.6534" gradientUnits="userSpaceOnUse">
<stop stop-color="#A20057"/>
<stop offset="0.28" stop-color="#BA2355"/>
<stop offset="0.57" stop-color="#CD4054"/>
<stop offset="0.82" stop-color="#D95254"/>
<stop offset="0.99" stop-color="#DE5954"/>
</linearGradient>
<linearGradient id="paint34_linear_5122_15185" x1="18.1016" y1="23.0789" x2="20.1613" y2="23.0789" gradientUnits="userSpaceOnUse">
<stop stop-color="#CA528D"/>
<stop offset="1" stop-color="#8E7090"/>
</linearGradient>
<linearGradient id="paint35_linear_5122_15185" x1="5.60388" y1="21.2719" x2="5.60388" y2="17.662" gradientUnits="userSpaceOnUse">
<stop stop-color="#A20057"/>
<stop offset="0.28" stop-color="#BA2355"/>
<stop offset="0.57" stop-color="#CD4054"/>
<stop offset="0.82" stop-color="#D95254"/>
<stop offset="0.99" stop-color="#DE5954"/>
</linearGradient>
<linearGradient id="paint36_linear_5122_15185" x1="17.6595" y1="22.7757" x2="17.6595" y2="20.3507" gradientUnits="userSpaceOnUse">
<stop stop-color="#F49F57"/>
<stop offset="0.1" stop-color="#F69656"/>
<stop offset="0.35" stop-color="#FB8555"/>
<stop offset="0.63" stop-color="#FE7C54"/>
<stop offset="0.99" stop-color="#FF7954"/>
</linearGradient>
<linearGradient id="paint37_linear_5122_15185" x1="17.8125" y1="27.0627" x2="19.4959" y2="27.0627" gradientUnits="userSpaceOnUse">
<stop stop-color="#CA528D"/>
<stop offset="1" stop-color="#8E7090"/>
</linearGradient>
<linearGradient id="paint38_linear_5122_15185" x1="18.4726" y1="26.8856" x2="18.4726" y2="25.6298" gradientUnits="userSpaceOnUse">
<stop stop-color="#F47D57"/>
<stop offset="0.4" stop-color="#FB7A54"/>
<stop offset="0.99" stop-color="#FF7954"/>
</linearGradient>
<linearGradient id="paint39_linear_5122_15185" x1="35.8096" y1="36.9569" x2="35.0781" y2="39.6108" gradientUnits="userSpaceOnUse">
<stop stop-color="#CA528D"/>
<stop offset="1" stop-color="#8E7090"/>
</linearGradient>
<linearGradient id="paint40_linear_5122_15185" x1="34.8127" y1="37.6584" x2="36.6318" y2="38.166" gradientUnits="userSpaceOnUse">
<stop stop-color="#A20057"/>
<stop offset="0.28" stop-color="#BA2355"/>
<stop offset="0.57" stop-color="#CD4054"/>
<stop offset="0.82" stop-color="#D95254"/>
<stop offset="0.99" stop-color="#DE5954"/>
</linearGradient>
<linearGradient id="paint41_linear_5122_15185" x1="35.4585" y1="37.0969" x2="35.0137" y2="38.7106" gradientUnits="userSpaceOnUse">
<stop stop-color="#CA528D"/>
<stop offset="1" stop-color="#8E7090"/>
</linearGradient>
<linearGradient id="paint42_linear_5122_15185" x1="35.4518" y1="37.7806" x2="36.6683" y2="38.1201" gradientUnits="userSpaceOnUse">
<stop stop-color="#F47D57"/>
<stop offset="0.4" stop-color="#FB7A54"/>
<stop offset="0.99" stop-color="#FF7954"/>
</linearGradient>
<linearGradient id="paint43_linear_5122_15185" x1="10.9531" y1="36.2313" x2="16.9224" y2="36.2313" gradientUnits="userSpaceOnUse">
<stop stop-color="#860057"/>
<stop offset="0.21" stop-color="#89094C"/>
<stop offset="0.55" stop-color="#8D1343"/>
<stop offset="0.99" stop-color="#8F1640"/>
</linearGradient>
<linearGradient id="paint44_linear_5122_15185" x1="10.9531" y1="36.2313" x2="15.8727" y2="36.2313" gradientUnits="userSpaceOnUse">
<stop stop-color="#F49F57"/>
<stop offset="0.1" stop-color="#F69656"/>
<stop offset="0.35" stop-color="#FB8555"/>
<stop offset="0.63" stop-color="#FE7C54"/>
<stop offset="0.99" stop-color="#FF7954"/>
</linearGradient>
<linearGradient id="paint45_linear_5122_15185" x1="17.4835" y1="13.2254" x2="17.4835" y2="11.1665" gradientUnits="userSpaceOnUse">
<stop stop-color="#860057"/>
<stop offset="0.03" stop-color="#880456"/>
<stop offset="0.23" stop-color="#951B55"/>
<stop offset="0.45" stop-color="#9D2C54"/>
<stop offset="0.69" stop-color="#A33554"/>
<stop offset="0.99" stop-color="#A53954"/>
</linearGradient>
<linearGradient id="paint46_linear_5122_15185" x1="14.7266" y1="12.2925" x2="20.2443" y2="12.2925" gradientUnits="userSpaceOnUse">
<stop stop-color="#F49F57"/>
<stop offset="0.1" stop-color="#F69656"/>
<stop offset="0.35" stop-color="#FB8555"/>
<stop offset="0.63" stop-color="#FE7C54"/>
<stop offset="0.99" stop-color="#FF7954"/>
</linearGradient>
<linearGradient id="paint47_linear_5122_15185" x1="5.66358" y1="35.1289" x2="5.66358" y2="33.8456" gradientUnits="userSpaceOnUse">
<stop stop-color="#860057"/>
<stop offset="0.03" stop-color="#880456"/>
<stop offset="0.23" stop-color="#951B55"/>
<stop offset="0.45" stop-color="#9D2C54"/>
<stop offset="0.69" stop-color="#A33554"/>
<stop offset="0.99" stop-color="#A53954"/>
</linearGradient>
<linearGradient id="paint48_linear_5122_15185" x1="4.85156" y1="34.57" x2="6.47559" y2="34.57" gradientUnits="userSpaceOnUse">
<stop stop-color="#F49F57"/>
<stop offset="0.1" stop-color="#F69656"/>
<stop offset="0.35" stop-color="#FB8555"/>
<stop offset="0.63" stop-color="#FE7C54"/>
<stop offset="0.99" stop-color="#FF7954"/>
</linearGradient>
<linearGradient id="paint49_linear_5122_15185" x1="38.1719" y1="23.1183" x2="39.7603" y2="23.1183" gradientUnits="userSpaceOnUse">
<stop stop-color="#860057"/>
<stop offset="0.21" stop-color="#89094C"/>
<stop offset="0.55" stop-color="#8D1343"/>
<stop offset="0.99" stop-color="#8F1640"/>
</linearGradient>
<linearGradient id="paint50_linear_5122_15185" x1="38.1718" y1="23.1182" x2="39.7602" y2="23.1182" gradientUnits="userSpaceOnUse">
<stop stop-color="#C75357"/>
<stop offset="0.13" stop-color="#D25856"/>
<stop offset="0.37" stop-color="#E35F54"/>
<stop offset="0.65" stop-color="#EC6354"/>
<stop offset="0.99" stop-color="#F06554"/>
</linearGradient>
</defs>
</svg>
