<svg width="48" height="48" viewBox="0 0 48 48" fill="none" xmlns="http://www.w3.org/2000/svg">
<path style="mix-blend-mode:screen" opacity="0.92" fill-rule="evenodd" clip-rule="evenodd" d="M41.7409 24.0017C41.7409 29.1315 39.5668 33.7483 36.0842 36.9902C34.4231 38.5396 32.4584 39.7679 30.2984 40.5915C28.3407 41.3383 26.219 41.7396 23.9996 41.7396C23.2144 41.7396 22.4327 41.6872 21.6755 41.5895C20.974 41.4988 20.2866 41.3662 19.6131 41.1917C18.0148 40.7834 16.5038 40.1588 15.1114 39.3492C14.2286 38.8362 13.3911 38.2534 12.6129 37.5974C10.7773 36.0619 9.25583 34.1601 8.16357 32.007C7.4796 30.653 6.96314 29.1978 6.64209 27.6763C6.6386 27.6728 6.6386 27.6658 6.6386 27.6624C6.39084 26.4794 6.26172 25.2545 6.26172 23.9982C6.26172 20.4981 7.2772 17.2318 9.029 14.4785C9.76881 13.3095 10.6482 12.2382 11.6358 11.275C14.8288 8.16574 19.1943 6.25342 23.9996 6.25342C24.3904 6.25342 24.7708 6.26389 25.1546 6.2918C27.1681 6.42441 29.0909 6.88853 30.8672 7.63183C31.1777 7.76443 31.4813 7.90053 31.7849 8.04709C33.0726 8.67523 34.2731 9.45342 35.3618 10.3677C35.7282 10.6713 36.0842 10.9923 36.4262 11.3274C36.5483 11.446 36.6704 11.5716 36.7891 11.6938C39.86 14.8798 41.7479 19.2174 41.7479 23.9947L41.7409 24.0017Z" fill="url(#paint0_radial_5119_14555)"/>
<path fill-rule="evenodd" clip-rule="evenodd" d="M40.5296 24.0017C40.5296 28.7825 38.5021 33.0852 35.2568 36.1038C33.7074 37.5485 31.8788 38.6931 29.8653 39.4608C28.0402 40.1552 26.065 40.5321 23.9957 40.5321C23.2629 40.5321 22.537 40.4833 21.8286 40.3925C21.1761 40.3088 20.534 40.1831 19.9058 40.0226C18.4158 39.6423 17.0094 39.0595 15.7113 38.3057C14.8877 37.8276 14.1095 37.2833 13.3837 36.6726C11.6738 35.2418 10.257 33.4691 9.238 31.4625C8.59939 30.1993 8.11782 28.8453 7.8212 27.4285C7.8212 27.4285 7.8212 27.418 7.8212 27.4146C7.59089 26.3118 7.46875 25.1707 7.46875 24.0017C7.46875 20.7389 8.41444 17.6959 10.0476 15.131C10.7385 14.0423 11.5551 13.0442 12.4764 12.1474C15.453 9.25098 19.5185 7.46777 23.9992 7.46777C24.3621 7.46777 24.718 7.47824 25.074 7.50267C26.9514 7.62481 28.7416 8.05752 30.3957 8.75196C30.6853 8.8741 30.968 9.00322 31.2506 9.13931C32.4511 9.72557 33.5678 10.4514 34.5833 11.3029C34.9252 11.5855 35.2568 11.8857 35.5743 12.1962C35.6895 12.3079 35.8011 12.4231 35.9128 12.5382C38.7743 15.5079 40.5331 19.5489 40.5331 24.0017H40.5296Z" fill="url(#paint1_radial_5119_14555)"/>
<path style="mix-blend-mode:multiply" opacity="0.4" fill-rule="evenodd" clip-rule="evenodd" d="M40.5327 24.0018C40.5327 28.7826 38.5052 33.0853 35.2598 36.1038C33.7104 37.5486 31.8818 38.6932 29.8683 39.4609C28.0432 40.1553 26.0681 40.5322 23.9987 40.5322C23.2659 40.5322 22.5401 40.4833 21.8317 40.3926C19.6227 40.103 17.5569 39.3771 15.7143 38.3058C16.2622 38.1662 16.7996 37.9778 17.351 37.8382C18.6666 37.4997 19.9229 37.1158 21.2733 36.9658C21.8142 36.903 22.6552 36.6901 22.6797 36.0375C22.6866 35.8526 22.6483 35.8037 22.7634 35.7025C22.889 35.5909 23.0391 35.6432 23.1961 35.6083C23.58 35.5246 23.8871 35.1267 24.1314 34.8476C24.5292 34.3869 24.9619 33.9507 25.419 33.5459C26.3054 32.7677 27.4779 32.4083 28.0467 31.2916C28.2003 30.9845 28.2142 30.6705 28.291 30.3424C28.3782 29.9725 28.6539 29.7213 28.975 29.5363C29.3728 29.3095 29.802 29.2293 30.1615 28.9187C30.4965 28.629 30.6605 28.1824 30.7931 27.7741C31.0094 27.0971 30.9745 26.4131 31.0688 25.7222C31.1176 25.3732 31.2188 25.0347 31.2328 24.6788C31.2502 24.3403 31.1106 24.0751 30.999 23.7575C30.8105 23.2201 30.5593 22.6652 30.329 22.1453C30.2417 21.9499 30.1091 21.7858 29.9521 21.6428C29.7218 21.4299 29.5194 21.1891 29.2856 20.9797C29.1215 20.8332 28.9157 20.739 28.7551 20.5889C28.6295 20.4703 28.5248 20.3097 28.4097 20.1841C28.1968 19.9573 27.9804 19.7235 27.7082 19.5699C27.0522 19.207 26.6648 18.5475 25.8971 18.4149C24.9619 18.2543 24.2011 17.2563 23.2066 17.6087C22.568 17.8356 21.9399 18.0799 21.2699 18.2508C20.8406 18.359 20.3521 18.3486 19.9473 18.5091C19.6925 18.6103 19.4203 18.8266 19.2389 19.029C18.9597 19.3361 18.8515 19.7514 18.6177 20.0864C18.4432 20.3376 18.3281 20.5819 18.178 20.8506C17.8849 21.388 17.9163 21.8836 17.9163 22.4838C17.9163 22.8013 17.8849 23.1398 17.9163 23.4574C17.9547 23.8447 18.1431 24.1204 18.3769 24.4205C18.5165 24.5985 18.6142 24.9056 18.7887 25.0487C18.8794 25.1219 18.9632 25.101 19.0609 25.1429C19.2284 25.2162 19.2877 25.2825 19.4308 25.3906C19.8635 25.7152 20.2962 26.0223 20.8302 26.1409C21.1128 26.2002 21.3606 26.2456 21.6153 26.3608C21.8177 26.455 22.0864 26.5178 22.3167 26.5387C22.8716 26.5946 23.3567 26.4026 23.7754 26.0607C24.0371 25.8513 24.243 25.6803 24.4454 25.4011C24.5571 25.2476 24.6269 25.1534 24.7874 25.0591C24.8956 24.9963 25.0142 24.9265 25.1434 24.9405C25.2515 24.9544 25.3632 25.094 25.4784 25.0242C25.5761 24.9649 25.6354 24.6543 25.6703 24.5601C25.7366 24.3926 25.782 24.1867 25.8587 24.0262C25.9913 23.7435 26.2147 23.8098 26.4834 23.8029C26.6718 23.8029 26.9056 23.7854 27.0278 23.6214C27.1394 23.4644 27.1115 23.1189 27.0278 22.9619C26.9021 22.7315 26.5741 22.5082 26.3926 22.3198C26.2496 22.1732 26.1344 22.0127 26.0227 21.8417C25.8099 21.5102 25.7191 20.9134 25.2655 20.8122C25.084 20.7704 24.8432 20.8053 24.6583 20.8053C24.4419 20.8087 24.2954 20.7529 24.0895 20.7076C23.7719 20.6343 23.4823 20.5366 23.1508 20.5331C22.739 20.5261 22.39 20.6517 22.0131 20.8088C21.8526 20.8751 21.72 20.8436 21.5735 20.8925C21.3885 20.9553 21.1163 21.3287 21.0884 21.5032C21.0256 21.8801 21.1652 22.2465 21.5281 22.3965C21.6467 22.4454 21.9224 22.4663 22.0097 22.564C22.1248 22.6932 22.0271 22.8607 21.9678 23.0072C21.8212 23.3806 21.898 23.8273 22.3621 23.8971C22.6762 23.9424 22.9833 23.74 23.245 23.6179C23.4683 23.5062 23.8278 23.4783 23.8278 23.1887C23.8103 23.3248 23.58 23.2724 23.4683 23.2724C23.238 23.2724 23.0984 23.2689 22.917 23.1224C22.7425 22.9793 22.725 22.8607 22.6552 22.6548C22.6238 22.571 22.5715 22.4628 22.5191 22.3861C22.4808 22.3302 22.3586 22.2535 22.3377 22.1941C22.2121 21.8626 23.2275 21.7056 23.423 21.6846C23.8487 21.6358 24.1418 21.9394 24.3861 22.2604C24.4943 22.407 24.7071 22.6094 24.6967 22.7874C24.6897 22.9549 24.5501 23.2445 24.4838 23.405C24.414 23.5725 24.3617 23.7331 24.3058 23.8901C24.236 24.0925 24.1314 24.1309 23.9534 24.2391C23.7789 24.3472 23.6498 24.4973 23.4997 24.6299C23.3357 24.7765 23.1298 24.7904 22.9205 24.8393C22.6064 24.9161 22.3272 24.7486 22.0097 24.7695C21.7479 24.7835 21.5211 24.9335 21.2629 24.951C20.7185 24.9858 20.2334 24.9195 20.045 24.3298C19.9612 24.0785 20.031 23.9634 20.1846 23.8029C20.3486 23.6319 20.2928 23.4783 20.209 23.2759C20.1113 23.0421 20.0031 22.8188 19.9577 22.5675C19.9159 22.3163 20.0659 22.0301 20.1078 21.7754C20.1462 21.5625 20.0415 21.2659 20.1078 21.0635C20.1706 20.8855 20.537 20.7041 20.6871 20.5819C20.8825 20.4249 21.1547 20.3586 21.3815 20.2434C21.6607 20.0969 21.8561 20.1422 22.1423 20.0934C22.3761 20.0515 22.5017 19.87 22.7111 19.7863C22.9414 19.6956 23.2589 19.7409 23.5067 19.7444C23.7824 19.7514 23.929 19.8386 24.1697 19.9573C24.4001 20.0724 24.6025 20.2504 24.8712 20.2818C25.1817 20.3167 25.5028 20.2574 25.8099 20.2713C26.1205 20.2888 26.2251 20.4493 26.4589 20.6098C26.7172 20.7878 26.8917 20.8925 27.0801 21.1577C27.1708 21.2833 27.2162 21.4369 27.3069 21.5555C27.4081 21.6916 27.4814 21.7649 27.5442 21.9289C27.6315 22.1558 27.7466 22.3512 27.8059 22.585C27.8408 22.7246 27.8897 22.8397 27.8792 22.9863C27.8618 23.1712 27.785 23.3283 27.7815 23.5202C27.7745 23.9459 27.621 24.26 27.4326 24.6404C27.2441 25.0138 27.0871 25.4081 26.9126 25.7885C26.794 26.0467 26.7695 26.5597 26.4206 26.626C26.2391 26.6609 26.0611 26.626 25.8866 26.7202C25.7052 26.8144 25.6808 27.0238 25.5377 27.1564C25.4016 27.282 25.2306 27.2402 25.0491 27.2402C24.7735 27.2402 24.5327 27.282 24.2744 27.3937C23.9708 27.5228 23.7649 27.8299 23.4613 27.9835C23.2206 28.1056 22.9239 28.2173 22.6657 28.2801C22.4738 28.3289 22.2853 28.2801 22.0899 28.3394C21.6432 28.472 21.2699 28.7651 20.8371 28.9257C20.5021 29.0478 20.0764 29.1281 19.7135 29.0966C19.5634 29.0827 19.4448 29.0234 19.3017 28.978C19.0784 28.9117 18.8446 28.9117 18.6142 28.8524C18.4328 28.807 18.2583 28.7407 18.0838 28.6779C17.9058 28.6116 17.7907 28.479 17.6232 28.4022C17.2358 28.2173 16.8624 28.2382 16.5065 27.952C16.0633 27.5891 15.676 27.1808 15.1944 26.8703C14.9955 26.7376 14.8629 26.5701 14.7338 26.3782C14.6186 26.2072 14.4825 26.106 14.3534 25.9595C14.1615 25.7396 14.0323 25.4814 13.9242 25.2162C13.7427 24.78 13.5263 24.3891 13.3728 23.939C13.1564 23.3004 12.8773 22.7141 12.7551 22.0441C12.6574 21.4892 12.7796 21.0007 12.8005 20.4598C12.8005 20.3342 12.8214 20.1806 12.8005 20.0585C12.7621 19.8526 12.5841 19.7165 12.4515 19.5664C12.0188 19.0744 11.6419 18.5824 11.4046 17.9647C11.1639 17.3366 11.0452 16.5688 11.2476 15.9163C11.436 15.323 11.8025 14.995 12.2875 14.6356C12.7586 14.2831 13.296 14.0179 13.816 13.7527C14.0533 13.6306 14.2766 13.4596 14.5279 13.3688C14.7861 13.2746 15.0897 13.2293 15.3584 13.156C15.5957 13.0932 15.7911 13.0687 15.997 12.9222C16.2099 12.7686 16.4472 12.6011 16.6426 12.4266C16.8834 12.2103 17.0753 11.9869 17.3929 11.9032C17.8291 11.788 18.2862 11.6554 18.7294 11.5647C19.2773 11.4495 19.9508 11.5996 20.4952 11.6589C21.043 11.7182 21.5735 11.7252 22.1283 11.7252C22.5889 11.7252 23.0251 11.6519 23.4823 11.6345C23.6498 11.6275 23.8243 11.6519 23.9918 11.6415C24.2675 11.6275 24.5292 11.5054 24.7944 11.4391C25.3039 11.3065 25.782 11.0587 26.281 10.8947C26.6683 10.7656 27.0382 10.7795 27.436 10.7132C27.8548 10.6469 28.284 10.5038 28.7098 10.4864C29.0832 10.4724 29.4775 10.3294 29.8125 10.5318C30.4336 10.9156 30.8315 11.5717 31.4491 11.9451C32.1017 12.3394 32.8345 12.6186 33.5359 12.8977C33.7767 12.992 34.0489 12.8803 34.2688 12.964C34.3804 13.0059 34.4956 13.1804 34.5759 13.2746C34.691 13.1944 34.6561 13.0792 34.6596 12.9571C34.6701 12.7826 34.7503 12.65 34.7538 12.4685C34.7538 12.2556 34.7782 12.0218 34.7434 11.8125C34.7259 11.7078 34.5828 11.4495 34.5793 11.303C34.9213 11.5856 35.2528 11.8857 35.5704 12.1963C38.6308 15.1939 40.5292 19.3745 40.5292 24.0018H40.5327Z" fill="url(#paint2_radial_5119_14555)"/>
<path style="mix-blend-mode:multiply" opacity="0.3" fill-rule="evenodd" clip-rule="evenodd" d="M12.9782 29.0059C12.8805 29.3688 12.8246 29.7387 12.8072 30.1086C12.9014 30.0842 13.0445 30.3075 13.1527 30.3529C13.3481 30.4401 13.54 30.4122 13.718 30.5413C13.8785 30.6565 14.0704 30.8798 14.2589 30.9392C14.3775 30.9775 14.545 30.9426 14.6741 30.9426C14.9463 30.9426 15.1836 30.9566 15.4488 31.0089C15.721 31.0648 16.077 31.1555 16.3561 31.1276C16.5481 31.1067 16.8412 31.0055 16.9878 30.8868C17.1378 30.7612 17.2041 30.3878 17.2146 30.1924C17.246 29.5887 16.8028 29.0198 16.3492 28.6639C16.1154 28.479 15.8467 28.479 15.5849 28.3429C15.2744 28.1823 14.9987 28.0881 14.6567 27.9939C14.4543 27.9381 14.1751 27.8404 13.9657 27.8438C13.7599 27.8508 13.526 27.9764 13.3306 28.0288C13.1282 28.0811 12.9328 28.1125 12.7967 28.2905C12.6467 28.4824 12.7164 28.7651 12.9782 28.9989V29.0059Z" fill="url(#paint3_linear_5119_14555)"/>
<path style="mix-blend-mode:multiply" opacity="0.3" fill-rule="evenodd" clip-rule="evenodd" d="M17.6508 31.1206C17.5461 31.2462 16.569 32.0942 17.0506 32.4292C17.082 32.4536 17.2809 32.5025 17.3158 32.5095C17.4658 32.5479 17.4903 32.5234 17.6124 32.4467C17.8427 32.2966 17.8741 32.0488 17.8183 31.7906C17.8078 31.7383 17.7555 31.5777 17.7311 31.5254C17.6857 31.4347 17.5845 31.4068 17.5636 31.2986L17.6508 31.1206Z" fill="url(#paint4_linear_5119_14555)"/>
<path style="mix-blend-mode:multiply" opacity="0.3" fill-rule="evenodd" clip-rule="evenodd" d="M23.2927 9.69767C23.4707 9.61043 24.0325 9.26844 24.3466 9.23704C24.4478 9.22657 24.5908 9.25798 24.7025 9.25798C24.9398 9.25798 25.1492 9.2161 25.3237 9.40803C25.4563 9.55459 25.5191 9.70465 25.4214 9.86866C25.2853 10.099 24.9259 10.27 24.7025 10.4026C24.1756 10.7062 23.4776 10.9993 22.846 10.9365C22.3435 10.8876 21.8899 10.5142 21.4606 10.2874C21.1361 10.1164 20.5498 9.79887 20.9442 9.40803C21.2652 9.09047 21.7503 8.91599 22.1935 8.89854C22.3924 8.89156 22.8774 8.82177 23.0345 8.94042C23.2089 9.07303 23.017 9.63486 23.3834 9.60694L23.2962 9.69418L23.2927 9.69767Z" fill="url(#paint5_linear_5119_14555)"/>
<path style="mix-blend-mode:screen" fill-rule="evenodd" clip-rule="evenodd" d="M7.21347 20.6307C7.46473 24.0017 15.3548 18.5439 22.9901 16.1186C31.9515 13.2711 38.7459 19.4896 39.7404 19.1511C41.2933 18.6207 34.9142 6.2883 24.6966 6.44533C13.1877 6.62331 6.80867 15.1904 7.21347 20.6307Z" fill="url(#paint6_linear_5119_14555)"/>
<path style="mix-blend-mode:screen" fill-rule="evenodd" clip-rule="evenodd" d="M16.25 39.1921C16.25 39.1921 24.0947 41.9245 31.5905 37.7823C39.0827 33.6401 40.318 24.2914 40.318 24.2914C40.318 24.2914 39.4003 35.2837 32.1628 38.7908C24.9287 42.2979 19.5128 41.2196 16.25 39.1921Z" fill="url(#paint7_radial_5119_14555)"/>
<path style="mix-blend-mode:screen" opacity="0.5" fill-rule="evenodd" clip-rule="evenodd" d="M6.43359 26.4828L6.98845 29.0547C6.98845 29.0547 10.0698 30.8588 17.2166 30.1958C24.3634 29.5328 26.0593 26.0396 28.851 24.0017C31.6393 21.9672 37.0482 20.3655 38.4615 18.7777C39.8713 17.1899 38.6744 14.0248 38.6744 14.0248L38.1335 13.2745C38.1335 13.2745 39.135 15.979 37.9346 17.9856C36.7341 19.9921 31.4124 20.9134 28.5021 23.4503C25.5917 25.9873 19.6942 27.9624 14.6657 27.9973C9.63708 28.0322 6.44057 26.4828 6.44057 26.4828H6.43359Z" fill="url(#paint8_linear_5119_14555)"/>
<path style="mix-blend-mode:screen" opacity="0.5" fill-rule="evenodd" clip-rule="evenodd" d="M8.80469 33.1655L9.93882 34.8161C9.93882 34.8161 15.0756 36.3202 22.7912 34.8161C30.5068 33.3121 36.3205 28.964 39.0319 26.4829C41.7434 24.0017 41.4049 20.533 41.4049 20.533L41.1641 19.4896C41.1641 19.4896 40.6791 23.0979 37.6675 26.4829C34.6559 29.8678 29.6378 32.9352 22.4143 34.2054C15.1907 35.4757 8.80818 33.1655 8.80818 33.1655H8.80469Z" fill="url(#paint9_linear_5119_14555)"/>
<path style="mix-blend-mode:screen" opacity="0.5" fill-rule="evenodd" clip-rule="evenodd" d="M7.46484 17.5599C7.46484 17.5599 17.5429 20.9972 25.3318 19.4897C33.1207 17.9822 35.204 12.9466 35.354 10.3747L33.9268 9.29993C33.9268 9.29993 33.9582 14.4681 29.0238 17.5878C24.0895 20.7076 11.4605 18.8546 8.07553 16.171L7.46484 17.5599Z" fill="url(#paint10_linear_5119_14555)"/>
<path fill-rule="evenodd" clip-rule="evenodd" d="M8.57413 23.6493C8.68579 24.2705 10.0886 23.4016 11.139 21.2973C12.1894 19.193 12.3918 14.8554 11.8439 14.4785C11.296 14.1017 7.79245 19.3501 8.57413 23.6493Z" fill="white"/>
<path fill-rule="evenodd" clip-rule="evenodd" d="M27.8056 39.9495C27.5857 40.1972 28.3953 40.4938 29.5992 40.2496C30.8032 40.0053 32.6562 38.6897 32.6352 38.3442C32.6143 37.9987 29.3236 38.2465 27.8056 39.9529V39.9495Z" fill="white"/>
<path fill-rule="evenodd" clip-rule="evenodd" d="M8.6688 24.5531C7.93947 24.6892 7.95692 26.1094 8.42453 26.7166C8.88865 27.3273 9.4784 27.0377 9.51679 25.7919C9.54121 25.0242 9.27251 24.4379 8.6688 24.5531Z" fill="white"/>
<path fill-rule="evenodd" clip-rule="evenodd" d="M37.4531 34.879C37.4531 34.879 40.4961 30.9462 41.1556 26.0188C41.1556 26.0188 41.5011 30.7124 37.4531 34.879Z" fill="#FF9AFF"/>
<path style="mix-blend-mode:screen" opacity="0.92" fill-rule="evenodd" clip-rule="evenodd" d="M29.0273 6.98622C29.0273 6.98622 33.6337 3.25928 37.4548 5.90443C41.7401 8.87411 39.6463 15.6266 39.6463 15.6266C39.6463 15.6266 30.7931 10.9714 29.0273 6.98273V6.98622Z" fill="url(#paint11_radial_5119_14555)"/>
<path style="mix-blend-mode:screen" opacity="0.92" fill-rule="evenodd" clip-rule="evenodd" d="M12.1406 37.1925C12.1406 37.1925 12.7199 42.4061 16.6388 44.3009C20.2959 46.0702 23.5762 41.7361 23.5762 41.7361C23.5762 41.7361 22.791 34.8161 12.1406 37.1925Z" fill="url(#paint12_radial_5119_14555)"/>
<path style="mix-blend-mode:screen" fill-rule="evenodd" clip-rule="evenodd" d="M29.9062 6.83272C30.6426 7.77841 33.0365 8.02269 35.9887 8.32978C38.9409 8.63686 39.3527 9.47438 39.3527 9.47438C39.3527 9.47438 38.414 5.99172 35.549 5.41942C32.684 4.84712 29.9062 6.82923 29.9062 6.82923V6.83272Z" fill="url(#paint13_linear_5119_14555)"/>
<path style="mix-blend-mode:screen" fill-rule="evenodd" clip-rule="evenodd" d="M12.4648 37.5556C12.4648 37.5556 12.9359 40.7311 14.2132 41.3034C15.4904 41.8757 16.2511 38.9444 19.4162 38.8781C21.182 38.8398 23.1187 40.9056 23.1187 40.9056C23.1187 40.9056 21.2238 35.2629 12.4683 37.5556H12.4648Z" fill="url(#paint14_linear_5119_14555)"/>
<path fill-rule="evenodd" clip-rule="evenodd" d="M17.3789 44.123C17.3789 44.123 19.4343 44.4266 21.4094 43.1982C21.4094 43.1982 20.1148 45.4316 17.3789 44.123Z" fill="#FF9AFF"/>
<path fill-rule="evenodd" clip-rule="evenodd" d="M39.1406 14.4575C39.1406 14.4575 39.8386 12.7162 39.6013 10.427C39.6013 10.427 40.8331 12.9151 39.1406 14.4575Z" fill="#FF9AFF"/>
<path fill-rule="evenodd" clip-rule="evenodd" d="M30.0529 6.73148C29.7284 7.01764 32.1746 6.9618 32.9458 6.44533C33.717 5.92887 34.0276 5.63225 33.8287 5.31818C33.6298 5.00411 31.215 5.70902 30.0529 6.73497V6.73148Z" fill="white"/>
<path fill-rule="evenodd" clip-rule="evenodd" d="M34.1142 5.34609C34.0828 5.15416 34.8261 5.20651 34.8122 5.39146C34.7982 5.57641 34.1701 5.70552 34.1142 5.34609Z" fill="white"/>
<path fill-rule="evenodd" clip-rule="evenodd" d="M12.7637 38.215C12.2821 38.0719 12.9905 40.3751 14.02 41.1498C14.02 41.1498 14.17 38.6303 12.7637 38.215Z" fill="white"/>
<path style="mix-blend-mode:screen" opacity="0.92" fill-rule="evenodd" clip-rule="evenodd" d="M39.372 15.8535C39.372 15.8535 41.6158 14.5344 42.7744 16.0908C44.418 18.2997 41.5146 20.6133 41.5146 20.6133C41.5146 20.6133 39.1068 19.1093 39.372 15.8535Z" fill="url(#paint15_radial_5119_14555)"/>
<path style="mix-blend-mode:screen" fill-rule="evenodd" clip-rule="evenodd" d="M39.5705 15.8674C38.6841 16.1326 41.2455 16.6595 42.1284 17.1027C43.0112 17.5459 42.9205 18.0728 42.9205 18.0728C42.9205 18.0728 43.4056 14.7228 39.5705 15.8674Z" fill="url(#paint16_linear_5119_14555)"/>
<path fill-rule="evenodd" clip-rule="evenodd" d="M41.3164 20.1212C41.3164 20.1212 42.1051 19.7513 42.6809 18.4811C42.6809 18.4811 42.8972 19.842 41.3164 20.1212Z" fill="#FF9AFF"/>
<path fill-rule="evenodd" clip-rule="evenodd" d="M39.9224 15.9162C39.6851 16.2198 41.0356 16.1744 41.1543 15.8569C41.2729 15.5393 40.2086 15.5498 39.9224 15.9162Z" fill="white"/>
<path fill-rule="evenodd" clip-rule="evenodd" d="M39.3516 16.6246C39.3516 16.6246 39.3725 18.7045 40.6288 19.8735C40.6288 19.8735 39.5435 17.8844 39.3516 16.6246Z" fill="white"/>
<path fill-rule="evenodd" clip-rule="evenodd" d="M40.8672 20.1212C40.8672 20.1212 41.1603 20.5679 41.4011 20.5365C41.4011 20.5365 41.0975 20.0515 40.8672 20.1212Z" fill="white"/>
<path style="mix-blend-mode:screen" opacity="0.92" fill-rule="evenodd" clip-rule="evenodd" d="M26.0738 6.4454C26.0738 6.4454 26.695 5.33221 27.6058 5.32174C28.9004 5.30778 28.9772 7.0526 28.9772 7.0526C28.9772 7.0526 27.5988 7.58303 26.0703 6.44889L26.0738 6.4454Z" fill="url(#paint17_radial_5119_14555)"/>
<path style="mix-blend-mode:screen" fill-rule="evenodd" clip-rule="evenodd" d="M26.4868 6.12783C26.2321 6.48029 27.3383 5.94637 27.7954 5.85913C28.2491 5.77189 28.3677 5.99523 28.3677 5.99523C28.3677 5.99523 27.5896 4.60635 26.4868 6.13132V6.12783Z" fill="url(#paint18_linear_5119_14555)"/>
<path fill-rule="evenodd" clip-rule="evenodd" d="M28.736 6.98972C28.736 6.98972 28.8128 6.58841 28.4883 6.01611C28.4883 6.01611 29.0676 6.30924 28.736 6.98972Z" fill="#FF9AFF"/>
<path fill-rule="evenodd" clip-rule="evenodd" d="M26.6367 6.04406C26.6367 6.22552 27.1253 5.82073 27.0799 5.67067C27.0345 5.52062 26.6402 5.82771 26.6367 6.04406Z" fill="white"/>
<path fill-rule="evenodd" clip-rule="evenodd" d="M26.6211 6.79089C26.6211 6.79089 27.661 7.33877 28.4532 7.18522C28.4532 7.18522 27.155 7.06658 26.6211 6.79089Z" fill="white"/>
<path fill-rule="evenodd" clip-rule="evenodd" d="M28.6133 7.16072C28.6133 7.16072 28.8645 7.17119 28.9169 7.07348C28.9169 7.07348 28.6482 7.05603 28.6133 7.16072Z" fill="white"/>
<path fill-rule="evenodd" clip-rule="evenodd" d="M29.6094 7.99475C29.6094 7.99475 30.3073 8.15527 30.5132 9.12539C30.5132 9.12539 29.7943 8.91602 29.6094 7.99475Z" fill="white"/>
<path fill-rule="evenodd" clip-rule="evenodd" d="M12.1406 37.1926C12.1406 37.1926 13.0375 36.896 14.552 36.697C16.0665 36.4981 16.9214 36.697 16.9214 36.697C16.9214 36.697 13.5958 36.9623 12.1406 37.1926Z" fill="white"/>
<path fill-rule="evenodd" clip-rule="evenodd" d="M20.4453 37.5905C20.4453 37.5905 22.3402 39.0631 22.9927 40.0646C22.9927 40.0646 22.7973 38.77 20.4453 37.5905Z" fill="white"/>
<path fill-rule="evenodd" clip-rule="evenodd" d="M16.7383 8.29134C16.7383 8.29134 17.2513 7.65622 18.3051 7.37356C19.1531 7.14674 19.6312 7.18512 19.7987 7.16418C19.7987 7.16418 18.0015 8.40999 16.7383 8.29134Z" fill="white"/>
<path fill-rule="evenodd" clip-rule="evenodd" d="M17.3789 36.7494C17.3789 36.7494 17.9756 36.4877 18.1885 36.8576C18.1885 36.8576 17.5394 37.067 17.3789 36.7494Z" fill="white"/>
<path fill-rule="evenodd" clip-rule="evenodd" d="M21.7188 43.0447C21.7188 43.0447 21.7257 42.5666 22.5109 42.3188C22.5109 42.3188 22.5807 42.947 21.7188 43.0447Z" fill="#FF9AFF"/>
<path style="mix-blend-mode:screen" opacity="0.92" d="M11.5833 9.70639C13.1674 8.01601 13.0811 5.36157 11.3908 3.77753C9.7004 2.19348 7.04595 2.27969 5.46191 3.97006C3.87787 5.66044 3.96407 8.31488 5.65445 9.89892C7.34483 11.483 9.99927 11.3968 11.5833 9.70639Z" fill="url(#paint19_radial_5119_14555)"/>
<path style="mix-blend-mode:screen" fill-rule="evenodd" clip-rule="evenodd" d="M4.63856 6.90247C4.63856 6.90247 5.34695 8.10291 7.56985 6.50466C9.79624 4.90291 10.8187 4.04446 11.7888 4.46322C11.7888 4.46322 9.64968 1.97161 6.88588 3.19997C4.18141 4.4004 4.63856 6.90247 4.63856 6.90247Z" fill="url(#paint20_linear_5119_14555)"/>
<path fill-rule="evenodd" clip-rule="evenodd" d="M9.99219 10.4235C9.99219 10.4235 11.908 9.50223 12.3058 7.46777C12.3058 7.46777 12.7036 9.79536 9.99219 10.4235Z" fill="#FF9AFF"/>
<path fill-rule="evenodd" clip-rule="evenodd" d="M4.63281 6.01962C4.63281 6.01962 4.88058 4.07938 6.81035 3.40588C6.81035 3.40588 5.9833 6.04405 4.63281 6.01962Z" fill="white"/>
<path fill-rule="evenodd" clip-rule="evenodd" d="M6.89005 3.31165C6.68765 3.20697 7.53563 2.91035 8.00673 2.93477C8.00673 2.93477 7.17271 3.45822 6.89005 3.31165Z" fill="white"/>
<path fill-rule="evenodd" clip-rule="evenodd" d="M8.01172 10.7551C8.01172 10.7551 9.00278 9.96298 9.99383 10.4236C9.99383 10.4236 9.3657 11.0343 8.01172 10.7551Z" fill="white"/>
<path style="mix-blend-mode:screen" opacity="0.92" fill-rule="evenodd" clip-rule="evenodd" d="M34.592 43.446C34.592 44.5243 33.7161 45.4002 32.6378 45.4002C31.5595 45.4002 30.6836 44.5243 30.6836 43.446C30.6836 42.3677 31.5595 41.4918 32.6378 41.4918C33.7161 41.4918 34.592 42.3677 34.592 43.446Z" fill="url(#paint21_radial_5119_14555)"/>
<path style="mix-blend-mode:screen" fill-rule="evenodd" clip-rule="evenodd" d="M30.83 43.4775C30.83 43.4775 31.158 44.0358 32.1944 43.2925C33.2309 42.5492 33.7089 42.1479 34.1591 42.3433C34.1591 42.3433 33.1646 41.1848 31.8769 41.7571C30.6171 42.3154 30.83 43.481 30.83 43.481V43.4775Z" fill="url(#paint22_linear_5119_14555)"/>
<path fill-rule="evenodd" clip-rule="evenodd" d="M33.3203 45.1175C33.3203 45.1175 34.2137 44.6883 34.3986 43.7391C34.3986 43.7391 34.5836 44.8244 33.3203 45.1175Z" fill="#FF9AFF"/>
<path fill-rule="evenodd" clip-rule="evenodd" d="M30.8242 43.0657C30.8242 43.0657 30.9394 42.1618 31.8397 41.8478C31.8397 41.8478 31.4524 43.0761 30.8242 43.0657Z" fill="white"/>
<path fill-rule="evenodd" clip-rule="evenodd" d="M31.8776 41.8024C31.7834 41.7536 32.1777 41.614 32.3975 41.6279C32.3975 41.6279 32.0102 41.8722 31.8776 41.8024Z" fill="white"/>
<path fill-rule="evenodd" clip-rule="evenodd" d="M32.3984 45.2711C32.3984 45.2711 32.8591 44.9012 33.3232 45.1176C33.3232 45.1176 33.0301 45.4002 32.3984 45.2711Z" fill="white"/>
<defs>
<radialGradient id="paint0_radial_5119_14555" cx="0" cy="0" r="1" gradientUnits="userSpaceOnUse" gradientTransform="translate(23.9996 24.0017) scale(17.7413)">
<stop offset="0.89"/>
<stop offset="0.9" stop-color="#000405"/>
<stop offset="0.92" stop-color="#001216"/>
<stop offset="0.94" stop-color="#002831"/>
<stop offset="0.96" stop-color="#004758"/>
<stop offset="0.99" stop-color="#006F88"/>
<stop offset="1" stop-color="#008BAB"/>
</radialGradient>
<radialGradient id="paint1_radial_5119_14555" cx="0" cy="0" r="1" gradientUnits="userSpaceOnUse" gradientTransform="translate(19.3126 19.3116) scale(24.2495)">
<stop stop-color="#00CEC0"/>
<stop offset="0.26" stop-color="#00CBC0"/>
<stop offset="0.38" stop-color="#00C4C0"/>
<stop offset="0.48" stop-color="#00B6C2"/>
<stop offset="0.56" stop-color="#00A4C3"/>
<stop offset="0.64" stop-color="#008BC5"/>
<stop offset="0.71" stop-color="#006EC8"/>
<stop offset="0.72" stop-color="#0068C9"/>
<stop offset="0.74" stop-color="#0667CA"/>
<stop offset="0.78" stop-color="#1A65CE"/>
<stop offset="0.83" stop-color="#3963D5"/>
<stop offset="0.88" stop-color="#655FDF"/>
<stop offset="0.93" stop-color="#9E5AEC"/>
<stop offset="0.99" stop-color="#E155FB"/>
<stop offset="1" stop-color="#F154FF"/>
</radialGradient>
<radialGradient id="paint2_radial_5119_14555" cx="0" cy="0" r="1" gradientUnits="userSpaceOnUse" gradientTransform="translate(25.8413 25.4779) scale(14.8728)">
<stop stop-color="#1372B3"/>
<stop offset="1" stop-color="white"/>
</radialGradient>
<linearGradient id="paint3_linear_5119_14555" x1="12.7164" y1="29.491" x2="17.2146" y2="29.491" gradientUnits="userSpaceOnUse">
<stop stop-color="#B8C2FF"/>
<stop offset="1" stop-color="#7D72B3"/>
</linearGradient>
<linearGradient id="paint4_linear_5119_14555" x1="16.918" y1="31.8255" x2="17.8427" y2="31.8255" gradientUnits="userSpaceOnUse">
<stop stop-color="#B8C2FF"/>
<stop offset="1" stop-color="#7D72B3"/>
</linearGradient>
<linearGradient id="paint5_linear_5119_14555" x1="20.8151" y1="9.91054" x2="25.4702" y2="9.91054" gradientUnits="userSpaceOnUse">
<stop stop-color="#B8C2FF"/>
<stop offset="1" stop-color="#7D72B3"/>
</linearGradient>
<linearGradient id="paint6_linear_5119_14555" x1="13.827" y1="9.06937" x2="32.5373" y2="26.8041" gradientUnits="userSpaceOnUse">
<stop offset="0.02" stop-color="#B3FFE8"/>
<stop offset="0.21" stop-color="#83BBAA"/>
<stop offset="0.43" stop-color="#55796E"/>
<stop offset="0.62" stop-color="#30453E"/>
<stop offset="0.78" stop-color="#161F1C"/>
<stop offset="0.92" stop-color="#050807"/>
<stop offset="1"/>
</linearGradient>
<radialGradient id="paint7_radial_5119_14555" cx="0" cy="0" r="1" gradientUnits="userSpaceOnUse" gradientTransform="translate(31.3706 37.9359) scale(10.427)">
<stop stop-color="#97E5D9"/>
<stop offset="0.36" stop-color="#61938C"/>
<stop offset="1"/>
</radialGradient>
<linearGradient id="paint8_linear_5119_14555" x1="22.7895" y1="30.3424" x2="22.7895" y2="13.2745" gradientUnits="userSpaceOnUse">
<stop stop-color="#BDFFE8"/>
<stop offset="0.2" stop-color="#8ABBAA"/>
<stop offset="0.42" stop-color="#59796E"/>
<stop offset="0.61" stop-color="#33453E"/>
<stop offset="0.78" stop-color="#171F1C"/>
<stop offset="0.91" stop-color="#060807"/>
<stop offset="1"/>
</linearGradient>
<linearGradient id="paint9_linear_5119_14555" x1="25.1118" y1="35.4861" x2="25.1118" y2="19.4896" gradientUnits="userSpaceOnUse">
<stop stop-color="#BDFFE8"/>
<stop offset="0.2" stop-color="#8ABBAA"/>
<stop offset="0.42" stop-color="#59796E"/>
<stop offset="0.61" stop-color="#33453E"/>
<stop offset="0.78" stop-color="#171F1C"/>
<stop offset="0.91" stop-color="#060807"/>
<stop offset="1"/>
</linearGradient>
<linearGradient id="paint10_linear_5119_14555" x1="21.4094" y1="19.8735" x2="21.4094" y2="9.29993" gradientUnits="userSpaceOnUse">
<stop stop-color="#BDFFE8"/>
<stop offset="0.2" stop-color="#8ABBAA"/>
<stop offset="0.42" stop-color="#59796E"/>
<stop offset="0.61" stop-color="#33453E"/>
<stop offset="0.78" stop-color="#171F1C"/>
<stop offset="0.91" stop-color="#060807"/>
<stop offset="1"/>
</linearGradient>
<radialGradient id="paint11_radial_5119_14555" cx="0" cy="0" r="1" gradientUnits="userSpaceOnUse" gradientTransform="translate(34.5933 10.2944) scale(5.45082)">
<stop offset="0.77"/>
<stop offset="0.79" stop-color="#050105"/>
<stop offset="0.8" stop-color="#160416"/>
<stop offset="0.82" stop-color="#320931"/>
<stop offset="0.84" stop-color="#581157"/>
<stop offset="0.86" stop-color="#891A87"/>
<stop offset="0.89" stop-color="#C426C2"/>
<stop offset="0.91" stop-color="#FF32FC"/>
<stop offset="0.92" stop-color="#FA33FA"/>
<stop offset="0.93" stop-color="#EE37F6"/>
<stop offset="0.94" stop-color="#D93FF0"/>
<stop offset="0.95" stop-color="#BB49E6"/>
<stop offset="0.97" stop-color="#9556DA"/>
<stop offset="0.98" stop-color="#6766CB"/>
<stop offset="0.99" stop-color="#3179BA"/>
<stop offset="1" stop-color="#008BAB"/>
</radialGradient>
<radialGradient id="paint12_radial_5119_14555" cx="0" cy="0" r="1" gradientUnits="userSpaceOnUse" gradientTransform="translate(18.1323 39.3771) scale(5.1856)">
<stop offset="0.77"/>
<stop offset="0.79" stop-color="#050105"/>
<stop offset="0.8" stop-color="#160416"/>
<stop offset="0.82" stop-color="#320931"/>
<stop offset="0.84" stop-color="#581157"/>
<stop offset="0.86" stop-color="#891A87"/>
<stop offset="0.89" stop-color="#C426C2"/>
<stop offset="0.91" stop-color="#FF32FC"/>
<stop offset="0.92" stop-color="#FA33FA"/>
<stop offset="0.93" stop-color="#EE37F6"/>
<stop offset="0.94" stop-color="#D93FF0"/>
<stop offset="0.95" stop-color="#BB49E6"/>
<stop offset="0.97" stop-color="#9556DA"/>
<stop offset="0.98" stop-color="#6766CB"/>
<stop offset="0.99" stop-color="#3179BA"/>
<stop offset="1" stop-color="#008BAB"/>
</radialGradient>
<linearGradient id="paint13_linear_5119_14555" x1="31.8011" y1="4.83316" x2="38.0964" y2="10.8004" gradientUnits="userSpaceOnUse">
<stop offset="0.02" stop-color="#54FFE8"/>
<stop offset="0.21" stop-color="#3DBBAA"/>
<stop offset="0.43" stop-color="#27796E"/>
<stop offset="0.62" stop-color="#16453E"/>
<stop offset="0.78" stop-color="#0A1F1C"/>
<stop offset="0.92" stop-color="#020807"/>
<stop offset="1"/>
</linearGradient>
<linearGradient id="paint14_linear_5119_14555" x1="13.7735" y1="36.1772" x2="21.0598" y2="43.0797" gradientUnits="userSpaceOnUse">
<stop offset="0.02" stop-color="#54FFE8"/>
<stop offset="0.21" stop-color="#3DBBAA"/>
<stop offset="0.43" stop-color="#27796E"/>
<stop offset="0.62" stop-color="#16453E"/>
<stop offset="0.78" stop-color="#0A1F1C"/>
<stop offset="0.92" stop-color="#020807"/>
<stop offset="1"/>
</linearGradient>
<radialGradient id="paint15_radial_5119_14555" cx="0" cy="0" r="1" gradientUnits="userSpaceOnUse" gradientTransform="translate(41.3745 17.9347) rotate(-12.09) scale(2.03907 2.45671)">
<stop offset="0.77"/>
<stop offset="0.79" stop-color="#050105"/>
<stop offset="0.8" stop-color="#160416"/>
<stop offset="0.82" stop-color="#320931"/>
<stop offset="0.84" stop-color="#581157"/>
<stop offset="0.86" stop-color="#891A87"/>
<stop offset="0.89" stop-color="#C426C2"/>
<stop offset="0.91" stop-color="#FF32FC"/>
<stop offset="0.92" stop-color="#FA33FA"/>
<stop offset="0.93" stop-color="#EE37F6"/>
<stop offset="0.94" stop-color="#D93FF0"/>
<stop offset="0.95" stop-color="#BB49E6"/>
<stop offset="0.97" stop-color="#9556DA"/>
<stop offset="0.98" stop-color="#6766CB"/>
<stop offset="0.99" stop-color="#3179BA"/>
<stop offset="1" stop-color="#008BAB"/>
</radialGradient>
<linearGradient id="paint16_linear_5119_14555" x1="40.0416" y1="15.2811" x2="42.9519" y2="18.0379" gradientUnits="userSpaceOnUse">
<stop offset="0.02" stop-color="#54FFE8"/>
<stop offset="0.21" stop-color="#3DBBAA"/>
<stop offset="0.43" stop-color="#27796E"/>
<stop offset="0.62" stop-color="#16453E"/>
<stop offset="0.78" stop-color="#0A1F1C"/>
<stop offset="0.92" stop-color="#020807"/>
<stop offset="1"/>
</linearGradient>
<radialGradient id="paint17_radial_5119_14555" cx="0" cy="0" r="1" gradientUnits="userSpaceOnUse" gradientTransform="translate(27.3567 6.87679) rotate(-66.08) scale(1.06298 1.2807)">
<stop offset="0.42"/>
<stop offset="0.49" stop-color="#000405"/>
<stop offset="0.59" stop-color="#001216"/>
<stop offset="0.69" stop-color="#002831"/>
<stop offset="0.8" stop-color="#004758"/>
<stop offset="0.92" stop-color="#006F88"/>
<stop offset="1" stop-color="#008BAB"/>
</radialGradient>
<linearGradient id="paint18_linear_5119_14555" x1="26.4945" y1="5.77684" x2="28.3725" y2="5.97415" gradientUnits="userSpaceOnUse">
<stop offset="0.02" stop-color="#54FFE8"/>
<stop offset="0.21" stop-color="#3DBBAA"/>
<stop offset="0.43" stop-color="#27796E"/>
<stop offset="0.62" stop-color="#16453E"/>
<stop offset="0.78" stop-color="#0A1F1C"/>
<stop offset="0.92" stop-color="#020807"/>
<stop offset="1"/>
</linearGradient>
<radialGradient id="paint19_radial_5119_14555" cx="0" cy="0" r="1" gradientUnits="userSpaceOnUse" gradientTransform="translate(8.17046 6.523) scale(4.48768)">
<stop offset="0.77"/>
<stop offset="0.79" stop-color="#000405"/>
<stop offset="0.8" stop-color="#001216"/>
<stop offset="0.82" stop-color="#002831"/>
<stop offset="0.84" stop-color="#004758"/>
<stop offset="0.86" stop-color="#006F88"/>
<stop offset="0.87" stop-color="#008BAB"/>
<stop offset="0.98" stop-color="#FF32FC"/>
</radialGradient>
<linearGradient id="paint20_linear_5119_14555" x1="4.60715" y1="5.09833" x2="11.7888" y2="5.09833" gradientUnits="userSpaceOnUse">
<stop offset="0.02" stop-color="#54FFE8"/>
<stop offset="0.21" stop-color="#3DBBAA"/>
<stop offset="0.43" stop-color="#27796E"/>
<stop offset="0.62" stop-color="#16453E"/>
<stop offset="0.78" stop-color="#0A1F1C"/>
<stop offset="0.92" stop-color="#020807"/>
<stop offset="1"/>
</linearGradient>
<radialGradient id="paint21_radial_5119_14555" cx="0" cy="0" r="1" gradientUnits="userSpaceOnUse" gradientTransform="translate(32.4738 43.2995) scale(2.09029 2.0903)">
<stop offset="0.77"/>
<stop offset="0.79" stop-color="#000405"/>
<stop offset="0.8" stop-color="#001216"/>
<stop offset="0.82" stop-color="#002831"/>
<stop offset="0.84" stop-color="#004758"/>
<stop offset="0.86" stop-color="#006F88"/>
<stop offset="0.87" stop-color="#008BAB"/>
<stop offset="0.98" stop-color="#FF32FC"/>
</radialGradient>
<linearGradient id="paint22_linear_5119_14555" x1="30.816" y1="42.6365" x2="34.1591" y2="42.6365" gradientUnits="userSpaceOnUse">
<stop offset="0.02" stop-color="#54FFE8"/>
<stop offset="0.21" stop-color="#3DBBAA"/>
<stop offset="0.43" stop-color="#27796E"/>
<stop offset="0.62" stop-color="#16453E"/>
<stop offset="0.78" stop-color="#0A1F1C"/>
<stop offset="0.92" stop-color="#020807"/>
<stop offset="1"/>
</linearGradient>
</defs>
</svg>
