<svg width="208" height="48" viewBox="0 0 208 48" fill="none" xmlns="http://www.w3.org/2000/svg">
<g clip-path="url(#clip0_5101_14670)">
<path d="M69.8336 30.5556C67.807 31.2272 65.5605 30.5805 64.4373 28.7647L76.28 23.0438C75.4009 19.9097 73.3498 17.1736 70.2731 16.104C68.2953 15.4075 66.0733 15.5816 63.6315 16.6512C59.1874 18.5914 56.5503 24.1133 58.8456 29.5607C59.0653 30.083 59.3095 30.5805 59.6025 31.0531C63.9978 38.0924 76.28 36.401 77.1591 27.5459L73.1057 27.1479C72.7394 28.715 71.4452 30.0333 69.8336 30.5556ZM65.3407 20.4818C67.4895 19.5366 69.6383 20.6061 70.4685 22.1234L63.1187 25.357C62.6304 23.3671 63.3141 21.3523 65.3407 20.4818Z" fill="white"/>
<path d="M84.4589 28.2671C84.2392 27.6204 84.0682 26.7995 84.0682 25.73L83.9706 7H78.6719L78.7452 25.8543C78.7452 26.4513 78.7696 27.0234 78.7696 27.5955C78.9649 32.3215 81.1869 35.2317 86.4856 35.3561C87.0717 34.6845 88.1704 30.9286 87.56 30.2321C86.7786 30.2072 84.8496 30.0082 84.4589 28.2671Z" fill="white"/>
<path d="M94.7402 28.2671C94.5205 27.6204 94.3495 26.7995 94.3495 25.73L94.2519 7H88.9531L89.0264 25.8543C89.0264 26.4513 89.0508 27.0234 89.0508 27.5955C89.2461 32.3215 91.4926 35.2317 96.7669 35.3561C97.3529 34.6845 98.4517 30.9286 97.8413 30.2321C97.0599 30.2072 95.1309 30.0082 94.7402 28.2671Z" fill="white"/>
<path d="M105.531 16.0293H100.184V35.3562H105.531V16.0293Z" fill="white"/>
<path d="M102.895 13.7407C104.351 13.7407 105.532 12.538 105.532 11.0544C105.532 9.57077 104.351 8.36804 102.895 8.36804C101.438 8.36804 100.258 9.57077 100.258 11.0544C100.258 12.538 101.438 13.7407 102.895 13.7407Z" fill="white"/>
<path d="M118.621 15.8798C115.936 15.8798 113.909 16.825 112.517 17.9443C112.102 18.0687 111.882 17.5215 111.711 17.82C111.003 18.2428 110.393 18.7403 109.953 19.2129V40.7287H114.788L114.763 33.1173C116.228 33.6397 117.84 33.8636 119.183 33.8636C123.774 33.8636 127.803 30.9285 127.803 25.0334C127.754 22.1729 125.898 15.8798 118.621 15.8798ZM118.744 29.436C116.522 29.436 114.715 27.7695 114.715 25.0582V24.6851C114.715 21.949 116.448 20.2825 118.744 20.2576C121.185 20.2576 122.822 22.0734 122.822 24.8095C122.822 27.6202 121.088 29.436 118.744 29.436Z" fill="white"/>
<path d="M138.104 30.2073C137.347 29.9834 136.956 29.1626 136.883 27.6701C136.859 27.297 136.859 26.9239 136.859 26.5011V21.1781H140.497V16.6013H136.859V10.6814H131.535V16.6013H128.898V21.1781H131.535L131.56 26.6006C131.56 27.297 131.56 27.9935 131.584 28.6651C131.707 31.8489 132.805 34.8835 136.834 35.3561C138.665 35.5303 140.009 35.182 140.936 34.8338L140.155 30.257C139.691 30.2819 138.861 30.5306 138.104 30.2073Z" fill="white"/>
<path d="M149.316 16.0293H143.969V35.3562H149.316V16.0293Z" fill="white"/>
<path d="M146.63 13.7407C148.086 13.7407 149.267 12.538 149.267 11.0544C149.267 9.57077 148.086 8.36804 146.63 8.36804C145.173 8.36804 143.992 9.57077 143.992 11.0544C143.992 12.538 145.173 13.7407 146.63 13.7407Z" fill="white"/>
</g>
<defs>
<clipPath id="clip0_5101_14670">
<rect width="91.3143" height="34" fill="white" transform="translate(58 7)"/>
</clipPath>
</defs>
</svg>
