<svg width="207" height="48" viewBox="0 0 207 48" fill="none" xmlns="http://www.w3.org/2000/svg">
<path d="M60.6195 9C60.6696 9.0501 60.7197 9.0501 60.7698 9.0501C61.3209 9.0501 61.872 9.1503 62.4231 9.30061C63.3249 9.50101 64.1265 9.90182 64.828 10.4529L64.8781 10.503C65.1787 10.7535 65.1787 10.7535 64.9783 11.1043C64.3771 12.0562 63.7758 13.0081 63.2247 13.96C63.1245 14.1103 63.1245 14.1604 62.9241 14.0101C62.5233 13.7095 62.0223 13.5592 61.5213 13.459C61.1706 13.4089 60.8199 13.459 60.5193 13.5592C59.9681 13.7095 59.6675 14.0602 59.5172 14.5612C59.417 14.8619 59.3669 15.1124 59.3669 15.413C59.3669 16.1144 59.3669 16.7657 59.3669 17.4671C59.3669 17.5172 59.3669 17.6174 59.3669 17.6675C59.3669 17.7176 59.417 17.7677 59.4671 17.7677C59.5172 17.7677 59.6174 17.7677 59.6675 17.7677C61.1706 17.7677 62.6736 17.7677 64.1766 17.7677C64.2267 17.7677 64.2768 17.7677 64.327 17.7677C64.4272 17.7677 64.4773 17.8178 64.4773 17.918C64.4773 17.9681 64.4773 18.0182 64.4773 18.0683C64.4773 19.2708 64.4773 20.4231 64.4773 21.6255C64.4773 21.6756 64.4773 21.7257 64.4773 21.7758C64.4773 21.876 64.4272 21.9261 64.327 21.9261C64.2768 21.9261 64.2267 21.9261 64.1766 21.9261C62.6736 21.9261 61.1706 21.9261 59.6675 21.9261C59.6174 21.9261 59.5673 21.9261 59.5172 21.9261C59.417 21.9261 59.3669 21.9762 59.3669 22.0764C59.3669 22.1265 59.3669 22.2267 59.3669 22.2769C59.3669 27.3872 59.3669 32.4474 59.3669 37.5578C59.3669 37.9085 59.417 37.9085 59.0663 37.9085C57.6635 37.9085 56.2606 37.9085 54.8578 37.9085C54.8077 37.9085 54.7576 37.9085 54.7576 37.9085C54.5572 37.9085 54.5572 37.9085 54.5572 37.7081C54.5572 37.658 54.5572 37.5578 54.5572 37.5077C54.5572 32.4474 54.5572 27.3371 54.5572 22.2769C54.5572 21.9261 54.6073 21.9261 54.2065 21.9261C53.1544 21.9261 52.0521 21.9261 51 21.9261C51 20.5233 51 19.1205 51 17.7176C51.1002 17.6174 51.2505 17.6675 51.3507 17.6675C52.3026 17.6675 53.2045 17.6675 54.1564 17.6675C54.5071 17.6675 54.5071 17.6675 54.5071 17.3168C54.5071 16.415 54.5071 15.5633 54.5071 14.6614C54.3568 13.5592 54.6073 12.457 55.2586 11.5051C56.1103 10.1523 57.3629 9.35071 58.9661 9.0501C59.2166 9 59.5172 9.0501 59.7677 9C60.0182 9 60.3188 9 60.6195 9Z" fill="white"/>
<path d="M141.133 24.0806C141.033 24.1808 141.033 24.3311 140.983 24.4814C140.582 25.9844 140.131 27.4374 139.73 28.9404C139.38 30.1929 139.029 31.4455 138.678 32.698C138.327 33.9004 137.977 35.1029 137.626 36.3053C137.476 36.7562 137.376 37.2572 137.225 37.7081C137.125 38.0088 137.175 37.9587 136.875 37.9587C135.371 37.9587 133.919 37.9587 132.416 37.9587C132.165 37.9587 132.165 37.9587 132.065 37.7081C131.764 36.8063 131.514 35.9546 131.263 35.0528C131.063 34.4516 130.862 33.8002 130.662 33.199C130.361 32.1469 130.011 31.0948 129.71 30.0426C129.51 29.4414 129.309 28.8402 129.159 28.2891C128.808 27.1869 128.508 26.1347 128.157 25.0325C127.956 24.4313 127.756 23.78 127.556 23.1788C127.255 22.1266 126.904 21.0745 126.604 20.0725C126.403 19.4713 126.203 18.8199 126.003 18.2187C125.952 18.0684 125.902 17.9682 125.902 17.8179C125.952 17.7678 126.003 17.7678 126.103 17.7678C127.606 17.7678 129.059 17.7678 130.562 17.7678C130.762 17.7678 130.762 17.7678 130.812 17.9682C131.113 19.0705 131.413 20.1226 131.714 21.2248C132.015 22.3771 132.365 23.5796 132.666 24.7319C132.917 25.5836 133.117 26.4353 133.367 27.3372C133.618 28.239 133.868 29.1408 134.119 30.0426C134.319 30.7441 134.47 31.4455 134.67 32.0968C134.67 32.1469 134.72 32.1469 134.72 32.2471C134.82 32.0467 134.87 31.7962 134.921 31.5958C135.171 30.694 135.422 29.7921 135.672 28.8903C135.923 27.9384 136.223 26.9364 136.474 25.9844C136.674 25.3331 136.875 24.6317 137.025 23.9804C137.275 23.1788 137.476 22.3771 137.726 21.5254C137.927 20.7739 138.177 20.0224 138.378 19.2709C138.478 18.8701 138.578 18.4692 138.728 18.0684C138.778 17.8179 138.778 17.8179 139.029 17.8179C139.931 17.8179 140.833 17.8179 141.684 17.8179C142.135 17.8179 142.636 17.8179 143.087 17.8179C143.288 17.8179 143.338 17.8179 143.388 18.0684C143.738 19.2709 144.089 20.4733 144.39 21.6256C144.791 23.1287 145.241 24.5816 145.642 26.0846C146.043 27.4875 146.444 28.9404 146.845 30.3433C146.995 30.8443 147.145 31.3954 147.296 31.8964C147.296 31.9465 147.346 32.0467 147.396 32.0968C147.446 32.0968 147.446 32.0467 147.446 32.0467C147.596 31.4455 147.797 30.7942 147.947 30.1929C148.097 29.5416 148.298 28.9404 148.448 28.2891C148.648 27.4875 148.899 26.736 149.099 25.9343C149.3 25.2329 149.5 24.4814 149.7 23.78C149.851 23.1287 150.051 22.5274 150.201 21.8761C150.402 21.1747 150.602 20.4232 150.803 19.7218C150.953 19.1707 151.103 18.5694 151.254 18.0183C151.304 17.8179 151.304 17.8179 151.504 17.8179C152.957 17.8179 154.46 17.8179 155.913 17.8179H155.963C156.113 17.8179 156.113 17.868 156.063 17.9682C156.013 18.2187 155.913 18.4692 155.863 18.6696C155.512 19.7719 155.162 20.8741 154.811 21.9763C154.61 22.6778 154.36 23.3792 154.159 24.0806C153.759 25.283 153.408 26.5356 153.007 27.738C152.707 28.6398 152.456 29.5416 152.155 30.4435C151.755 31.696 151.404 32.8984 151.003 34.151C150.803 34.8023 150.602 35.4536 150.402 36.1049C150.201 36.7061 150.051 37.2572 149.851 37.8584C149.801 37.9587 149.751 38.0088 149.65 38.0088C149.5 38.0088 149.4 38.0088 149.25 38.0088C147.897 38.0088 146.494 38.0088 145.141 38.0088C144.891 38.0088 144.891 38.0088 144.841 37.7582C144.64 36.9566 144.39 36.155 144.139 35.3534C143.889 34.5518 143.688 33.7501 143.488 32.9485C143.237 32.1469 143.037 31.3453 142.786 30.5437C142.536 29.742 142.336 28.9404 142.135 28.1388C141.935 27.4875 141.734 26.7861 141.584 26.1347C141.384 25.4834 141.233 24.8321 141.033 24.1808C141.183 24.1808 141.183 24.1307 141.133 24.0806Z" fill="white"/>
<path d="M72.6958 23.8299C72.6958 28.4392 72.6958 33.0486 72.6958 37.6579C72.6958 38.0086 72.7459 37.9585 72.3952 37.9585C70.9923 37.9585 69.5394 37.9585 68.1365 37.9585C68.0864 37.9585 68.0363 37.9585 67.9862 37.9585C67.886 37.9585 67.8359 37.9084 67.8359 37.8082C67.8359 37.7581 67.8359 37.708 67.8359 37.6579C67.8359 28.3891 67.8359 19.1705 67.8359 9.90174C67.8359 9.60114 67.8359 9.60114 68.1365 9.60114C69.5394 9.60114 70.9923 9.60114 72.3952 9.60114C72.4453 9.60114 72.4954 9.60114 72.4954 9.60114C72.6958 9.60114 72.6958 9.60114 72.6958 9.80154C72.6958 9.85164 72.6958 9.95184 72.6958 10.0019C72.6958 14.6113 72.6958 19.2206 72.6958 23.8299Z" fill="white"/>
<path d="M77.304 26.1347C77.304 22.327 77.304 18.5193 77.304 14.6615C77.304 14.3108 77.304 14.3609 77.6046 14.3609C79.0075 14.3609 80.4103 14.3609 81.763 14.3609C81.8131 14.3609 81.8632 14.3609 81.8632 14.3609C82.0636 14.3609 82.0636 14.3609 82.0636 14.5613C82.0636 14.6114 82.0636 14.6114 82.0636 14.6615C82.0636 22.327 82.0636 29.9925 82.0636 37.658C82.0636 37.9586 82.0636 37.9586 81.763 37.9586C80.3602 37.9586 78.9573 37.9586 77.5545 37.9586H77.5044C77.2539 37.9586 77.2539 37.9586 77.2539 37.7582C77.2539 37.7081 77.2539 37.658 77.2539 37.6079C77.304 33.7501 77.304 29.9424 77.304 26.1347Z" fill="white"/>
<path d="M100.097 28.4895C100.097 31.5457 100.097 34.6019 100.097 37.6581C100.097 38.0088 100.147 37.9587 99.7967 37.9587C98.3939 37.9587 96.9911 37.9587 95.5882 37.9587C95.5381 37.9587 95.488 37.9587 95.4379 37.9587C95.3377 37.9587 95.2876 37.9086 95.2876 37.8084C95.2876 37.7583 95.2876 37.7082 95.2876 37.6581C95.2876 31.5457 95.2876 25.4333 95.2876 19.2709C95.2876 18.9703 95.2375 18.9703 95.5882 18.9703C96.9911 18.9703 98.3939 18.9703 99.7967 18.9703C99.8468 18.9703 99.8469 18.9703 99.897 18.9703C100.097 18.9703 100.097 18.9703 100.097 19.1707C100.097 19.2208 100.097 19.321 100.097 19.3711C100.097 22.4273 100.097 25.4333 100.097 28.4895Z" fill="white"/>
<path d="M86.2227 32.0966C86.2227 30.2429 86.2227 28.339 86.2227 26.4853C86.2227 26.1847 86.2227 26.1847 86.5233 26.1847C87.9261 26.1847 89.379 26.1847 90.7819 26.1847C90.832 26.1847 90.8821 26.1847 90.9322 26.1847C91.0324 26.1847 91.0825 26.2348 91.0825 26.335C91.0825 26.3851 91.0825 26.4352 91.0825 26.4853C91.0825 30.1928 91.0825 33.9504 91.0825 37.6579C91.0825 37.9585 91.1326 37.9585 90.7819 37.9585C89.379 37.9585 87.9762 37.9585 86.5734 37.9585C86.5233 37.9585 86.4732 37.9585 86.4231 37.9585C86.3229 37.9585 86.3229 37.9084 86.3229 37.8583C86.3229 37.8082 86.3229 37.708 86.3229 37.6579C86.2227 35.8041 86.2227 33.9504 86.2227 32.0966Z" fill="white"/>
<path d="M124.394 27.237C124.394 26.736 124.344 26.2851 124.244 25.7841C124.144 25.2329 123.994 24.7319 123.843 24.1808C123.643 23.5295 123.342 22.9283 123.042 22.3772C122.641 21.6758 122.19 21.0244 121.639 20.4733C121.088 19.8721 120.436 19.3711 119.785 18.9202C119.284 18.6196 118.783 18.319 118.232 18.0685C117.931 17.9182 117.581 17.818 117.23 17.7177C116.779 17.5674 116.328 17.4672 115.827 17.367C115.376 17.2668 114.875 17.2167 114.374 17.2167C113.723 17.2167 113.122 17.2167 112.47 17.3169C111.819 17.4171 111.168 17.5173 110.566 17.7177C109.815 17.9683 109.063 18.319 108.412 18.7198C107.761 19.1206 107.16 19.5715 106.608 20.1226C106.208 20.4733 105.857 20.9242 105.556 21.325C105.055 22.0265 104.604 22.7279 104.304 23.5295C104.053 24.1808 103.803 24.8321 103.703 25.5336C103.602 26.1849 103.452 26.7861 103.502 27.4374C103.502 27.9885 103.502 28.5396 103.552 29.0907C103.602 29.4916 103.652 29.8924 103.753 30.2932C103.853 30.8443 104.053 31.4455 104.254 31.9966C104.504 32.5978 104.755 33.149 105.105 33.7001C105.456 34.2512 105.807 34.7522 106.258 35.2532C106.709 35.7542 107.26 36.2051 107.811 36.656C108.612 37.2072 109.464 37.7082 110.416 38.0088C111.368 38.3595 112.37 38.5599 113.372 38.5599C113.422 38.5599 113.472 38.5599 113.522 38.61C113.873 38.61 114.224 38.61 114.575 38.61C114.625 38.5599 114.675 38.5599 114.725 38.5599C115.176 38.5599 115.627 38.5098 116.078 38.4096C117.03 38.2593 117.931 37.9587 118.783 37.5078C119.184 37.3074 119.535 37.107 119.935 36.8565C120.386 36.5558 120.787 36.2552 121.188 35.8544C121.388 35.654 121.589 35.4536 121.789 35.2532C121.939 35.0528 122.14 34.9025 122.29 34.7021C123.042 33.7502 123.593 32.698 123.994 31.5958C124.244 30.9445 124.394 30.2431 124.495 29.5417C124.595 28.9404 124.645 28.2891 124.645 27.6879C124.445 27.5376 124.394 27.3873 124.394 27.237ZM119.184 30.2932C118.933 30.9445 118.583 31.5457 118.132 32.0968C117.781 32.5477 117.33 32.8984 116.879 33.1991C116.278 33.5999 115.627 33.8003 114.975 33.9506C114.474 34.0508 113.973 34.0508 113.522 34.0508C113.172 34.0508 112.821 33.9506 112.52 33.9005C111.969 33.7502 111.468 33.4997 110.967 33.1991C110.767 33.0989 110.617 32.9485 110.416 32.7982C109.965 32.3974 109.615 31.9465 109.264 31.4455C108.863 30.7942 108.612 30.0427 108.462 29.2411C108.312 28.5897 108.312 27.8883 108.362 27.237C108.462 25.9344 108.863 24.7319 109.665 23.7299C110.266 22.9784 111.017 22.4273 111.919 22.0766C112.37 21.9263 112.821 21.776 113.322 21.7259C113.823 21.6758 114.324 21.6758 114.825 21.776C115.376 21.8762 115.927 22.0265 116.428 22.3271C117.08 22.6778 117.631 23.1287 118.132 23.6798C118.482 24.0806 118.783 24.5315 118.983 25.0325C119.184 25.5336 119.334 26.0346 119.434 26.5857C119.535 27.0366 119.535 27.4374 119.535 27.8883C119.585 28.6899 119.434 29.4916 119.184 30.2932Z" fill="white"/>
</svg>
