<svg width="207" height="48" viewBox="0 0 207 48" fill="none" xmlns="http://www.w3.org/2000/svg">
<path fill-rule="evenodd" clip-rule="evenodd" d="M22.7365 6.48067L11.513 12.8648C11.3103 12.9787 11.1517 13.1556 11.0618 13.3678C10.972 13.5799 10.9561 13.8154 11.0165 14.0375C11.0769 14.2595 11.2102 14.4556 11.3957 14.5951C11.5812 14.7346 11.8083 14.8096 12.0416 14.8084H12.0425C12.2217 14.8084 12.4035 14.7636 12.5703 14.6692L23.2652 8.58538L33.9608 14.6692C34.203 14.7988 34.487 14.8301 34.7523 14.7564C35.0175 14.6827 35.2431 14.5099 35.381 14.2747C35.5188 14.0396 35.5581 13.7607 35.4903 13.4975C35.4225 13.2343 35.2531 13.0076 35.0182 12.8656L23.793 6.47986C23.6324 6.3881 23.45 6.33978 23.2643 6.33978C23.0787 6.33978 22.8963 6.3881 22.7357 6.47986" fill="white"/>
<path fill-rule="evenodd" clip-rule="evenodd" d="M37.2925 15.4986L25.0538 22.4419C24.8925 22.533 24.7586 22.6645 24.6655 22.823C24.5724 22.9814 24.5234 23.1613 24.5234 23.3445V37.288C24.5234 37.5643 24.6348 37.8293 24.8331 38.0246C25.0314 38.22 25.3004 38.3298 25.5808 38.3298C25.7633 38.3298 25.9459 38.2825 26.1095 38.1898L38.3482 31.227C38.5831 31.085 38.7525 30.8583 38.8203 30.5951C38.8881 30.3318 38.8488 30.053 38.711 29.8178C38.5731 29.5827 38.3476 29.4099 38.0823 29.3362C37.817 29.2625 37.533 29.2938 37.2908 29.4234L26.6381 35.4844V23.9468L38.3465 17.3046C38.5496 17.1909 38.7087 17.014 38.7988 16.8017C38.8889 16.5893 38.905 16.3535 38.8445 16.1312C38.7841 15.9089 38.6505 15.7126 38.4647 15.5731C38.279 15.4336 38.0515 15.3587 37.8179 15.3603C37.6394 15.3603 37.4585 15.4042 37.2925 15.4986" fill="white"/>
<path fill-rule="evenodd" clip-rule="evenodd" d="M8.24351 15.5002C7.91557 15.6857 7.71484 16.0292 7.71484 16.4011V30.3259C7.71484 30.6979 7.9164 31.0421 8.24351 31.2269L20.4822 38.1897C20.6432 38.2815 20.8259 38.3298 21.0119 38.3297C21.1978 38.3296 21.3805 38.281 21.5412 38.1889C21.8684 38.0017 22.0699 37.6558 22.0674 37.283L22.0344 30.321C22.0337 30.1387 21.9845 29.9597 21.8916 29.802C21.7986 29.6443 21.6653 29.5135 21.5049 29.4225L18.2478 27.575C18.0047 27.4372 17.716 27.4001 17.4452 27.472C17.1745 27.5439 16.9437 27.7188 16.8039 27.9583C16.664 28.1978 16.6264 28.4822 16.6993 28.749C16.7723 29.0158 16.9499 29.2432 17.1929 29.381L19.923 30.9298L19.9453 35.4794L9.8287 29.7236V18.2023L20.4831 24.247C20.6035 24.3189 20.7374 24.3665 20.8767 24.3867C21.0161 24.407 21.1581 24.3997 21.2946 24.3651C21.431 24.3305 21.559 24.2694 21.6711 24.1854C21.7833 24.1014 21.8773 23.9962 21.9475 23.8759C22.0178 23.7557 22.063 23.6228 22.0804 23.485C22.0979 23.3473 22.0872 23.2075 22.049 23.0739C22.0109 22.9403 21.946 22.8156 21.8582 22.707C21.7705 22.5985 21.6616 22.5083 21.5379 22.4418L9.2992 15.4985C9.13857 15.4075 8.95645 15.3597 8.77114 15.36C8.58583 15.3603 8.40385 15.4086 8.24351 15.5002" fill="white"/>
<path fill-rule="evenodd" clip-rule="evenodd" d="M187.759 25.8993L189.31 17.0872C189.388 16.585 189.465 16.0827 189.515 15.5551C189.592 16.1081 189.667 16.6598 189.77 17.2128L191.266 25.9006H187.759V25.8993ZM192.317 31.9998H193.643L190.381 14.1752H188.649L185.361 31.9998H186.687L187.556 27.0535H191.465L192.317 31.9998V31.9998ZM197.057 31.9998V14.2767H198.306V30.8976H204.242V32.0011L197.057 31.9998ZM92.108 31.9998V14.2767H93.3566V30.8976H99.2934V32.0011L92.108 31.9998ZM61.4046 15.3801V22.2086H66.5523V23.2892H61.4046V30.8964H66.5278V31.9998H60.1817V14.2767H66.5523V15.3801H61.4046ZM75.1138 31.9998L70.9341 15.7783L71.0371 31.9998H69.8386V14.2767H71.673L75.9801 30.8013L75.8011 14.2754H77.024V32.0011L75.1138 31.9998ZM85.0732 30.625H82.9325V23.7255H84.2069C85.404 23.7255 86.7543 23.8764 87.2383 25.1815C87.3658 25.5581 87.3928 25.9602 87.3928 26.3863V28.1594C87.3928 29.1702 87.3284 29.7575 87.0285 30.1823C86.2755 30.6922 85.3126 30.625 85.0719 30.625H85.0732ZM85.0732 15.6515C85.3126 15.6515 86.2755 15.583 87.0285 16.0941C87.3271 16.5177 87.3915 17.1062 87.3915 18.1158V19.9891C87.3915 20.4165 87.3658 20.8173 87.2383 21.1939C86.7543 22.5003 85.404 22.6499 84.2069 22.6499H82.9325V15.6515H85.0732V15.6515ZM88.6401 19.9637V17.5641C88.6401 16.6103 88.5371 15.7314 87.7481 15.0275C86.8058 14.2247 85.6074 14.2754 85.2508 14.2754H81.6581V32.0011H85.2508C85.6074 32.0011 86.8058 32.0518 87.7481 31.2477C88.5384 30.5438 88.6401 29.6661 88.6401 28.7111V26.4117C88.6401 25.4833 88.6144 24.4788 87.7996 23.8003C87.3555 23.4299 86.7672 23.2663 86.3475 23.1877C86.7672 23.1116 87.3555 22.9455 87.7996 22.5751C88.6144 21.8966 88.6401 20.8934 88.6401 19.9637V19.9637ZM107.345 19.2712C107.345 17.7898 107.268 16.9616 106.911 16.2831C106.743 15.9232 106.455 15.6309 106.095 15.4549C105.725 15.2669 105.314 15.1719 104.898 15.1784C104.185 15.1784 103.727 15.4295 103.522 15.5551C102.427 16.259 102.478 17.6643 102.478 17.9649V27.732C102.478 28.7365 102.53 29.2882 102.681 29.741C102.859 30.2178 103.496 31.1221 104.924 31.1221C105.434 31.1221 105.918 30.9953 106.326 30.6947C107.294 30.0162 107.345 28.9369 107.345 27.9083V19.2712V19.2712ZM108.007 30.6947C107.624 31.3479 106.681 32.2268 104.847 32.2268C104.491 32.2268 102.936 32.2015 102.044 31.1475C101.331 30.2673 101.254 29.2641 101.254 28.2089V18.216C101.254 18.0169 101.254 17.0111 101.534 16.2083C102.044 14.7269 103.446 14.0496 104.974 14.0737C105.79 14.0737 106.605 14.25 107.268 14.7269C108.542 15.6807 108.542 17.2128 108.542 18.5939V28.3852C108.542 29.2134 108.465 29.9667 108.007 30.6947V30.6947ZM119.524 30.2927C119.193 31.2223 118.301 32.2763 116.084 32.2763C113.943 32.2763 113.076 30.871 112.822 30.1176C112.643 29.59 112.567 29.0878 112.567 27.9831V18.3682C112.567 17.2876 112.542 16.3338 113.23 15.4308C113.944 14.4504 114.987 14.0991 116.134 14.0991C117.486 14.0991 118.785 14.6267 119.295 15.9331C119.549 16.5596 119.549 17.3383 119.549 17.5146V20.0005H118.327V18.8197C118.327 17.488 118.301 16.76 117.994 16.1829C117.838 15.9098 117.609 15.6839 117.332 15.5297C116.978 15.3222 116.572 15.218 116.16 15.2292C115.931 15.2292 115.396 15.2545 114.86 15.5805C113.714 16.259 113.792 17.715 113.792 18.0156V26.7541C113.792 27.7079 113.714 29.2146 114.249 30.0923C114.428 30.4182 114.682 30.6453 114.987 30.8203C115.523 31.0968 116.058 31.1221 116.288 31.1221C116.848 31.1221 117.205 30.9699 117.409 30.871C118.53 30.2927 118.478 29.0624 118.478 28.7365V25.8993H119.753V28.6363C119.753 29.5152 119.676 29.8665 119.524 30.2927V30.2927ZM129.384 31.9998L126.098 22.8123L124.772 25.2728V31.9998H123.549V14.2767H124.798V22.9645L129.282 14.2767H130.684L126.861 21.3309L130.736 32.0011L129.384 31.9998ZM146.685 30.2927C146.352 31.2223 145.46 32.2763 143.244 32.2763C141.103 32.2763 140.237 30.871 139.982 30.1176C139.804 29.59 139.727 29.0878 139.727 27.9831V18.3682C139.727 17.2876 139.701 16.3338 140.39 15.4308C141.103 14.4504 142.148 14.0991 143.295 14.0991C144.646 14.0991 145.944 14.6267 146.454 15.9331C146.709 16.5596 146.709 17.3383 146.709 17.5146V20.0005H145.486V18.8197C145.486 17.488 145.46 16.76 145.154 16.1829C144.998 15.9099 144.769 15.6841 144.492 15.5297C144.139 15.3222 143.732 15.218 143.321 15.2292C143.091 15.2292 142.556 15.2545 142.021 15.5805C140.875 16.259 140.951 17.715 140.951 18.0156V26.7541C140.951 27.7079 140.874 29.2146 141.408 30.0923C141.588 30.4182 141.842 30.6453 142.148 30.8203C142.683 31.0968 143.219 31.1221 143.448 31.1221C144.008 31.1221 144.365 30.9699 144.568 30.871C145.691 30.2927 145.639 29.0624 145.639 28.7365V25.8993H146.914V28.6363C146.914 29.5152 146.836 29.8665 146.685 30.2927V30.2927ZM167.323 18.6941C167.323 17.1126 167.297 16.259 166.583 15.7314C166.125 15.3801 165.718 15.3053 164.673 15.3053H162.761V22.8871H164.8C165.487 22.8871 166.202 22.811 166.737 22.2593C167.425 21.5808 167.323 20.3759 167.323 20.225V18.6941ZM167.833 22.7869C166.915 23.865 165.411 23.9157 164.621 23.9157H162.787V31.9998H161.538V14.2767H164.342C165.436 14.2767 166.659 14.2259 167.577 14.9793C168.546 15.758 168.546 16.9122 168.546 18.2185V20.225C168.546 21.1787 168.52 21.9828 167.833 22.7869V22.7869ZM172.366 31.9998H173.667V14.2767H172.366V31.9998ZM181.005 15.3801V32.0011H179.731V15.3801H176.596V14.2754H184.191V15.3788L181.005 15.3801ZM55.043 28.1848C55.043 28.7365 55.0173 29.5393 54.7882 30.0682C54.559 30.5692 53.9811 31.197 52.6809 31.197C52.6037 31.197 52.5136 31.1995 52.3862 31.1919C51.2624 31.1424 50.7012 30.3307 50.5287 29.9667C50.2583 29.4353 50.194 28.8151 50.1773 27.8182L50.1721 18.6941C50.1721 17.5894 50.0691 16.4099 51.0384 15.6058C51.6499 15.129 52.363 15.129 52.6179 15.129C53.918 15.129 54.4779 15.7568 54.7071 16.2577C54.9362 16.7854 54.9619 17.5894 54.9619 18.1412V19.9738H56.1591V17.5133C56.1591 17.4132 56.1591 16.6852 56.0329 16.2083C55.7523 15.3053 54.9362 14.0737 52.6938 14.0737C51.4967 14.0737 50.8595 14.3249 50.4012 14.6267C50.1812 14.754 49.983 14.915 49.8142 15.1036C49.0252 15.8823 48.9492 17.0872 48.9492 18.1158L48.9544 28.2089C48.9544 28.6401 48.9853 29.0675 49.0728 29.4911C49.1745 30.0492 49.347 30.4677 49.6366 30.8951C49.6829 30.9661 49.7602 31.079 49.8786 31.2223C49.9649 31.3149 50.0421 31.3872 50.1155 31.4506C50.7115 31.9833 51.516 32.2509 52.3372 32.2509C52.3372 32.2509 52.3797 32.2509 52.3372 32.2509C52.3372 32.2509 52.6758 32.2535 52.7582 32.2509C55.0405 32.2129 55.89 31.0207 56.1707 30.1176C56.2994 29.6408 56.2994 28.9128 56.2994 28.8113L56.2865 23.9157H52.3887V24.995H55.0392L55.043 28.1848V28.1848ZM152.242 25.8993L153.793 17.0872C153.87 16.585 153.945 16.0827 153.996 15.5551C154.073 16.1081 154.149 16.6598 154.251 17.2128L155.748 25.9006H152.242V25.8993ZM156.798 31.9998H158.124L154.864 14.1752H153.131L149.843 31.9998H151.168L152.038 27.0535H155.948L156.798 31.9998V31.9998Z" fill="white"/>
</svg>
