<svg width="48" height="48" viewBox="0 0 48 48" fill="none" xmlns="http://www.w3.org/2000/svg">
<g clip-path="url(#clip0_5120_14614)">
<g clip-path="url(#clip1_5120_14614)">
<path fill-rule="evenodd" clip-rule="evenodd" d="M25.7351 20.0293L10.6302 38.8333L11.4933 39.5231L27.1344 20.8383L25.7351 20.0293Z" fill="url(#paint0_linear_5120_14614)"/>
<path style="mix-blend-mode:multiply" opacity="0.71" fill-rule="evenodd" clip-rule="evenodd" d="M15.7655 32.4428L16.8844 33.0851L17.5955 32.2345L16.6004 31.4038L15.7655 32.4428Z" fill="url(#paint1_linear_5120_14614)"/>
<path fill-rule="evenodd" clip-rule="evenodd" d="M32.1858 23.4265C29.9681 26.2291 27.2038 29.2535 23.7632 32.3563C23.7589 32.3617 23.7568 32.3644 23.7524 32.3698L14.4243 24.9141C14.4243 24.9141 17.4388 20.2243 21.7362 15.2426C25.7534 10.5893 30.8956 5.68599 35.7532 4.12697C35.7532 4.12697 41.083 2.2778 40.6488 8.33594C40.6488 8.33594 39.0127 14.8127 32.1858 23.4265Z" fill="url(#paint2_linear_5120_14614)"/>
<path fill-rule="evenodd" clip-rule="evenodd" d="M17.8762 27.6733L14.7768 25.1961C14.7768 25.1961 17.4385 20.2242 21.7359 15.2425C21.8926 15.297 22.3698 15.6961 22.4651 15.8828C23.7944 18.488 17.8762 27.6733 17.8762 27.6733Z" fill="url(#paint3_linear_5120_14614)"/>
<path fill-rule="evenodd" clip-rule="evenodd" d="M17.526 27.3914L14.4266 24.9141C14.4266 24.9141 17.4411 20.2243 21.7385 15.2426C21.8952 15.297 22.0195 15.4141 22.1122 15.5987C23.4415 18.2038 17.5233 27.3892 17.5233 27.3892L17.526 27.3914Z" fill="url(#paint4_linear_5120_14614)"/>
<path fill-rule="evenodd" clip-rule="evenodd" d="M38.4823 26.0228L39.1853 26.5846C39.1853 26.5846 30.3797 39.8055 19.9474 46.2803L19.4344 45.8703L38.485 26.0249L38.4823 26.0228Z" fill="url(#paint5_linear_5120_14614)"/>
<path fill-rule="evenodd" clip-rule="evenodd" d="M17.9865 9.64081L17.2863 9.08115C17.2863 9.08115 6.33118 20.5841 2.31487 32.1869L2.82782 32.5968L17.9865 9.64081Z" fill="url(#paint6_linear_5120_14614)"/>
<path fill-rule="evenodd" clip-rule="evenodd" d="M32.4008 23.1518C30.1831 25.9544 26.7587 28.8977 23.3181 32.0004L20.7146 29.871C20.7146 29.871 29.8822 21.1388 32.4008 23.1518C32.4117 23.1605 32.3927 23.1453 32.4008 23.1518Z" fill="url(#paint7_linear_5120_14614)"/>
<path fill-rule="evenodd" clip-rule="evenodd" d="M32.1867 23.4264C29.969 26.229 27.2047 29.2535 23.7641 32.3562L21.1607 30.2267C21.1607 30.2267 30.1208 21.7708 32.1563 23.3977C32.1672 23.4064 32.178 23.4151 32.1889 23.4237L32.1867 23.4264Z" fill="url(#paint8_linear_5120_14614)"/>
<path fill-rule="evenodd" clip-rule="evenodd" d="M19.4294 45.8708L18.9924 45.5215C18.9924 45.5215 28.0876 35.728 28.2849 32.8489C28.3918 31.3518 26.735 30.4475 25.1265 29.9223C23.6412 29.4379 22.191 29.2823 22.191 29.2823C22.191 29.2823 26.1384 25.4398 28.6979 24.263C28.6979 24.263 29.3557 24.5809 30.4263 24.8885C32.0199 25.3488 34.5347 25.7807 37.1463 25.1009L38.4773 26.0232C38.4773 26.0232 30.8839 38.3564 19.4294 45.8708Z" fill="url(#paint9_linear_5120_14614)"/>
<path fill-rule="evenodd" clip-rule="evenodd" d="M17.0412 23.4159C16.226 22.0262 15.042 20.7085 13.6312 21.1325C10.8663 21.9595 3.31819 32.9895 3.31819 32.9895L2.7211 32.5122C7.52618 19.6833 18.0405 9.68905 18.0405 9.68905L19.2335 10.7841C19.1433 13.4791 20.1073 15.8233 20.8967 17.2676C21.4224 18.2403 21.8721 18.8075 21.8721 18.8075C21.1761 21.0361 18.2762 26.1446 18.2762 26.1446C18.2762 26.1446 17.8247 24.745 17.0363 23.4164L17.0412 23.4159Z" fill="url(#paint10_linear_5120_14614)"/>
<path fill-rule="evenodd" clip-rule="evenodd" d="M30.5334 6.89537L38.6322 13.3683C38.6322 13.3683 43.1901 5.30601 40.6308 3.26044C38.0715 1.21486 30.5334 6.89537 30.5334 6.89537Z" fill="url(#paint11_radial_5120_14614)"/>
<path style="mix-blend-mode:screen" opacity="0.5" fill-rule="evenodd" clip-rule="evenodd" d="M30.5352 6.89539C30.5352 6.89539 33.5046 10.4534 38.6339 13.3683L30.5352 6.89539Z" fill="url(#paint12_linear_5120_14614)"/>
<path fill-rule="evenodd" clip-rule="evenodd" d="M39.1641 12.3599C39.1641 12.3599 39.6154 13.114 39.3532 13.6869C39.0911 14.2598 38.1311 14.359 38.1311 14.359L39.1641 12.3599Z" fill="url(#paint13_radial_5120_14614)"/>
<path fill-rule="evenodd" clip-rule="evenodd" d="M31.504 6.23622C31.504 6.23622 30.5821 5.89277 30.0783 6.27258C29.5773 6.65456 29.6573 7.54509 29.6573 7.54509L31.5013 6.23405L31.504 6.23622Z" fill="url(#paint14_radial_5120_14614)"/>
<path fill-rule="evenodd" clip-rule="evenodd" d="M30.5336 6.89539C30.5336 6.89539 34.7205 10.7723 38.6323 13.3683C38.6323 13.3683 33.8786 9.47166 30.5336 6.89539Z" fill="url(#paint15_linear_5120_14614)"/>
<path style="mix-blend-mode:screen" opacity="0.5" d="M33.6548 11.6663C34.2888 12.1731 35.2796 11.9873 35.8678 11.2514C36.456 10.5155 36.4188 9.50809 35.7848 9.00132C35.1507 8.49456 34.1599 8.68031 33.5717 9.41623C32.9835 10.1521 33.0207 11.1595 33.6548 11.6663Z" fill="url(#paint16_linear_5120_14614)"/>
<path d="M33.811 11.4748C34.3536 11.9085 35.2017 11.7492 35.7054 11.1191C36.209 10.4889 36.1774 9.62654 35.6348 9.19285C35.0922 8.75916 34.2441 8.91843 33.7404 9.54857C33.2368 10.1787 33.2684 11.0411 33.811 11.4748Z" fill="url(#paint17_linear_5120_14614)"/>
<path fill-rule="evenodd" clip-rule="evenodd" d="M35.5106 10.9651C35.1053 11.4722 34.4248 11.6002 33.9879 11.251C33.5509 10.9017 33.5258 10.2097 33.9311 9.70262C34.3364 9.19552 35.0169 9.06752 35.4539 9.41677C35.8908 9.76601 35.9159 10.458 35.5106 10.9651Z" fill="url(#paint18_radial_5120_14614)"/>
<path style="mix-blend-mode:screen" fill-rule="evenodd" clip-rule="evenodd" d="M37.6288 7.55247C35.8177 8.35492 33.9373 8.0809 33.4278 6.94873C32.9177 5.81168 33.9727 4.24132 35.7817 3.44158C37.5928 2.63914 39.4732 2.91315 39.9827 4.04532C40.4927 5.18237 39.4378 6.75273 37.6288 7.55247Z" fill="url(#paint19_radial_5120_14614)"/>
<path fill-rule="evenodd" clip-rule="evenodd" d="M37.046 4.26754C36.8024 3.47606 34.6671 5.08475 34.9126 5.61243C35.158 6.14011 37.3406 5.22348 37.046 4.26754Z" fill="white"/>
<path style="mix-blend-mode:screen" opacity="0.2" fill-rule="evenodd" clip-rule="evenodd" d="M22.3565 14.5349C22.3565 14.5349 29.5561 7.43021 30.8877 8.52989C32.2194 9.62957 17.8751 27.6712 17.8751 27.6712C17.8751 27.6712 21.0645 23.3024 22.0241 19.6754C22.9837 16.0485 22.5503 15.6446 22.5503 15.6446L21.7375 15.2425L22.3565 14.5349Z" fill="url(#paint20_linear_5120_14614)"/>
<path fill-rule="evenodd" clip-rule="evenodd" d="M27.6052 10.2189C27.4585 9.90716 25.4521 12.1449 25.6213 12.395C25.7905 12.6452 27.9313 10.9128 27.6052 10.2189Z" fill="white"/>
<path style="mix-blend-mode:screen" opacity="0.2" fill-rule="evenodd" clip-rule="evenodd" d="M32.4041 23.1519C32.4041 23.1519 38.0543 15.0697 37.9436 13.8893C37.8329 12.709 29.7272 23.2624 29.7272 23.2624C29.7272 23.2624 31.3179 22.4296 32.4041 23.1519Z" fill="url(#paint21_linear_5120_14614)"/>
<path style="mix-blend-mode:screen" opacity="0.2" fill-rule="evenodd" clip-rule="evenodd" d="M37.741 14.6158C37.741 14.6158 33.9906 20.6493 32.0458 22.8655L32.4014 23.1497C32.4014 23.1497 36.4839 17.8414 37.7383 14.6136L37.741 14.6158Z" fill="url(#paint22_linear_5120_14614)"/>
<path style="mix-blend-mode:screen" opacity="0.2" fill-rule="evenodd" clip-rule="evenodd" d="M22.4155 28.339C22.4155 28.339 26.94 24.3698 29.4099 23.3999C29.4099 23.3999 26.1728 24.3003 22.4155 28.339Z" fill="url(#paint23_linear_5120_14614)"/>
<path fill-rule="evenodd" clip-rule="evenodd" d="M14.4267 24.9141C14.4267 24.9141 13.632 29.1194 16.9703 31.7875C20.3086 34.4556 23.763 32.3541 23.763 32.3541L14.4267 24.9141Z" fill="url(#paint24_radial_5120_14614)"/>
<path style="mix-blend-mode:multiply" opacity="0.71" fill-rule="evenodd" clip-rule="evenodd" d="M25.1294 29.9196C23.644 29.4353 22.1939 29.2796 22.1939 29.2796C22.1939 29.2796 26.1413 25.4371 28.7008 24.2603C28.7008 24.2603 29.3585 24.5782 30.4292 24.8859C30.4292 24.8859 27.2371 25.9637 25.1294 29.9196Z" fill="url(#paint25_linear_5120_14614)"/>
<path style="mix-blend-mode:multiply" opacity="0.71" fill-rule="evenodd" clip-rule="evenodd" d="M17.0427 23.4131C18.9164 21.7589 20.8906 17.2632 20.8906 17.2632L20.8961 17.2675C21.4218 18.2403 21.8736 18.8047 21.8736 18.8047C21.1776 21.0333 18.2777 26.1419 18.2777 26.1419C18.2777 26.1419 17.8262 24.7423 17.0378 23.4137L17.0427 23.4131Z" fill="url(#paint26_linear_5120_14614)"/>
<g style="mix-blend-mode:screen" opacity="0.5">
<path fill-rule="evenodd" clip-rule="evenodd" d="M13.2356 13.7921L13.811 14.252C13.811 14.252 10.1295 18.9082 8.94275 20.7269L8.44608 20.3299C8.44608 20.3299 11.1214 16.3371 13.2356 13.7921Z" fill="white"/>
</g>
<g style="mix-blend-mode:screen" opacity="0.5">
<path fill-rule="evenodd" clip-rule="evenodd" d="M8.03516 20.9559L8.5264 21.3486L7.92121 22.2838L7.40012 21.8673L8.03516 20.9559Z" fill="white"/>
</g>
<path style="mix-blend-mode:screen" opacity="0.64" fill-rule="evenodd" clip-rule="evenodd" d="M41.1016 4.70496C41.1016 4.70496 41.432 8.20924 38.7072 12.9317C38.7072 12.9317 38.904 8.80119 41.1016 4.70496Z" fill="url(#paint27_linear_5120_14614)"/>
<path style="mix-blend-mode:multiply" opacity="0.71" fill-rule="evenodd" clip-rule="evenodd" d="M25.4191 41.2696L25.9809 41.7186C25.9809 41.7186 22.6292 44.6935 19.9439 46.278L19.4309 45.8681C19.4309 45.8681 23.3741 43.1493 25.4191 41.2696Z" fill="url(#paint28_linear_5120_14614)"/>
<path style="mix-blend-mode:screen" opacity="0.64" fill-rule="evenodd" clip-rule="evenodd" d="M14.5057 25.6273C14.5057 25.6273 14.0861 29.2129 16.7742 31.5426C18.8412 33.3361 21.3284 32.8398 21.3284 32.8398C21.3284 32.8398 20.0013 32.8975 17.4401 30.32C14.8768 27.7452 14.5105 25.6268 14.5105 25.6268L14.5057 25.6273Z" fill="url(#paint29_linear_5120_14614)"/>
</g>
</g>
<defs>
<linearGradient id="paint0_linear_5120_14614" x1="11.2788" y1="39.3518" x2="26.4885" y2="20.322" gradientUnits="userSpaceOnUse">
<stop stop-color="#DD7500"/>
<stop offset="0.28" stop-color="#DD7303"/>
<stop offset="0.51" stop-color="#DE700D"/>
<stop offset="0.73" stop-color="#E06A1F"/>
<stop offset="0.93" stop-color="#E36138"/>
<stop offset="1" stop-color="#E55E42"/>
</linearGradient>
<linearGradient id="paint1_linear_5120_14614" x1="16.273" y1="32.8484" x2="17.1052" y2="31.8073" gradientUnits="userSpaceOnUse">
<stop stop-color="#CC87CF"/>
<stop offset="0.09" stop-color="#C680CA"/>
<stop offset="0.69" stop-color="#A659AE"/>
<stop offset="1" stop-color="#9A4BA4"/>
</linearGradient>
<linearGradient id="paint2_linear_5120_14614" x1="19.3285" y1="28.8339" x2="39.0634" y2="4.14246" gradientUnits="userSpaceOnUse">
<stop stop-color="#860057"/>
<stop offset="0.03" stop-color="#8B0555"/>
<stop offset="0.19" stop-color="#A9214A"/>
<stop offset="0.36" stop-color="#C03742"/>
<stop offset="0.54" stop-color="#D1473C"/>
<stop offset="0.74" stop-color="#DA5139"/>
<stop offset="0.99" stop-color="#DE5438"/>
</linearGradient>
<linearGradient id="paint3_linear_5120_14614" x1="16.009" y1="26.1809" x2="23.5955" y2="16.689" gradientUnits="userSpaceOnUse">
<stop stop-color="#892243"/>
<stop offset="0.42" stop-color="#911E45"/>
<stop offset="0.99" stop-color="#951D47"/>
</linearGradient>
<linearGradient id="paint4_linear_5120_14614" x1="15.8243" y1="26.0313" x2="23.4108" y2="16.5393" gradientUnits="userSpaceOnUse">
<stop stop-color="#590043"/>
<stop offset="0.06" stop-color="#5B0043"/>
<stop offset="0.47" stop-color="#640046"/>
<stop offset="0.99" stop-color="#680047"/>
</linearGradient>
<linearGradient id="paint5_linear_5120_14614" x1="49.8869" y1="10.6576" x2="37.9477" y2="25.5954" gradientUnits="userSpaceOnUse">
<stop stop-color="#DD7500"/>
<stop offset="0.28" stop-color="#DD7303"/>
<stop offset="0.51" stop-color="#DE700D"/>
<stop offset="0.73" stop-color="#E06A1F"/>
<stop offset="0.93" stop-color="#E36138"/>
<stop offset="1" stop-color="#E55E42"/>
</linearGradient>
<linearGradient id="paint6_linear_5120_14614" x1="1.41652" y1="31.4688" x2="18.5212" y2="10.0681" gradientUnits="userSpaceOnUse">
<stop stop-color="#DD7500"/>
<stop offset="0.28" stop-color="#DD7303"/>
<stop offset="0.51" stop-color="#DE700D"/>
<stop offset="0.73" stop-color="#E06A1F"/>
<stop offset="0.93" stop-color="#E36138"/>
<stop offset="1" stop-color="#E55E42"/>
</linearGradient>
<linearGradient id="paint7_linear_5120_14614" x1="22.6206" y1="31.443" x2="30.4766" y2="21.6138" gradientUnits="userSpaceOnUse">
<stop stop-color="#892243"/>
<stop offset="0.42" stop-color="#911E45"/>
<stop offset="0.99" stop-color="#951D47"/>
</linearGradient>
<linearGradient id="paint8_linear_5120_14614" x1="22.8414" y1="31.6187" x2="30.4818" y2="22.0593" gradientUnits="userSpaceOnUse">
<stop stop-color="#590043"/>
<stop offset="0.06" stop-color="#5B0043"/>
<stop offset="0.47" stop-color="#640046"/>
<stop offset="0.99" stop-color="#680047"/>
</linearGradient>
<linearGradient id="paint9_linear_5120_14614" x1="17.3423" y1="44.2026" x2="34.447" y2="22.8019" gradientUnits="userSpaceOnUse">
<stop stop-color="#FFCC00"/>
<stop offset="0.22" stop-color="#FEC802"/>
<stop offset="0.41" stop-color="#FBBE08"/>
<stop offset="0.58" stop-color="#F7AC12"/>
<stop offset="0.75" stop-color="#F19321"/>
<stop offset="0.91" stop-color="#EA7434"/>
<stop offset="1" stop-color="#E55E42"/>
</linearGradient>
<linearGradient id="paint10_linear_5120_14614" x1="33.8901" y1="-2.12784" x2="33.8901" y2="-2.12784" gradientUnits="userSpaceOnUse">
<stop stop-color="#FFCC00"/>
<stop offset="0.22" stop-color="#FEC802"/>
<stop offset="0.41" stop-color="#FBBE08"/>
<stop offset="0.58" stop-color="#F7AC12"/>
<stop offset="0.75" stop-color="#F19321"/>
<stop offset="0.91" stop-color="#EA7434"/>
<stop offset="1" stop-color="#E55E42"/>
</linearGradient>
<radialGradient id="paint11_radial_5120_14614" cx="0" cy="0" r="1" gradientUnits="userSpaceOnUse" gradientTransform="translate(37.2583 4.61405) rotate(38.6338) scale(10.3294 10.2659)">
<stop stop-color="#FFD5BD"/>
<stop offset="0.1" stop-color="#F8D0BF"/>
<stop offset="0.25" stop-color="#E4C2C6"/>
<stop offset="0.43" stop-color="#C5ABD1"/>
<stop offset="0.63" stop-color="#998CE1"/>
<stop offset="0.75" stop-color="#7A75ED"/>
<stop offset="0.97" stop-color="#7A82ED"/>
</radialGradient>
<linearGradient id="paint12_linear_5120_14614" x1="30.408" y1="7.05453" x2="38.5067" y2="13.5275" gradientUnits="userSpaceOnUse">
<stop stop-color="white"/>
<stop offset="1"/>
</linearGradient>
<radialGradient id="paint13_radial_5120_14614" cx="0" cy="0" r="1" gradientUnits="userSpaceOnUse" gradientTransform="translate(38.865 13.5354) rotate(38.6338) scale(0.861655 0.856351)">
<stop stop-color="#60DBFF"/>
<stop offset="0.18" stop-color="#56D4FF"/>
<stop offset="0.48" stop-color="#3CC3FF"/>
<stop offset="0.86" stop-color="#11A8FF"/>
<stop offset="1" stop-color="#009DFF"/>
</radialGradient>
<radialGradient id="paint14_radial_5120_14614" cx="0" cy="0" r="1" gradientUnits="userSpaceOnUse" gradientTransform="translate(30.3879 6.73664) rotate(-141.366) scale(0.868604 0.863258)">
<stop stop-color="#60DBFF"/>
<stop offset="0.18" stop-color="#56D4FF"/>
<stop offset="0.48" stop-color="#3CC3FF"/>
<stop offset="0.86" stop-color="#11A8FF"/>
<stop offset="1" stop-color="#009DFF"/>
</radialGradient>
<linearGradient id="paint15_linear_5120_14614" x1="34.4687" y1="10.2748" x2="34.6045" y2="10.1049" gradientUnits="userSpaceOnUse">
<stop stop-color="#590043"/>
<stop offset="0.06" stop-color="#5B0043"/>
<stop offset="0.47" stop-color="#640046"/>
<stop offset="0.99" stop-color="#680047"/>
</linearGradient>
<linearGradient id="paint16_linear_5120_14614" x1="33.6548" y1="11.6663" x2="35.7826" y2="9.00402" gradientUnits="userSpaceOnUse">
<stop stop-color="white"/>
<stop offset="1"/>
</linearGradient>
<linearGradient id="paint17_linear_5120_14614" x1="33.811" y1="11.4748" x2="35.6327" y2="9.19555" gradientUnits="userSpaceOnUse">
<stop stop-color="#597EE7"/>
<stop offset="0.11" stop-color="#5C5DBE"/>
<stop offset="0.23" stop-color="#604199"/>
<stop offset="0.36" stop-color="#63297B"/>
<stop offset="0.49" stop-color="#651764"/>
<stop offset="0.63" stop-color="#660A53"/>
<stop offset="0.79" stop-color="#67024A"/>
<stop offset="0.99" stop-color="#680047"/>
</linearGradient>
<radialGradient id="paint18_radial_5120_14614" cx="0" cy="0" r="1" gradientUnits="userSpaceOnUse" gradientTransform="translate(34.764 10.3683) rotate(38.6338) scale(1.01592 1.17403)">
<stop stop-color="#60DBFF"/>
<stop offset="0.18" stop-color="#56D4FF"/>
<stop offset="0.48" stop-color="#3CC3FF"/>
<stop offset="0.86" stop-color="#11A8FF"/>
<stop offset="1" stop-color="#009DFF"/>
</radialGradient>
<radialGradient id="paint19_radial_5120_14614" cx="0" cy="0" r="1" gradientUnits="userSpaceOnUse" gradientTransform="translate(36.7514 5.558) rotate(65.8397) scale(2.2637 3.58724)">
<stop stop-color="#F4FF09"/>
<stop offset="0.07" stop-color="#DEE808"/>
<stop offset="0.27" stop-color="#9BA205"/>
<stop offset="0.46" stop-color="#646803"/>
<stop offset="0.63" stop-color="#393B02"/>
<stop offset="0.78" stop-color="#191B00"/>
<stop offset="0.91" stop-color="#060700"/>
<stop offset="1"/>
</radialGradient>
<linearGradient id="paint20_linear_5120_14614" x1="16.0241" y1="26.1918" x2="30.4318" y2="8.16546" gradientUnits="userSpaceOnUse">
<stop stop-color="#623964"/>
<stop offset="1" stop-color="white"/>
</linearGradient>
<linearGradient id="paint21_linear_5120_14614" x1="30.5012" y1="23.8855" x2="38.3012" y2="14.1265" gradientUnits="userSpaceOnUse">
<stop stop-color="#623964"/>
<stop offset="1" stop-color="#FFC209"/>
</linearGradient>
<linearGradient id="paint22_linear_5120_14614" x1="31.9508" y1="22.7896" x2="38.1942" y2="14.9781" gradientUnits="userSpaceOnUse">
<stop stop-color="#623964"/>
<stop offset="1" stop-color="white"/>
</linearGradient>
<linearGradient id="paint23_linear_5120_14614" x1="23.3464" y1="29.083" x2="28.4817" y2="22.658" gradientUnits="userSpaceOnUse">
<stop stop-color="#623964"/>
<stop offset="1" stop-color="#FFC209"/>
</linearGradient>
<radialGradient id="paint24_radial_5120_14614" cx="0" cy="0" r="1" gradientUnits="userSpaceOnUse" gradientTransform="translate(14.7259 27.6729) rotate(38.6338) scale(9.21068 9.15398)">
<stop stop-color="#B1B5BD"/>
<stop offset="0.14" stop-color="#ABAEBD"/>
<stop offset="0.34" stop-color="#9B9ABE"/>
<stop offset="0.57" stop-color="#807BC0"/>
<stop offset="0.75" stop-color="#685EC2"/>
<stop offset="0.97" stop-color="#7A75D8"/>
</radialGradient>
<linearGradient id="paint25_linear_5120_14614" x1="23.635" y1="30.4315" x2="28.988" y2="23.734" gradientUnits="userSpaceOnUse">
<stop stop-color="#CC87CF"/>
<stop offset="0.09" stop-color="#C680CA"/>
<stop offset="0.69" stop-color="#A659AE"/>
<stop offset="1" stop-color="#9A4BA4"/>
</linearGradient>
<linearGradient id="paint26_linear_5120_14614" x1="16.9125" y1="25.0507" x2="22.2634" y2="18.3559" gradientUnits="userSpaceOnUse">
<stop stop-color="#CC87CF"/>
<stop offset="0.09" stop-color="#C680CA"/>
<stop offset="0.69" stop-color="#A659AE"/>
<stop offset="1" stop-color="#9A4BA4"/>
</linearGradient>
<linearGradient id="paint27_linear_5120_14614" x1="38.6266" y1="7.8015" x2="41.1778" y2="9.84057" gradientUnits="userSpaceOnUse">
<stop stop-color="#623964"/>
<stop offset="1" stop-color="#FFC209"/>
</linearGradient>
<linearGradient id="paint28_linear_5120_14614" x1="21.7183" y1="43.0062" x2="23.6914" y2="44.5832" gradientUnits="userSpaceOnUse">
<stop stop-color="#CC87CF"/>
<stop offset="0.09" stop-color="#C680CA"/>
<stop offset="0.69" stop-color="#A659AE"/>
<stop offset="1" stop-color="#9A4BA4"/>
</linearGradient>
<linearGradient id="paint29_linear_5120_14614" x1="16.3405" y1="31.2004" x2="18.3433" y2="28.6946" gradientUnits="userSpaceOnUse">
<stop stop-color="#623964"/>
<stop offset="1" stop-color="#FFC209"/>
</linearGradient>
<clipPath id="clip0_5120_14614">
<rect width="48" height="48" fill="white"/>
</clipPath>
<clipPath id="clip1_5120_14614">
<rect width="28.4833" height="46.5227" fill="white" transform="translate(29.0469 -6) rotate(38.6338)"/>
</clipPath>
</defs>
</svg>
