<svg width="207" height="48" viewBox="0 0 207 48" fill="none" xmlns="http://www.w3.org/2000/svg">
<g clip-path="url(#clip0_5101_14689)">
<path d="M92.2139 15.3696C92.8464 15.5147 93.4955 15.6061 94.1114 15.8049C96.5097 16.5552 97.8564 18.2355 98.5797 20.5587C97.9744 20.5587 97.4085 20.5979 96.8577 20.534C96.6898 20.5152 96.5021 20.2438 96.4129 20.0421C95.2023 17.3939 92.1761 16.2171 89.4373 17.3721C88.1658 17.9024 87.1495 18.8729 86.591 20.09C85.1868 23.0575 85.3018 25.9887 87.1146 28.7573C88.1738 30.3753 89.8261 31.1458 91.828 31.008C93.8738 30.8629 95.2583 29.7499 96.1344 28.0231C96.3469 27.5487 96.5342 27.0644 96.6958 26.572H98.5116C98.2821 28.0238 97.6158 29.3799 96.5944 30.474C95.5208 31.6455 94.0254 32.385 92.4076 32.5447C92.3039 32.5652 92.2025 32.5953 92.1049 32.6346H90.678C90.5807 32.5939 90.4793 32.5628 90.3754 32.5418C88.2116 32.2965 86.4745 31.3374 85.3503 29.5453C83.6359 26.81 83.4059 23.8454 84.2911 20.8286C85.0386 18.2877 86.6803 16.4463 89.41 15.6584C89.8231 15.5379 90.2513 15.4668 90.672 15.3682L92.2139 15.3696Z" fill="white" stroke="white" stroke-miterlimit="10"/>
<path d="M182.297 32.0905H171.945V15.9109H173.725V30.5117H182.297V32.0905Z" fill="white" stroke="white" stroke-miterlimit="10"/>
<path d="M115.507 32.1195C114.901 32.1195 114.37 32.1471 113.842 32.1036C113.749 32.0789 113.662 32.0342 113.589 31.9729C113.516 31.9115 113.459 31.8352 113.421 31.7495C112.883 30.3739 112.362 28.9924 111.863 27.6038C111.742 27.2671 111.584 27.151 111.206 27.1539C109.123 27.1742 107.038 27.1742 104.952 27.1539C104.579 27.1539 104.408 27.2555 104.284 27.5892C103.74 29.0926 103.167 30.5857 102.599 32.0876H100.617C101.02 31.0327 101.403 30.0169 101.791 29.0041C103.392 24.8356 104.992 20.6666 106.591 16.4971C106.753 16.0734 106.925 15.8253 107.466 15.8891C108.094 15.9646 108.883 15.7353 109.325 16.0255C109.743 16.2998 109.802 17.0776 110.014 17.6348C111.777 22.2686 113.539 26.9024 115.301 31.5362C115.366 31.7031 115.419 31.8671 115.507 32.1195ZM108.071 17.5506L105.084 25.5722H111.046C110.055 22.9022 109.08 20.2772 108.071 17.5506Z" fill="white" stroke="white" stroke-miterlimit="10"/>
<path d="M155.944 32.092H153.977C154.045 31.8917 154.096 31.7176 154.161 31.5478C156.104 26.4922 158.044 21.4361 159.981 16.3796C160.124 16.0067 160.298 15.8586 160.718 15.8906C161.247 15.9181 161.778 15.9181 162.308 15.8906C162.576 15.8819 162.727 15.937 162.831 16.2127C164.808 21.4366 166.791 26.6605 168.783 31.8844C168.796 31.9538 168.802 32.0243 168.799 32.0949C168.229 32.0949 167.669 32.1195 167.114 32.0774C166.984 32.0687 166.811 31.8598 166.758 31.7103C166.236 30.3666 165.72 29.02 165.236 27.6632C165.1 27.2816 164.941 27.1191 164.479 27.1263C162.432 27.1583 160.383 27.1539 158.336 27.1263C157.908 27.1263 157.74 27.2714 157.607 27.6342C157.072 29.1346 156.502 30.6089 155.944 32.092ZM164.393 25.5722C163.396 22.8892 162.426 20.2685 161.414 17.5448L158.425 25.5722H164.393Z" fill="white" stroke="white" stroke-miterlimit="10"/>
<path d="M120.661 25.1892V32.1022H118.863V15.9341C119.049 15.9225 119.223 15.9022 119.399 15.9022C121.408 15.9022 123.419 15.9022 125.429 15.9022C128.057 15.9109 130.154 17.7233 130.389 20.1771C130.623 22.6309 128.846 24.7306 126.213 25.1486C125.904 25.1849 125.594 25.198 125.284 25.1877C123.769 25.1906 122.253 25.1892 120.661 25.1892ZM120.688 17.5129V23.6075C120.766 23.6239 120.845 23.635 120.924 23.6409C122.437 23.6409 123.95 23.6597 125.473 23.6148C127.121 23.5654 128.499 22.1825 128.534 20.6008C128.575 18.9916 127.363 17.6232 125.651 17.5332C124.016 17.4447 122.369 17.5129 120.688 17.5129Z" fill="white" stroke="white" stroke-miterlimit="10"/>
<path d="M148.107 32.0848H146.271V17.4636H140.672V15.9167H153.671V17.4462H148.107V32.0848Z" fill="white" stroke="white" stroke-miterlimit="10"/>
<path d="M136.39 32.0804H134.668V15.9197H136.39V32.0804Z" fill="white" stroke="white" stroke-miterlimit="10"/>
<path d="M46.5502 28.6021C46.4912 28.5905 46.3989 28.6558 46.3595 28.7153C46.2986 28.8168 46.2552 28.927 46.2309 29.0418C46.0082 29.9178 45.6791 30.7657 45.2504 31.5681C44.8817 32.2954 44.4035 32.9667 43.8311 33.5605C43.134 34.2954 42.2377 34.8299 41.2421 35.1044C40.6839 35.2754 40.1041 35.373 39.5186 35.3947C37.2489 35.4164 34.9943 35.4048 32.7322 35.4048C32.6489 35.4048 32.5642 35.3859 32.4507 35.3743V25.9278C32.4507 21.6413 32.4507 17.3557 32.4507 13.0711C32.4507 12.9855 32.4507 12.8999 32.4507 12.8158C32.4487 12.7916 32.4522 12.7674 32.4607 12.7446C32.4693 12.7219 32.4829 12.7012 32.5005 12.6838C32.5182 12.6665 32.5394 12.653 32.5629 12.6442C32.5864 12.6355 32.6116 12.6316 32.6368 12.6329C32.714 12.6329 32.7881 12.6329 32.8699 12.6329H36.4182V12.1802H25V12.6489H28.8979V35.4121H25V35.8576H46.7287V28.7777C46.706 28.6979 46.6622 28.6065 46.5502 28.6021Z" fill="white"/>
<path d="M51.9203 6H51.1289V42H51.9203V6Z" fill="white"/>
<path d="M71.5699 21.4816C71.5699 21.4483 71.5336 21.2756 71.5336 21.2756C71.4624 20.997 71.4095 20.7155 71.3278 20.4398C70.9538 19.1472 70.3386 17.9304 69.512 16.8483C69.0278 16.2175 68.4664 15.6446 67.84 15.1418C67.2533 14.6733 66.6215 14.2593 65.9531 13.9055C65.2173 13.5174 64.4459 13.1948 63.6486 12.942C62.9659 12.7005 62.2634 12.5141 61.5483 12.3848C60.9945 12.3006 60.4362 12.2281 59.8839 12.1715C59.5116 12.1337 59.1273 12.1279 58.7581 12.1149C58.1317 12.0917 57.5037 12.0626 56.8773 12.0583C56.4914 12.0583 56.104 12.0873 55.7182 12.1062C55.3777 12.1236 55.0358 12.1454 54.6953 12.1642C54.7392 12.5865 54.7498 12.5995 55.1387 12.5995C55.6032 12.5879 56.0662 12.5459 56.5308 12.543C57.6142 12.5342 58.7006 12.5328 59.7719 12.7301C60.2715 12.8077 60.7665 12.9104 61.2548 13.0378C61.8707 13.2115 62.4657 13.4474 63.0297 13.7415C63.6918 14.0857 64.3 14.5175 64.8364 15.0243C65.6173 15.7944 66.2305 16.7061 66.6401 17.7059C67.0834 18.7928 67.3749 19.9311 67.5071 21.0913C67.5192 21.2016 67.5464 21.4918 67.5464 21.4918C67.6895 23.0359 67.7083 24.5884 67.6024 26.1353C67.6024 26.1353 67.5888 26.3239 67.5797 26.3674C67.4874 26.9856 67.4118 27.6067 67.2847 28.219C67.1317 28.9906 66.8775 29.7405 66.5281 30.4508C66.289 30.9282 66.0272 31.3955 65.7715 31.8627C65.4506 32.4458 65.033 32.9751 64.5353 33.4299C63.6143 34.2657 62.4879 34.8647 61.2608 35.1712C60.4344 35.3615 59.5906 35.4747 58.7415 35.5093C57.9259 35.5688 57.1027 35.5354 56.2826 35.5412C55.8287 35.5412 55.3747 35.5412 54.8845 35.5412C54.7498 35.8445 54.774 35.8938 55.1356 35.9287C55.3656 35.9504 55.5971 35.9678 55.8287 35.9707C57.3418 35.994 58.8549 36.0331 60.3772 35.9156C61.0904 35.8658 61.7987 35.7634 62.4956 35.6094C63.4084 35.3919 64.2927 35.076 65.1315 34.6677C65.8086 34.3311 66.4594 33.948 67.0789 33.5213C67.9958 32.905 68.8001 32.1475 69.459 31.2794C70.0315 30.5481 70.5043 29.7499 70.8663 28.9039C71.206 28.0968 71.457 27.2579 71.6153 26.4008C71.6365 26.2557 71.6425 26.1382 71.6425 26.1382C72.0132 23.8179 71.5699 21.4816 71.5699 21.4816Z" fill="white"/>
</g>
<defs>
<clipPath id="clip0_5101_14689">
<rect width="157.371" height="36" fill="white" transform="translate(25 6)"/>
</clipPath>
</defs>
</svg>
