<svg width="207" height="48" viewBox="0 0 207 48" fill="none" xmlns="http://www.w3.org/2000/svg">
<path d="M101.344 33.2661H102.088L103.81 37.8261L105.531 33.2661H106.276L104.136 38.5241H103.484L101.344 33.2661Z" fill="url(#paint0_linear_5101_14540)"/>
<path d="M111.63 38.6172C110.885 38.6172 110.28 38.3845 109.815 37.8727C109.35 37.3608 109.117 36.7094 109.117 35.8719C109.117 35.0343 109.35 34.3829 109.815 33.9176C110.28 33.4057 110.932 33.1731 111.676 33.1731C112.421 33.1731 113.026 33.4057 113.491 33.8711C113.956 34.3364 114.142 34.9413 114.142 35.5927C114.142 35.7788 114.143 35.9649 114.096 36.1045H109.769C109.815 36.7094 109.955 37.1747 110.327 37.547C110.653 37.8727 111.118 38.0588 111.63 38.0588C112.049 38.0588 112.374 37.9657 112.654 37.7796C112.933 37.5935 113.119 37.3609 113.258 37.0351H114.003C113.817 37.5004 113.538 37.8727 113.165 38.1519C112.747 38.4776 112.235 38.6172 111.63 38.6172ZM113.445 35.5927C113.445 35.0343 113.258 34.569 112.933 34.1968C112.56 33.8711 112.142 33.6849 111.63 33.6849C111.118 33.6849 110.699 33.8711 110.327 34.1968C110.001 34.5225 109.815 34.9878 109.769 35.5927H113.445Z" fill="url(#paint1_linear_5101_14540)"/>
<path d="M117.635 33.2662V34.1037C118.008 33.4523 118.566 33.1731 119.357 33.1731C119.962 33.1731 120.427 33.3592 120.8 33.7315C121.172 34.1037 121.404 34.6621 121.404 35.4066V38.5241H120.753V35.4996C120.753 34.9413 120.613 34.476 120.334 34.1968C120.055 33.9176 119.683 33.7315 119.171 33.7315C118.706 33.7315 118.287 33.8711 118.008 34.1968C117.729 34.476 117.589 34.9413 117.589 35.4996V38.5241H116.938V33.2662H117.635Z" fill="url(#paint2_linear_5101_14540)"/>
<path d="M127.124 33.778H125.681V37.2678C125.681 37.547 125.728 37.7331 125.821 37.8261C125.914 37.9192 126.1 37.9657 126.379 37.9657H127.124V38.4776H126.239C125.402 38.4776 125.03 38.0588 125.03 37.2212V33.7314H124.285V33.2196H125.03V31.9167H125.681V33.2196H127.124V33.778Z" fill="url(#paint3_linear_5101_14540)"/>
<path d="M133.734 33.2661H134.385V38.5241H133.734V37.6865C133.362 38.3379 132.803 38.6171 132.012 38.6171C131.407 38.6171 130.942 38.431 130.57 38.0588C130.197 37.6865 129.965 37.1282 129.965 36.4302V33.3126H130.616V36.3371C130.616 36.8955 130.756 37.3608 131.035 37.64C131.314 37.9192 131.686 38.1053 132.198 38.1053C132.664 38.1053 133.082 37.9657 133.362 37.64C133.641 37.3608 133.78 36.8955 133.78 36.3371V33.2661H133.734Z" fill="url(#paint4_linear_5101_14540)"/>
<path d="M137.874 33.2662V34.1502C138.153 33.4988 138.712 33.1731 139.503 33.1731V33.8711H139.317C138.851 33.8711 138.479 34.0106 138.246 34.2433C138.014 34.476 137.874 34.9413 137.874 35.5462V38.5241H137.223V33.2662H137.874Z" fill="url(#paint5_linear_5101_14540)"/>
<path d="M144.852 38.6172C144.108 38.6172 143.503 38.3845 143.038 37.8727C142.572 37.3608 142.34 36.7094 142.34 35.8719C142.34 35.0343 142.572 34.3829 143.038 33.9176C143.503 33.4057 144.155 33.1731 144.899 33.1731C145.644 33.1731 146.248 33.4057 146.714 33.8711C147.179 34.3364 147.365 34.9413 147.365 35.5927C147.365 35.7788 147.365 35.9649 147.319 36.1045H142.991C143.038 36.7094 143.177 37.1747 143.55 37.547C143.875 37.8727 144.341 38.0588 144.852 38.0588C145.271 38.0588 145.597 37.9657 145.876 37.7796C146.155 37.5935 146.341 37.3609 146.481 37.0351H147.226C147.039 37.5004 146.76 37.8727 146.388 38.1519C145.969 38.4776 145.457 38.6172 144.852 38.6172ZM146.714 35.5927C146.714 35.0343 146.528 34.569 146.202 34.1968C145.83 33.8711 145.411 33.6849 144.899 33.6849C144.387 33.6849 143.968 33.8711 143.596 34.1968C143.27 34.5225 143.084 34.9878 143.038 35.5927H146.714Z" fill="url(#paint6_linear_5101_14540)"/>
<path d="M150.203 34.7086C150.203 34.2898 150.389 33.9175 150.761 33.5918C151.134 33.3126 151.599 33.1265 152.157 33.1265C152.716 33.1265 153.135 33.2661 153.46 33.5453C153.786 33.8245 153.926 34.2433 153.972 34.7551H153.274C153.274 34.4294 153.135 34.1502 152.948 33.9641C152.762 33.778 152.437 33.6384 152.111 33.6384C151.739 33.6384 151.459 33.7314 151.227 33.9175C151.041 34.1037 150.901 34.3363 150.901 34.569C150.901 34.8016 150.994 35.0343 151.134 35.1739C151.273 35.3135 151.459 35.4065 151.739 35.4531C151.971 35.4996 152.204 35.5461 152.483 35.6392C152.762 35.7322 152.995 35.7788 153.228 35.8718C153.46 35.9649 153.646 36.1045 153.833 36.2906C153.972 36.4767 154.065 36.7559 154.065 37.0816C154.065 37.5004 153.879 37.8726 153.553 38.1053C153.181 38.3845 152.716 38.5241 152.157 38.5241C151.599 38.5241 151.134 38.3845 150.808 38.0588C150.482 37.7796 150.296 37.3608 150.25 36.849H150.948C150.948 37.1747 151.087 37.4539 151.273 37.64C151.506 37.8261 151.785 37.9657 152.157 37.9657C152.53 37.9657 152.855 37.8726 153.041 37.7331C153.274 37.5935 153.367 37.3608 153.367 37.0816C153.367 36.8024 153.274 36.6163 153.135 36.4767C152.995 36.3371 152.809 36.2441 152.53 36.151C152.297 36.1045 152.064 36.0114 151.785 35.9649C151.506 35.8718 151.273 35.8253 151.041 35.7322C150.808 35.6392 150.622 35.4996 150.436 35.3135C150.296 35.2669 150.203 34.9878 150.203 34.7086Z" fill="url(#paint7_linear_5101_14540)"/>
<path d="M112.139 11.9551H116.187V28.613H112.139L105.392 18.1436V28.613H101.344V11.9551H105.392L112.139 22.4245V11.9551Z" fill="url(#paint8_linear_5101_14540)"/>
<path d="M121.447 26.3331C119.818 24.751 118.98 22.7037 118.98 20.2376C118.98 17.7715 119.818 15.7706 121.447 14.1421C123.075 12.56 125.123 11.7225 127.496 11.7225C129.357 11.7225 130.985 12.2343 132.428 13.1649C133.87 14.1421 134.847 15.4915 135.406 17.2131H130.567C129.915 16.0033 128.938 15.3984 127.542 15.3984C126.146 15.3984 125.076 15.8172 124.285 16.7012C123.494 17.5853 123.075 18.7021 123.075 20.191C123.075 21.6335 123.494 22.7968 124.285 23.6808C125.076 24.5649 126.146 24.9837 127.496 24.9837C128.473 24.9837 129.217 24.751 129.869 24.2857C130.474 23.8204 130.892 23.169 131.078 22.378H126.379V19.307H135.359V22.378C135.08 23.867 134.243 25.3094 132.893 26.6123C132.242 27.2637 131.451 27.7755 130.474 28.1478C129.543 28.52 128.519 28.7527 127.449 28.7527C125.076 28.7527 123.075 27.9617 121.447 26.3331Z" fill="url(#paint9_linear_5101_14540)"/>
<path d="M140.615 26.3331C138.986 24.751 138.148 22.7037 138.148 20.2376C138.148 17.7715 138.986 15.7706 140.615 14.1421C142.243 12.56 144.29 11.7225 146.664 11.7225C148.525 11.7225 150.153 12.2343 151.596 13.1649C153.038 14.1421 154.015 15.4915 154.574 17.2131H149.735C149.083 16.0033 148.106 15.3984 146.71 15.3984C145.314 15.3984 144.244 15.8172 143.453 16.7012C142.662 17.5853 142.243 18.7021 142.243 20.191C142.243 21.6335 142.662 22.7968 143.453 23.6808C144.244 24.5649 145.361 24.9837 146.71 24.9837C148.106 24.9837 149.083 24.3788 149.735 23.169H154.574C154.015 24.8906 152.992 26.24 151.596 27.2172C150.153 28.1943 148.525 28.6596 146.664 28.6596C144.244 28.7527 142.243 27.9617 140.615 26.3331Z" fill="url(#paint10_linear_5101_14540)"/>
<path d="M57.9788 10.8849L53 8V34.1967L57.9788 37.0351L62.911 39.92V13.7233L57.9788 10.8849Z" fill="url(#paint11_linear_5101_14540)"/>
<path d="M72.8694 10.8849L67.8906 8V34.1967L72.8694 37.0351L77.8016 39.92V13.7233L72.8694 10.8849Z" fill="url(#paint12_linear_5101_14540)"/>
<path d="M87.7561 10.8849L82.7773 8V34.1967L87.7561 37.0351L92.6884 39.92V13.7233L87.7561 10.8849Z" fill="url(#paint13_linear_5101_14540)"/>
<defs>
<linearGradient id="paint0_linear_5101_14540" x1="103.81" y1="33.2661" x2="103.81" y2="38.5241" gradientUnits="userSpaceOnUse">
<stop stop-color="white"/>
<stop offset="1" stop-color="#F9FAFB"/>
</linearGradient>
<linearGradient id="paint1_linear_5101_14540" x1="111.63" y1="33.1731" x2="111.63" y2="38.6172" gradientUnits="userSpaceOnUse">
<stop stop-color="white"/>
<stop offset="1" stop-color="#F9FAFB"/>
</linearGradient>
<linearGradient id="paint2_linear_5101_14540" x1="119.171" y1="33.1731" x2="119.171" y2="38.5241" gradientUnits="userSpaceOnUse">
<stop stop-color="white"/>
<stop offset="1" stop-color="#F9FAFB"/>
</linearGradient>
<linearGradient id="paint3_linear_5101_14540" x1="125.704" y1="31.9167" x2="125.704" y2="38.4776" gradientUnits="userSpaceOnUse">
<stop stop-color="white"/>
<stop offset="1" stop-color="#F9FAFB"/>
</linearGradient>
<linearGradient id="paint4_linear_5101_14540" x1="132.175" y1="33.2661" x2="132.175" y2="38.6171" gradientUnits="userSpaceOnUse">
<stop stop-color="white"/>
<stop offset="1" stop-color="#F9FAFB"/>
</linearGradient>
<linearGradient id="paint5_linear_5101_14540" x1="138.363" y1="33.1731" x2="138.363" y2="38.5241" gradientUnits="userSpaceOnUse">
<stop stop-color="white"/>
<stop offset="1" stop-color="#F9FAFB"/>
</linearGradient>
<linearGradient id="paint6_linear_5101_14540" x1="144.852" y1="33.1731" x2="144.852" y2="38.6172" gradientUnits="userSpaceOnUse">
<stop stop-color="white"/>
<stop offset="1" stop-color="#F9FAFB"/>
</linearGradient>
<linearGradient id="paint7_linear_5101_14540" x1="152.134" y1="33.1265" x2="152.134" y2="38.5241" gradientUnits="userSpaceOnUse">
<stop stop-color="white"/>
<stop offset="1" stop-color="#F9FAFB"/>
</linearGradient>
<linearGradient id="paint8_linear_5101_14540" x1="108.765" y1="11.9551" x2="108.765" y2="28.613" gradientUnits="userSpaceOnUse">
<stop stop-color="white"/>
<stop offset="1" stop-color="#F9FAFB"/>
</linearGradient>
<linearGradient id="paint9_linear_5101_14540" x1="127.193" y1="11.7225" x2="127.193" y2="28.7527" gradientUnits="userSpaceOnUse">
<stop stop-color="white"/>
<stop offset="1" stop-color="#F9FAFB"/>
</linearGradient>
<linearGradient id="paint10_linear_5101_14540" x1="146.361" y1="11.7225" x2="146.361" y2="28.667" gradientUnits="userSpaceOnUse">
<stop stop-color="white"/>
<stop offset="1" stop-color="#F9FAFB"/>
</linearGradient>
<linearGradient id="paint11_linear_5101_14540" x1="57.9555" y1="8" x2="57.9555" y2="39.92" gradientUnits="userSpaceOnUse">
<stop stop-color="white"/>
<stop offset="1" stop-color="#F9FAFB"/>
</linearGradient>
<linearGradient id="paint12_linear_5101_14540" x1="72.8461" y1="8" x2="72.8461" y2="39.92" gradientUnits="userSpaceOnUse">
<stop stop-color="white"/>
<stop offset="1" stop-color="#F9FAFB"/>
</linearGradient>
<linearGradient id="paint13_linear_5101_14540" x1="87.7329" y1="8" x2="87.7329" y2="39.92" gradientUnits="userSpaceOnUse">
<stop stop-color="white"/>
<stop offset="1" stop-color="#F9FAFB"/>
</linearGradient>
</defs>
</svg>
