<svg width="208" height="48" viewBox="0 0 208 48" fill="none" xmlns="http://www.w3.org/2000/svg">
<g clip-path="url(#clip0_5101_14633)">
<path d="M118.684 12.1518H117.343C116.969 12.1359 116.6 12.2399 116.291 12.4485C115.981 12.6571 115.748 12.9591 115.626 13.3097L111.352 26.8291L106.597 13.0626C106.345 12.378 105.958 12.1697 104.409 12.1697C102.86 12.1697 102.473 12.4286 102.248 13.0626L97.6588 26.844L93.1566 13.3246C93.0333 12.973 92.7992 12.67 92.489 12.4605C92.1788 12.2509 91.8088 12.1458 91.4338 12.1607H89.951C88.003 12.1607 87.823 13.0537 88.1501 13.9913L95.4647 35.5891C95.966 37 97.1906 36.8512 97.6588 36.8512C98.1271 36.8512 99.4327 37 99.928 35.5891L104.463 22.2899L109.076 35.5951C109.731 37 110.169 36.8482 111.322 36.8482C112.354 36.8482 113.065 37 113.612 35.5951L121.145 14.0032C121.222 13.7906 121.244 13.5628 121.211 13.3396C121.178 13.1164 121.09 12.9046 120.955 12.7228C120.821 12.5411 120.643 12.3948 120.438 12.2968C120.233 12.1988 120.007 12.1521 119.78 12.1607C119.327 12.1607 118.927 12.1578 118.684 12.1518Z" fill="url(#paint0_linear_5101_14633)"/>
<path d="M75.1063 37.003C72.613 37.003 70.1757 36.2698 68.1026 34.8961C66.0295 33.5224 64.4137 31.57 63.4596 29.2856C62.5055 27.0013 62.2558 24.4876 62.7422 22.0626C63.2286 19.6375 64.4293 17.41 66.1923 15.6616C67.9553 13.9132 70.2015 12.7226 72.6469 12.2402C75.0923 11.7578 77.627 12.0054 79.9305 12.9516C82.234 13.8978 84.2028 15.5002 85.588 17.556C86.9732 19.6119 87.7125 22.0289 87.7125 24.5015C87.7125 27.8171 86.3844 30.9969 84.0202 33.3414C81.6561 35.6859 78.4496 37.003 75.1063 37.003V37.003ZM75.1063 16.9827C73.6059 16.9822 72.139 17.4229 70.8913 18.2491C69.6435 19.0754 68.6709 20.2501 68.0964 21.6247C67.522 22.9992 67.3715 24.5118 67.6641 25.9712C67.9567 27.4305 68.6791 28.771 69.74 29.8231C70.8009 30.8752 72.1527 31.5917 73.6243 31.8818C75.0959 32.1719 76.6211 32.0227 78.0072 31.4531C79.3933 30.8834 80.5778 29.9189 81.411 28.6815C82.2442 27.4441 82.6886 25.9894 82.688 24.5015C82.6864 22.5076 81.8872 20.5958 80.4658 19.1856C79.0444 17.7754 77.1169 16.9821 75.1063 16.9798V16.9827Z" fill="url(#paint1_linear_5101_14633)"/>
<path d="M140.839 27.5435C140.135 29.1205 138.906 30.4097 137.357 31.195C135.809 31.9804 134.036 32.2143 132.334 31.8575C130.633 31.5007 129.107 30.5749 128.011 29.2351C126.916 27.8954 126.319 26.2231 126.319 24.4985C126.319 22.7739 126.916 21.1016 128.011 19.7619C129.107 18.4221 130.633 17.4963 132.334 17.1395C134.036 16.7827 135.809 17.0166 137.357 17.8019C138.906 18.5873 140.135 19.8765 140.839 21.4535C140.973 21.7571 141.193 22.0157 141.472 22.1979C141.751 22.3802 142.077 22.4783 142.412 22.4804H144.125C144.403 22.4799 144.676 22.413 144.921 22.2852C145.167 22.1575 145.378 21.9727 145.536 21.7467C145.694 21.5207 145.794 21.2601 145.829 20.9873C145.864 20.7144 145.831 20.4372 145.734 20.1795C144.714 17.4228 142.749 15.11 140.182 13.6466C137.614 12.1832 134.61 11.6627 131.694 12.1763C128.779 12.6899 126.139 14.2048 124.237 16.4554C122.335 18.706 121.293 21.5487 121.293 24.4851C121.293 27.4215 122.335 30.2642 124.237 32.5148C126.139 34.7654 128.779 36.2803 131.694 36.7939C134.61 37.3075 137.614 36.7869 140.182 35.3236C142.749 33.8602 144.714 31.5474 145.734 28.7907C145.827 28.5336 145.856 28.2583 145.818 27.9879C145.781 27.7175 145.678 27.4601 145.519 27.2373C145.36 27.0145 145.149 26.833 144.905 26.7081C144.66 26.5832 144.389 26.5185 144.113 26.5196H142.4C142.068 26.5226 141.743 26.6209 141.466 26.8026C141.189 26.9843 140.972 27.2416 140.839 27.5435Z" fill="url(#paint2_linear_5101_14633)"/>
</g>
<defs>
<linearGradient id="paint0_linear_5101_14633" x1="104.623" y1="12.1502" x2="104.623" y2="36.8557" gradientUnits="userSpaceOnUse">
<stop stop-color="white"/>
<stop offset="1" stop-color="#F9FAFB"/>
</linearGradient>
<linearGradient id="paint1_linear_5101_14633" x1="75.1063" y1="12" x2="75.1063" y2="37.003" gradientUnits="userSpaceOnUse">
<stop stop-color="white"/>
<stop offset="1" stop-color="#F9FAFB"/>
</linearGradient>
<linearGradient id="paint2_linear_5101_14633" x1="133.568" y1="11.9836" x2="133.568" y2="36.9866" gradientUnits="userSpaceOnUse">
<stop stop-color="white"/>
<stop offset="1" stop-color="#F9FAFB"/>
</linearGradient>
<clipPath id="clip0_5101_14633">
<rect width="83.3333" height="25" fill="white" transform="translate(62.5 12)"/>
</clipPath>
</defs>
</svg>
