<svg width="108" height="30" viewBox="0 0 108 30" fill="none" xmlns="http://www.w3.org/2000/svg">
<path d="M7 4V25.5762H11.9317V18.7951H15.1681C17.2949 18.7951 19.0827 18.0862 20.5313 16.6375C21.98 15.1888 22.7198 13.4627 22.7198 11.3975C22.7198 9.3324 21.98 7.60631 20.5313 6.15762C19.0827 4.70893 17.2949 4 15.1681 4H7ZM11.9317 14.1716V8.62347H15.1681C16.6785 8.62347 17.7881 9.82557 17.7881 11.3975C17.7881 12.9695 16.6785 14.1716 15.1681 14.1716H11.9317Z" fill="#080B12"/>
<path d="M45.2062 25.5762L37.8703 4H31.5824L24.2465 25.5762H29.6405L30.7194 22.1856H38.7334L39.8122 25.5762H45.2062ZM34.7264 9.64063L37.2539 17.5622H32.1989L34.7264 9.64063Z" fill="#080B12"/>
<path d="M58.2447 23.7076H50.4258V5.79578H58.2447C63.2009 5.79578 67.1742 9.82381 67.1742 14.7517C67.1742 19.7225 63.2009 23.7076 58.2447 23.7076Z" fill="#C7D2FE"/>
<path fill-rule="evenodd" clip-rule="evenodd" d="M48.6309 25.5034V4H58.2446C64.2014 4 68.9689 8.8414 68.9689 14.7517C68.9689 20.7105 64.1957 25.5034 58.2446 25.5034H48.6309ZM58.2446 23.7077C63.2008 23.7077 67.1746 19.7225 67.1746 14.7517C67.1746 9.82377 63.2008 5.79577 58.2446 5.79577H50.4256V23.7077H58.2446Z" fill="#080B12"/>
<path d="M54.6126 23.7076H50.4258V5.79578H54.6126C59.5688 5.79578 63.5426 9.82381 63.5426 14.7517C63.5851 19.7225 59.5688 23.7076 54.6126 23.7076Z" fill="#818CF8"/>
<path d="M50.5964 23.7076H50.4258V5.79578H50.5964C55.5526 5.79578 59.5263 9.82381 59.5263 14.7517C59.5263 19.7225 55.51 23.7076 50.5964 23.7076Z" fill="#4F46E5"/>
</svg>
