<svg width="121" height="42" viewBox="0 0 121 42" fill="none" xmlns="http://www.w3.org/2000/svg">
<path d="M10 10V31.5762H14.9317V24.7951H18.1681C20.2949 24.7951 22.0827 24.0862 23.5313 22.6375C24.98 21.1888 25.7198 19.4627 25.7198 17.3975C25.7198 15.3324 24.98 13.6063 23.5313 12.1576C22.0827 10.7089 20.2949 10 18.1681 10H10ZM14.9317 20.1716V14.6235H18.1681C19.6785 14.6235 20.7881 15.8256 20.7881 17.3975C20.7881 18.9695 19.6785 20.1716 18.1681 20.1716H14.9317Z" fill="white"/>
<path d="M48.2062 31.5762L40.8703 10H34.5824L27.2465 31.5762H32.6405L33.7194 28.1856H41.7334L42.8122 31.5762H48.2062ZM37.7264 15.6406L40.2539 23.5622H35.1989L37.7264 15.6406Z" fill="white"/>
<path d="M61.2447 29.7076H53.4258V11.7958H61.2447C66.2009 11.7958 70.1742 15.8238 70.1742 20.7517C70.1742 25.7225 66.2009 29.7076 61.2447 29.7076Z" fill="#C7D2FE"/>
<path fill-rule="evenodd" clip-rule="evenodd" d="M51.6328 31.5034V10H61.2466C67.2034 10 71.9708 14.8414 71.9708 20.7517C71.9708 26.7105 67.1976 31.5034 61.2466 31.5034H51.6328ZM61.2466 29.7077C66.2028 29.7077 70.1765 25.7225 70.1765 20.7517C70.1765 15.8238 66.2028 11.7958 61.2466 11.7958H53.4276V29.7077H61.2466Z" fill="white"/>
<path d="M57.6126 29.7076H53.4258V11.7958H57.6126C62.5688 11.7958 66.5426 15.8238 66.5426 20.7517C66.5851 25.7225 62.5688 29.7076 57.6126 29.7076Z" fill="#818CF8"/>
<path d="M53.5964 29.7076H53.4258V11.7958H53.5964C58.5526 11.7958 62.5263 15.8238 62.5263 20.7517C62.5263 25.7225 58.51 29.7076 53.5964 29.7076Z" fill="#4F46E5"/>
<path d="M79.095 31.1447C80.2355 30.0042 80.2355 28.1548 79.095 27.0144C77.9546 25.8739 76.1052 25.8739 74.9647 27.0144C73.8243 28.1548 73.8243 30.0042 74.9647 31.1447C76.1052 32.2851 77.9546 32.2851 79.095 31.1447Z" fill="white"/>
<path d="M99.3851 10H86.2852V31.5762H91.2169V23.6546H99.2309V18.9079H91.2169V14.7468H99.3851V10Z" fill="white"/>
<path d="M105.381 31.5762H110.313V10H105.381V31.5762Z" fill="white"/>
</svg>
