<svg width="630" height="81" viewBox="0 0 630 81" fill="none" xmlns="http://www.w3.org/2000/svg">
<path d="M201.243 67.425H209.406V6.51006H209.61L249.71 67.425H259.811V0.285904H251.649V55.9971H251.444L215.018 0.285904H201.243V67.425Z" fill="white"/>
<path d="M323.111 67.425H331.682V7.93855H353.926V0.285904H300.868V7.93855H323.111V67.425Z" fill="white"/>
<path d="M435.054 67.425H445.054L416.688 0.285904H406.484L378.119 67.425H387.098L393.73 51.0994H428.524L435.054 67.425ZM396.281 44.7732L411.178 8.14262H411.382L425.973 44.7732H396.281Z" fill="white"/>
<path d="M486.384 67.425H494.955V39.4674H515.974C527.096 39.4674 530.259 44.059 530.259 51.2015V67.425H539.034V51.2015C539.034 42.8346 535.973 36.8145 526.483 35.6921V35.488C535.667 34.3657 539.442 28.1415 539.442 19.3665C539.442 7.73447 531.075 0.285904 514.239 0.285904H486.384V67.425ZM494.955 33.1412V8.04058H514.239C525.565 8.04058 531.075 12.6322 531.075 20.0807C531.075 27.9374 526.381 33.1412 514.137 33.1412H494.955Z" fill="white"/>
<path d="M584.154 67.425H629.56V59.6704H592.725V36.8145H621.805V30.4883H592.725V8.04058H628.641V0.285904H584.154V67.425Z" fill="white"/>
<path fill-rule="evenodd" clip-rule="evenodd" d="M58.7659 9.23681H9.44353V58.5592H53.9494L39.0415 43.6513L44.7545 37.9383L58.7659 51.9497V9.23681ZM67.769 60.9528V58.5592V9.23681V0.233704H58.7659H9.44353H0.44043V9.23681V58.5592V67.5623H9.44353L57.9557 67.5623C57.9557 67.5623 58.3296 65.8172 56.9584 63.0749C55.5873 60.3325 53.9668 58.5874 53.9668 58.5874L62.9417 67.5623H62.9525L75.8587 80.4686L81.5718 74.7556L67.769 60.9528Z" fill="white"/>
<rect x="111" width="50" height="8" fill="white"/>
<rect x="111" y="59" width="50" height="8" fill="white"/>
<rect x="111" y="30" width="36" height="8" fill="white"/>
</svg>
