<svg width="207" height="48" viewBox="0 0 207 48" fill="none" xmlns="http://www.w3.org/2000/svg">
<g clip-path="url(#clip0_5101_14712)">
<path d="M57.7925 17.2074C55.2045 16.6747 52.9971 16.4084 51.1702 16.4084C49.3434 16.4084 47.9923 16.4584 47.1169 16.5582L46.8314 18.0063L49.6859 18.3059C55.8134 19.0049 58.8774 21.2186 58.8774 24.9469C58.8774 25.3796 58.763 26.1952 58.5346 27.3936C58.3062 28.5587 57.9257 29.6904 57.3931 30.7891C56.8601 31.8875 56.175 32.7863 55.3377 33.4854C54.5386 34.1512 53.7391 34.7003 52.94 35.133C52.1788 35.5326 51.1893 35.8154 49.9713 35.9819C48.0684 36.2483 45.5184 36.3815 42.3214 36.3815C39.1625 36.3815 35.9655 35.9985 32.7305 35.2329L35.5278 27.8429C38.4964 28.5753 41.0845 28.9415 43.2919 28.9415C45.5374 28.9415 47.1169 28.8915 48.0303 28.7917L48.3158 27.1938L44.7192 26.8443C41.6363 26.5447 39.4479 25.9122 38.1539 24.9469C36.8599 23.9815 36.2129 22.6 36.2129 20.8025C36.2129 20.1367 36.3081 19.3045 36.4983 18.3059C37.2595 14.744 38.6297 12.2807 40.6088 10.9159C42.5878 9.55106 45.5945 8.86865 49.6288 8.86865C53.7013 8.86865 57.3357 9.21818 60.533 9.91724L57.7925 17.2074Z" fill="white"/>
<mask id="mask0_5101_14712" style="mask-type:alpha" maskUnits="userSpaceOnUse" x="19" y="-5" width="56" height="55">
<path fill-rule="evenodd" clip-rule="evenodd" d="M74.1075 22.625C74.1075 37.6403 61.8072 49.8125 46.6338 49.8125C31.4605 49.8125 19.1602 37.6403 19.1602 22.625C19.1602 7.60975 31.4605 -4.5625 46.6338 -4.5625C61.8072 -4.5625 74.1075 7.60975 74.1075 22.625ZM57.7947 17.2074C55.2067 16.6747 52.9992 16.4084 51.1724 16.4084C49.3456 16.4084 47.9945 16.4584 47.1191 16.5582L46.8336 18.0063L49.6881 18.3059C55.8155 19.0049 58.8795 21.2186 58.8795 24.9469C58.8795 25.3796 58.7652 26.1952 58.5368 27.3936C58.3235 28.4814 57.9777 29.5401 57.499 30.5702L56.0542 28.6328L54.0689 31.4157L42.9852 25.2767L36.366 19.0863C36.4037 18.8386 36.4486 18.5784 36.5005 18.3059C37.2617 14.744 38.6319 12.2807 40.611 10.9159C42.59 9.55104 45.5967 8.86864 49.631 8.86864C53.7035 8.86864 57.3379 9.21817 60.5352 9.91722L57.7947 17.2074ZM43.4371 28.9656C43.8226 29.3113 43.9905 29.532 43.9349 29.6458C43.7927 29.9367 42.1897 29.5286 39.03 28.7237C38.0226 28.4672 36.857 28.1703 35.53 27.8429L32.7327 35.2329C35.9677 35.9985 39.1647 36.3815 42.3236 36.3815C45.5206 36.3815 48.0706 36.2483 49.9735 35.9819C51.1914 35.8154 52.181 35.5326 52.9422 35.133C52.9522 35.1275 52.9623 35.1221 52.9723 35.1166L43.4371 28.9656Z" fill="#FF7070"/>
</mask>
<g mask="url(#mask0_5101_14712)">
<path fill-rule="evenodd" clip-rule="evenodd" d="M30.04 16.7035C24.6581 10.3127 26.9385 7.06798 35.1574 9.47179C43.3763 11.8756 54.3978 19.0108 59.7799 25.4016C65.1617 31.7924 62.8814 35.0372 54.6623 32.6331C48.564 30.8496 40.3894 25.5567 36.399 20.8182C33.0042 16.787 34.4405 14.7371 39.631 16.2552C40.653 16.5541 41.7583 16.994 42.8865 17.5358C43.044 17.4756 43.2047 17.4218 43.3683 17.3744C41.8896 16.6217 40.4306 16.0155 39.1019 15.6269C33.4866 13.9845 31.9108 16.198 35.6064 20.5863C39.8976 25.682 48.6683 31.3536 55.1915 33.2615C63.835 35.7896 66.2551 32.3813 60.5722 25.6334C54.8896 18.8854 43.272 11.3715 34.6283 8.84349C25.9846 6.31543 23.5648 9.72372 29.2474 16.4717C29.3935 16.6452 29.6894 16.8377 29.9082 16.9017C30.1271 16.9657 30.1861 16.877 30.04 16.7035ZM52.8731 24.3886C52.868 24.6138 52.8494 24.8377 52.8171 25.0593C54.507 27.3904 53.4466 28.5116 50.2073 27.5642C48.4042 27.0368 46.1824 25.7973 44.4145 24.4143C42.4232 23.0141 41.2914 21.8539 40.8223 20.89C40.8596 21.238 41.1044 21.7032 41.575 22.262C43.5854 24.6493 47.6893 27.3013 50.7365 28.1925C54.6492 29.3368 55.7502 27.7951 53.1719 24.7335C53.0754 24.6189 52.9757 24.5039 52.8731 24.3886Z" fill="white"/>
<path d="M56.5464 5.06486C56.7768 5.06486 56.9635 5.24948 56.9635 5.47722C56.9634 5.70497 56.7765 5.88959 56.5461 5.88959C56.3157 5.88959 56.129 5.70497 56.129 5.47722C56.1291 5.24948 56.316 5.06486 56.5464 5.06486Z" fill="white"/>
<path d="M54.2417 29.8435C54.4721 29.8435 54.6588 30.0282 54.6588 30.2559C54.6587 30.4837 54.4718 30.6683 54.2414 30.6683C54.011 30.6683 53.8243 30.4837 53.8243 30.2559C53.8244 30.0282 54.0113 29.8435 54.2417 29.8435Z" fill="white"/>
<path d="M50.0347 2.37919C50.2651 2.37919 50.4518 2.56381 50.4517 2.79155C50.4517 3.0193 50.2648 3.20392 50.0344 3.20392C49.804 3.20392 49.6172 3.0193 49.6173 2.79155C49.6174 2.56381 49.8042 2.37919 50.0347 2.37919Z" fill="white"/>
<path d="M43.894 2.80222C44.1244 2.80222 44.3112 2.98684 44.3111 3.21459C44.311 3.44233 44.1242 3.62695 43.8938 3.62695C43.6634 3.62695 43.4766 3.44233 43.4767 3.21459C43.4768 2.98684 43.6636 2.80222 43.894 2.80222Z" fill="white"/>
<path d="M41.2964 3.55479C41.5268 3.55479 41.7135 3.73941 41.7135 3.96716C41.7134 4.1949 41.5265 4.37952 41.2961 4.37952C41.0657 4.37952 40.879 4.1949 40.879 3.96716C40.8791 3.73941 41.066 3.55479 41.2964 3.55479Z" fill="white"/>
<path d="M39.9253 16.9705C40.1557 16.9705 40.3424 17.1551 40.3424 17.3829C40.3423 17.6106 40.1554 17.7952 39.925 17.7952C39.6946 17.7952 39.5079 17.6106 39.5079 17.3829C39.508 17.1551 39.6949 16.9705 39.9253 16.9705Z" fill="white"/>
<path d="M35.7925 12.116C36.0229 12.116 36.2096 12.3006 36.2095 12.5283C36.2095 12.7561 36.0226 12.9407 35.7922 12.9407C35.5618 12.9407 35.3751 12.7561 35.3751 12.5283C35.3752 12.3006 35.562 12.116 35.7925 12.116Z" fill="white"/>
<path d="M54.0932 42.0745C54.3237 42.0745 54.5104 42.2591 54.5103 42.4869C54.5103 42.7146 54.3234 42.8992 54.093 42.8992C53.8626 42.8992 53.6758 42.7146 53.6759 42.4869C53.676 42.2591 53.8628 42.0745 54.0932 42.0745Z" fill="white"/>
<path d="M38.3979 41.6297C38.6284 41.6297 38.8151 41.8143 38.815 42.042C38.8149 42.2698 38.6281 42.4544 38.3977 42.4544C38.1673 42.4544 37.9805 42.2698 37.9806 42.042C37.9807 41.8143 38.1675 41.6297 38.3979 41.6297Z" fill="white"/>
<path d="M32.7612 38.581C32.9916 38.581 33.1784 38.7656 33.1783 38.9933C33.1782 39.2211 32.9914 39.4057 32.761 39.4057C32.5305 39.4057 32.3438 39.2211 32.3439 38.9933C32.3439 38.7656 32.5308 38.581 32.7612 38.581Z" fill="white"/>
<path d="M22.7339 31.1255C22.9643 31.1255 23.151 31.3101 23.151 31.5378C23.1509 31.7656 22.964 31.9502 22.7336 31.9502C22.5032 31.9502 22.3165 31.7656 22.3165 31.5378C22.3166 31.3101 22.5035 31.1255 22.7339 31.1255Z" fill="white"/>
<path d="M68.9214 10.6756C69.1518 10.6756 69.3385 10.8602 69.3385 11.0879C69.3384 11.3157 69.1515 11.5003 68.9211 11.5003C68.6907 11.5003 68.504 11.3157 68.504 11.0879C68.5041 10.8602 68.691 10.6756 68.9214 10.6756Z" fill="white"/>
<path d="M60.4259 7.85342C60.8291 7.85342 61.1559 8.17651 61.1558 8.57506C61.1556 8.97361 60.8287 9.29669 60.4254 9.29669C60.0222 9.29669 59.6954 8.9736 59.6955 8.57506C59.6957 8.17651 60.0226 7.85342 60.4259 7.85342Z" fill="white"/>
<path d="M52.1915 2.27987C52.5947 2.27987 52.9215 2.60296 52.9214 3.00151C52.9213 3.40006 52.5943 3.72314 52.1911 3.72314C51.7878 3.72314 51.461 3.40006 51.4612 3.00151C51.4613 2.60296 51.7883 2.27987 52.1915 2.27987Z" fill="white"/>
<path d="M58.3282 38.8623C58.7315 38.8623 59.0582 39.1854 59.0581 39.5839C59.058 39.9825 58.731 40.3055 58.3278 40.3055C57.9245 40.3055 57.5978 39.9825 57.5979 39.5839C57.598 39.1854 57.925 38.8623 58.3282 38.8623Z" fill="white"/>
<path d="M28.586 29.6012C28.9893 29.6012 29.316 29.9243 29.3159 30.3229C29.3158 30.7214 28.9888 31.0445 28.5856 31.0445C28.1824 31.0445 27.8556 30.7214 27.8557 30.3229C27.8558 29.9243 28.1828 29.6012 28.586 29.6012Z" fill="white"/>
<path d="M29.9923 34.8936C30.3955 34.8936 30.7223 35.2167 30.7222 35.6152C30.722 36.0138 30.3951 36.3369 29.9918 36.3369C29.5886 36.3369 29.2618 36.0138 29.2619 35.6152C29.2621 35.2167 29.5891 34.8936 29.9923 34.8936Z" fill="white"/>
<path fill-rule="evenodd" clip-rule="evenodd" d="M63.8752 15.0089L63.5799 17.5591L63.2859 15.0089C62.8195 14.8997 62.4521 14.5366 62.3418 14.0754L59.7617 13.7841L62.3422 13.4928C62.4531 13.0319 62.8202 12.6692 63.2866 12.56L63.5823 10.009L63.8762 12.56C64.3423 12.6693 64.7094 13.032 64.8196 13.4927L67.4004 13.7841L64.8196 14.0754C64.709 14.5365 64.3419 14.8996 63.8752 15.0089Z" fill="white"/>
<path fill-rule="evenodd" clip-rule="evenodd" d="M36.6171 8.07693L36.3503 10.3802L36.0848 8.07693C35.6637 7.97827 35.3323 7.65063 35.2326 7.23436L32.9023 6.97128L35.2327 6.70824C35.3326 6.2919 35.6643 5.96419 36.0855 5.86553L36.3524 3.56238L36.6178 5.86553C37.039 5.96422 37.3704 6.2919 37.4701 6.70824L39.8003 6.97128L37.4699 7.23436C37.3699 7.6506 37.0383 7.97827 36.6171 8.07693Z" fill="white"/>
<path fill-rule="evenodd" clip-rule="evenodd" d="M59.4664 34.5815L59.2284 36.6365L58.9914 34.5815C58.6157 34.4935 58.32 34.2012 58.2311 33.8298L56.1523 33.5953L58.2311 33.3604C58.3204 32.989 58.6164 32.6967 58.9921 32.6087L59.2301 30.554L59.467 32.6087C59.8427 32.6967 60.1384 32.989 60.2274 33.3604L62.3061 33.5953L60.227 33.8298C60.1381 34.2012 59.8421 34.4935 59.4664 34.5815Z" fill="white"/>
<path fill-rule="evenodd" clip-rule="evenodd" d="M46.5575 44.1351L46.2437 46.8423L45.9317 44.1351C45.4369 44.0192 45.0475 43.6342 44.9303 43.1451L42.1914 42.8359L44.9303 42.5266C45.0477 42.0373 45.4375 41.6519 45.9326 41.536L46.2462 38.8295L46.5582 41.536C47.0533 41.6519 47.443 42.0373 47.5601 42.5266L50.2986 42.8359L47.5597 43.1451C47.4421 43.6342 47.0524 44.0192 46.5575 44.1351Z" fill="white"/>
</g>
</g>
<path d="M71.0011 28.4955C72.0116 28.4955 72.7258 28.2275 73.1439 27.6916C73.5621 27.1377 73.7537 26.3517 73.7188 25.3333V17.5084H77.4034V25.4405C77.4034 26.4231 77.3076 27.2628 77.116 27.9595C76.9418 28.6563 76.6369 29.2905 76.2014 29.8622C75.8704 30.291 75.5045 30.6215 75.1038 30.8537C74.7206 31.086 74.3025 31.2825 73.8495 31.4433C73.414 31.5862 72.9436 31.6844 72.4384 31.738C71.9506 31.8095 71.4715 31.8452 71.0011 31.8452C69.921 31.8452 68.9367 31.6934 68.0483 31.3897C67.1598 31.086 66.4194 30.5768 65.8271 29.8622C65.3741 29.2905 65.0605 28.6563 64.8863 27.9595C64.7121 27.2628 64.625 26.4231 64.625 25.4405V17.5084H68.3096V25.3333C68.2922 26.3517 68.5012 27.1288 68.9367 27.6648C69.3723 28.2007 70.0604 28.4776 71.0011 28.4955Z" fill="white"/>
<path d="M83.9803 19.411C84.5203 18.7321 85.191 18.2051 85.9924 17.8299C86.8112 17.4369 87.63 17.2315 88.4488 17.2136C89.4244 17.1957 90.3303 17.3744 91.1665 17.7496C92.0027 18.1069 92.6995 18.7143 93.257 19.5718C93.71 20.1971 94.041 20.9296 94.25 21.7692C94.4591 22.6089 94.5636 23.4932 94.5636 24.4222C94.5636 25.5835 94.4242 26.6375 94.1455 27.5844C93.8842 28.5134 93.4312 29.3173 92.7867 29.9962C92.2466 30.6036 91.5846 31.0681 90.8006 31.3897C90.0167 31.6934 89.2327 31.8452 88.4488 31.8452C88.0655 31.8452 87.6822 31.8184 87.299 31.7648C86.9157 31.7291 86.5325 31.6487 86.1492 31.5237C85.7659 31.3986 85.3827 31.22 84.9994 30.9877C84.6335 30.7555 84.2851 30.4428 83.9541 30.0498V37.5264H80.2695V17.5084H83.7712L83.9803 19.411ZM87.4296 20.5901C86.8896 20.5901 86.4018 20.6973 85.9663 20.9117C85.5482 21.1082 85.191 21.3851 84.8949 21.7424C84.5987 22.0997 84.3635 22.5106 84.1893 22.9751C84.0325 23.4396 83.9541 23.9399 83.9541 24.4758C83.9367 25.6728 84.2416 26.6375 84.8687 27.37C85.5133 28.0846 86.3844 28.4598 87.4819 28.4955C88.0742 28.4955 88.5794 28.3972 88.9975 28.2007C89.4157 28.0042 89.7554 27.7273 90.0167 27.37C90.2954 27.0127 90.5045 26.5929 90.6438 26.1105C90.8006 25.6281 90.879 25.1011 90.879 24.5294C90.879 23.9756 90.8006 23.4575 90.6438 22.9751C90.5045 22.4928 90.2867 22.0729 89.9906 21.7156C89.7118 21.3583 89.3634 21.0814 88.9453 20.8849C88.5272 20.6884 88.022 20.5901 87.4296 20.5901Z" fill="white"/>
<path d="M103.205 28.7635C103.728 28.7635 104.172 28.6831 104.538 28.5223C104.921 28.3436 105.235 28.0578 105.479 27.6648H109.346C109.155 28.3972 108.858 29.0315 108.458 29.5674C108.074 30.1034 107.604 30.5411 107.047 30.8805C106.507 31.22 105.906 31.4701 105.244 31.6309C104.582 31.7738 103.885 31.8452 103.153 31.8452C100.923 31.8452 99.2332 31.2021 98.0834 29.9158C96.9511 28.6295 96.3849 26.8251 96.3849 24.5026C96.3849 23.4486 96.533 22.4749 96.8291 21.5816C97.1427 20.6884 97.5782 19.9202 98.1357 19.277C98.6932 18.616 99.3813 18.1069 100.2 17.7496C101.036 17.3922 101.986 17.2136 103.048 17.2136C104.285 17.2136 105.357 17.4369 106.263 17.8835C107.169 18.3302 107.883 18.9465 108.405 19.7326C108.946 20.5008 109.303 21.403 109.477 22.4392C109.669 23.4754 109.669 24.583 109.477 25.7621H100.069C100.139 26.6018 100.427 27.3164 100.932 27.9059C101.437 28.4776 102.195 28.7635 103.205 28.7635ZM106.054 23.1627C106.054 22.7161 105.975 22.3231 105.818 21.9836C105.662 21.6263 105.453 21.3405 105.191 21.1261C104.93 20.8938 104.616 20.7241 104.251 20.6169C103.902 20.5097 103.536 20.4561 103.153 20.4561C102.23 20.474 101.507 20.733 100.984 21.2333C100.479 21.7156 100.183 22.3588 100.096 23.1627H106.054Z" fill="white"/>
<path d="M115.622 19.277C116.179 18.5982 116.772 18.089 117.399 17.7496C118.043 17.4101 118.81 17.2404 119.698 17.2404C119.925 17.2404 120.143 17.2493 120.352 17.2672C120.561 17.2851 120.752 17.3119 120.926 17.3476V20.8313C120.526 20.8313 120.116 20.8402 119.698 20.8581C119.298 20.8581 118.914 20.8938 118.548 20.9653C118.183 21.0368 117.825 21.1529 117.477 21.3137C117.146 21.4566 116.85 21.671 116.589 21.9568C116.188 22.4213 115.935 22.9215 115.831 23.4575C115.744 23.9935 115.7 24.6009 115.7 25.2798V31.6309H112.016V17.5084H115.413L115.622 19.277Z" fill="white"/>
<path d="M126.913 12.658L135.694 25.3601V12.658H139.404V31.6309H135.772L126.992 18.9823V31.6309H123.281V12.658H126.913Z" fill="white"/>
<path d="M149.22 31.8452C146.99 31.8452 145.274 31.2021 144.072 29.9158C142.87 28.6116 142.269 26.8072 142.269 24.5026C142.269 23.395 142.425 22.3945 142.739 21.5013C143.07 20.5901 143.523 19.813 144.098 19.1698C144.69 18.5267 145.413 18.0443 146.267 17.7228C147.138 17.3833 148.122 17.2136 149.22 17.2136C150.3 17.2136 151.267 17.3833 152.12 17.7228C152.991 18.0443 153.723 18.5267 154.315 19.1698C154.925 19.813 155.387 20.5901 155.7 21.5013C156.031 22.3945 156.197 23.395 156.197 24.5026C156.197 26.8251 155.587 28.6295 154.368 29.9158C153.165 31.2021 151.45 31.8452 149.22 31.8452ZM149.22 20.5901C148.087 20.5901 147.251 20.9653 146.711 21.7156C146.171 22.466 145.901 23.4039 145.901 24.5294C145.901 25.6728 146.171 26.6196 146.711 27.37C147.251 28.1203 148.087 28.4955 149.22 28.4955C150.352 28.4955 151.179 28.1203 151.702 27.37C152.225 26.6196 152.486 25.6728 152.486 24.5294C152.486 23.4039 152.225 22.466 151.702 21.7156C151.179 20.9653 150.352 20.5901 149.22 20.5901Z" fill="white"/>
<path d="M167.787 17.5084H171.838L166.768 31.6309H162.143L157.099 17.5084H161.176L164.495 27.9863L167.787 17.5084Z" fill="white"/>
<path d="M181.962 29.889C181.44 30.6036 180.804 31.1128 180.055 31.4165C179.306 31.7202 178.435 31.8631 177.442 31.8452C176.17 31.8095 175.107 31.4433 174.254 30.7465C173.801 30.3535 173.444 29.889 173.182 29.353C172.938 28.7992 172.816 28.1471 172.816 27.3968C172.834 26.6286 172.999 25.9497 173.313 25.3601C173.644 24.7527 174.14 24.2525 174.802 23.8595C175.36 23.5558 175.987 23.3414 176.684 23.2163C177.398 23.0913 178.173 23.0287 179.01 23.0287H181.832C181.884 22.1533 181.684 21.5013 181.231 21.0725C180.795 20.6259 180.177 20.3936 179.375 20.3757C179.114 20.3757 178.844 20.3936 178.565 20.4293C178.287 20.4651 178.025 20.5365 177.781 20.6437C177.555 20.7509 177.355 20.9028 177.18 21.0993C177.024 21.2779 176.919 21.5013 176.867 21.7692H173.078C173.165 20.9117 173.391 20.1971 173.757 19.6254C174.14 19.0359 174.619 18.5624 175.194 18.2051C175.769 17.8478 176.405 17.5977 177.102 17.4548C177.816 17.294 178.548 17.2136 179.297 17.2136C179.715 17.2136 180.142 17.2404 180.577 17.294C181.013 17.3297 181.44 17.419 181.858 17.562C182.276 17.687 182.668 17.8657 183.034 18.0979C183.417 18.3123 183.774 18.5982 184.105 18.9555C184.698 19.6522 185.063 20.4561 185.203 21.3673C185.36 22.2605 185.429 23.1359 185.412 23.9935V31.6309H182.041L181.962 29.889ZM181.832 25.3869H179.14C178.879 25.3869 178.583 25.4137 178.252 25.4673C177.921 25.5209 177.633 25.6192 177.389 25.7621C177.146 25.905 176.936 26.0926 176.762 26.3249C176.605 26.5571 176.527 26.843 176.527 27.1824C176.527 27.4682 176.579 27.7184 176.684 27.9327C176.806 28.1471 176.954 28.3258 177.128 28.4687C177.32 28.6116 177.546 28.7277 177.808 28.8171C178.069 28.8885 178.33 28.9243 178.591 28.9243C179.097 28.9421 179.567 28.8528 180.003 28.6563C180.456 28.4598 180.848 28.1829 181.179 27.8256C181.388 27.5397 181.544 27.2181 181.649 26.8608C181.771 26.4857 181.832 25.9944 181.832 25.3869Z" fill="white"/>
<defs>
<clipPath id="clip0_5101_14712">
<rect width="47.3684" height="45" fill="white" transform="translate(22 2)"/>
</clipPath>
</defs>
</svg>
